{
.appVersion = "3115";
.formatVersion = 3;
axes = (
{
name = Weight;
tag = wght;
},
{
name = Width;
tag = wdth;
}
);
customParameters = (
{
name = "Use Typo Metrics";
value = 1;
},
{
name = "Use Line Breaks";
value = 1;
},
{
name = "Write lastChange";
value = 0;
},
{
name = fsType;
value = (
);
},
{
name = isFixedPitch;
value = 1;
}
);
date = "2020-07-30 10:56:43 +0000";
familyName = "Syne Mono";
featurePrefixes = (
{
automatic = 1;
code = "languagesystem DFLT dflt;

languagesystem latn dflt;
languagesystem latn ROM;
languagesystem latn MOL;
languagesystem latn CAT;
";
name = Languagesystems;
}
);
features = (
{
automatic = 1;
code = "feature locl;
feature sups;
feature numr;
feature dnom;
feature frac;
feature ordn;
feature lnum;
feature pnum;
feature tnum;
feature onum;
feature case;
feature salt;
feature ss01;
feature ss02;
feature ss03;
";
tag = aalt;
},
{
automatic = 1;
code = "lookup ccmp_Other_1 {
	@CombiningTopAccents = [acutecomb brevecomb caroncomb circumflexcomb commaturnedabovecomb dieresiscomb dotaccentcomb gravecomb hungarumlautcomb macroncomb ringcomb tildecomb];
	@CombiningNonTopAccents = [cedillacomb ogonekcomb];
	sub [i]' @CombiningTopAccents by [idotless];
	sub [i]' @CombiningNonTopAccents @CombiningTopAccents by [idotless];
} ccmp_Other_1;
";
tag = ccmp;
},
{
automatic = 1;
code = "lookup locl_latn_0 {
	script latn;
	language ROM;
	language MOL;
	sub Scedilla by Scommaaccent;
	sub scedilla by scommaaccent;
	sub Tcedilla by Tcommaaccent;
	sub tcedilla by tcommaaccent;
} locl_latn_0;

lookup locl_latn_1 {
	script latn;
	language CAT;
	sub  l' periodcentered' l by ldot;
	sub  L' periodcentered' L by Ldot;
} locl_latn_1;
";
tag = locl;
},
{
automatic = 1;
code = "sub one by onesuperior;
sub two by twosuperior;
sub three by threesuperior;
sub four by foursuperior;
";
tag = sups;
},
{
automatic = 1;
code = "sub zero by zero.numr;
sub one by one.numr;
sub two by two.numr;
sub three by three.numr;
sub four by four.numr;
sub five by five.numr;

glyphs = (
{
color = 6;
glyphname = A;
layers = (
{
anchors = (
{
name = bottom;
pos = (275,0);
},
{
name = ogonek;
pos = (447,10);
},
{
name = top;
pos = (275,650);
}
);
layerId = "DA2C6654-D585-4A87-87E3-B198D23B8793";
shapes = (
{
closed = 1;
nodes = (
(534,0,o),
(330,660,o),
(274,660,cs),
(218,660,o),
(16,0,o),
(72,0,cs),
(100,0,o),
(122,28,o),
(139,85,cs),
(156,142,o),
(201,170,o),
(274,170,cs),
(347,170,o),
(384,170,o),
(384,170,cs),
(384,170,o),
(420,0,o),
(477,0,cs)
);
},
{
closed = 1;
nodes = (
(215,246,o),
(201,296,o),
(230,396,cs),
(259,495,o),
(289,495,o),
(318,396,cs),
(347,296,o),
(333,246,o),
(274,246,cs)
);
}
);
width = 550;
}
);
unicode = 65;
},
{
color = 6;
glyphname = Aogonek;
kernLeft = A;
kernRight = A;
layers = (
{
anchors = (
{
name = bottom;
pos = (275,0);
},
{
name = ogonek;
pos = (447,10);
},
{
name = top;
pos = (275,650);
}
);
layerId = "DA2C6654-D585-4A87-87E3-B198D23B8793";
shapes = (
{
closed = 1;
nodes = (
(526,-123,o),
(516,-128,o),
(516,-138,c),
(492,-165,l),
(476,-165,o),
(452,-165,o),
(419,-165,c),
(419,-78,l),
(446,-44,ls),
(459,-28,o),
(468,-13,o),
(475,0,c),
(477,0,ls),
(534,0,o),
(330,660,o),
(274,660,cs),
(218,660,o),
(16,0,o),
(72,0,cs),
(100,0,o),
(122,28,o),
(139,85,cs),
(156,142,o),
(201,170,o),
(274,170,cs),
(384,170,l),
(384,170,o),
(403,82,o),
(434,32,c),
(421,20,o),
(406,3,o),
(389,-21,cs),
(351,-76,l),
(351,-171,l),
(412,-230,l),
(516,-230,l),
(583,-168,l),
(580,-138,o),
(568,-123,o),
(547,-123,cs)
);
},
{
closed = 1;
nodes = (
(215,246,o),
(201,296,o),
(230,396,cs),
(259,495,o),
(289,495,o),
(318,396,cs),
(347,296,o),
(333,246,o),
(274,246,cs)
);
}
);
width = 550;
}
);
metricLeft = A;
unicode = 260;
},
{
color = 6;
glyphname = AE;
layers = (
{
anchors = (
{
name = bottom;
pos = (275,0);
},
{
name = top;
pos = (275,650);
}
);
layerId = "DA2C6654-D585-4A87-87E3-B198D23B8793";
shapes = (
{
closed = 1;
nodes = (
(379,75,o),
(355,110,o),
(355,181,cs),
(355,251,o),
(372,286,o),
(405,286,cs),
(438,286,o),
(455,299,o),
(455,324,cs),
(455,349,o),
(438,361,o),
(405,361,cs),
(372,361,o),
(355,397,o),
(355,468,cs),
(355,539,o),
(379,575,o),
(427,575,cs),
(475,575,o),
(499,588,o),
(499,613,cs),
(499,638,o),
(454,650,o),
(363,650,cs),
(181,650,o),
(16,0,o),
(72,0,cs),
(100,0,o),
(123,30,o),
(140,91,cs),
(157,151,o),
(183,181,o),
(220,181,cs),
(257,181,o),
(275,151,o),
(275,91,cs),
(275,30,o),
(313,0,o),
(388,0,cs),
(463,0,o),
(500,13,o),
(500,38,cs),
(500,63,o),
(476,75,o),
(428,75,cs)
);
},
{
closed = 1;
nodes = (
(200,251,o),
(200,304,o),
(230,409,cs),
(260,514,o),
(275,514,o),
(275,409,cs),
(275,304,o),
(260,251,o),
(230,251,cs)
);
}
);
width = 550;
}
);
unicode = 198;
},
{
color = 6;
glyphname = B;
layers = (
{
anchors = (
{
name = bottom;
pos = (275,0);
},
{
name = top;
pos = (275,650);
}
);
layerId = "DA2C6654-D585-4A87-87E3-B198D23B8793";
shapes = (
{
closed = 1;
nodes = (
(496,153,o),
(496,206,o),
(496,255,c),
(412,320,l),
(363,325,o),
(360,332,o),
(404,339,c),
(475,409,l),
(475,454,o),
(475,503,o),
(475,558,c),
(362,650,l),
(295,650,o),
(225,650,o),
(153,650,cs),
(81,650,o),
(45,542,o),
(45,325,cs),
(45,108,o),
(86,0,o),
(168,0,cs),
(250,0,o),
(291,0,o),
(291,0,cs),
(291,0,o),
(322,2,o),
(385,5,c),
(496,96,l)
);
},
{
closed = 1;
nodes = (
(238,572,o),
(282,572,o),
(323,572,c),
(396,524,l),
(396,490,o),
(396,455,o),
(396,418,c),
(320,361,l),
(274,361,o),
(230,361,o),
(188,361,cs),
(146,361,o),
(125,396,o),
(125,467,cs),
(125,537,o),
(148,572,o),
(193,572,cs)
);
},
{
closed = 1;
nodes = (
(319,78,o),
(247,78,o),
(198,78,cs),
(149,78,o),
(125,112,o),
(125,181,cs),
(125,249,o),
(146,283,o),
(188,283,cs),
(230,283,o),
(275,283,o),
(324,283,c),
(416,240,l),
(416,201,o),
(416,147,o),
(416,78,c)
);
}
);
width = 550;
}
);
unicode = 66;
},
{
color = 6;
glyphname = C;
layers = (
{
anchors = (
{
name = bottom;
pos = (275,0);
},
{
name = top;
pos = (275,650);
}
);
layerId = "DA2C6654-D585-4A87-87E3-B198D23B8793";
shapes = (
{
closed = 1;
nodes = (
(505,181,o),
(493,217,o),
(468,217,cs),
(443,217,o),
(428,192,o),
(424,141,c),
(357,65,l),
(312,65,o),
(259,65,o),
(199,65,c),
(115,196,l),
(115,282,o),
(115,368,o),
(115,453,c),
(199,585,l),
(259,585,o),
(312,585,o),
(357,585,c),
(427,509,l),
(436,457,o),
(453,431,o),
(478,431,cs),
(503,431,o),
(512,468,o),
(507,541,c),
(395,660,l),
(324,660,o),
(246,660,o),
(160,660,c),
(35,484,l),
(35,378,o),
(35,272,o),
(35,166,c),
(160,-10,l),
(246,-10,o),
(324,-10,o),
(395,-10,c),
(505,109,l)
);
}
);
width = 550;
}
);
unicode = 67;
},
{
color = 6;
glyphname = Ccedilla;
kernLeft = O;
kernRight = O;
layers = (
{
anchors = (
{
name = bottom;
pos = (377,-240);
},
{
name = top;
pos = (275,650);
}
);
layerId = "DA2C6654-D585-4A87-87E3-B198D23B8793";
shapes = (
{
closed = 1;
nodes = (
(443,217,o),
(428,192,o),
(424,141,c),
(357,65,l),
(199,65,l),
(115,196,l),
(115,453,l),
(199,585,l),
(357,585,l),
(427,509,l),
(436,457,o),
(453,431,o),
(478,431,cs),
(503,431,o),
(512,468,o),
(507,541,c),
(395,660,l),
(160,660,l),
(35,484,l),
(35,166,l),
(160,-10,l),
(244,-10,l),
(246,-22,o),
(254,-37,o),
(267,-54,cs),
(294,-88,l),
(294,-111,o),
(294,-140,o),
(294,-175,c),
(221,-175,l),
(197,-148,l),
(197,-138,o),
(187,-133,o),
(166,-133,cs),
(145,-133,o),
(133,-148,o),
(130,-178,c),
(197,-240,l),
(301,-240,l),
(362,-181,l),
(362,-86,l),
(324,-31,ls),
(318,-23,o),
(313,-16,o),
(307,-10,c),
(395,-10,l),
(505,109,l),
(505,181,o),
(493,217,o),
(468,217,cs)
);
}
);
width = 550;
}
);
metricLeft = C;
metricRight = C;
unicode = 199;
},
{
color = 6;
glyphname = D;
layers = (
{
anchors = (
{
name = bottom;
pos = (275,0);
},
{
name = center;
pos = (125,325);
},
{
name = top;
pos = (275,650);
}
);
layerId = "DA2C6654-D585-4A87-87E3-B198D23B8793";
shapes = (
{
closed = 1;
nodes = (
(370,650,l),
(248,650,o),
(168,650,o),
(127,650,cs),
(72,650,o),
(45,542,o),
(45,325,cs),
(45,108,o),
(72,0,o),
(127,0,cs),
(182,0,o),
(263,0,o),
(370,0,c),
(515,184,l),
(515,250,o),
(515,344,o),
(515,466,c)
);
},
{
closed = 1;
nodes = (
(252,77,o),
(195,77,o),
(167,77,cs),
(139,77,o),
(125,160,o),
(125,325,cs),
(125,490,o),
(139,573,o),
(167,573,cs),
(195,573,o),
(252,573,o),
(339,573,c),
(436,438,l),
(436,365,o),
(436,291,o),
(436,217,c),
(338,77,l)
);
}
);
width = 550;
}
);
unicode = 68;
},
{
color = 6;
glyphname = E;
layers = (
{
anchors = (
{
name = bottom;
pos = (275,0);
},
{
name = ogonek;
pos = (495,10);
},
{
name = top;
pos = (305,650);
},
{
name = topleft;
pos = (20,650);
}
);
layerId = "DA2C6654-D585-4A87-87E3-B198D23B8793";
shapes = (
{
closed = 1;
nodes = (
(189,75,o),
(125,110,o),
(125,181,cs),
(125,251,o),
(177,286,o),
(281,286,cs),
(384,286,o),
(436,299,o),
(436,324,cs),
(436,349,o),
(384,361,o),
(281,361,cs),
(177,361,o),
(125,397,o),
(125,468,cs),
(125,539,o),
(188,575,o),
(315,575,cs),
(442,575,o),
(505,588,o),
(505,613,cs),
(505,638,o),
(428,650,o),
(275,650,cs),
(122,650,o),
(45,542,o),
(45,325,cs),
(45,108,o),
(122,0,o),
(276,0,cs),
(429,0,o),
(506,13,o),
(506,38,cs),
(506,63,o),
(443,75,o),
(316,75,cs)
);
}
);
width = 550;
}
);
unicode = 69;
},
{
color = 6;
glyphname = Eogonek;
kernRight = E;
layers = (
{
anchors = (
{
name = bottom;
pos = (275,0);
},
{
name = ogonek;
pos = (495,10);
},
{
name = top;
pos = (300,680);
},
{
name = topleft;
pos = (20,650);
}
);
layerId = "DA2C6654-D585-4A87-87E3-B198D23B8793";
shapes = (
{
closed = 1;
nodes = (
(544,-123,o),
(534,-128,o),
(534,-138,c),
(510,-165,l),
(494,-165,o),
(470,-165,o),
(437,-165,c),
(437,-78,l),
(464,-44,ls),
(489,-12,o),
(502,14,o),
(504,31,c),
(505,33,o),
(506,36,o),
(506,38,cs),
(506,42,o),
(504,46,o),
(501,50,c),
(500,50,o),
(499,51,o),
(498,52,cs),
(478,67,o),
(417,75,o),
(316,75,cs),
(189,75,o),
(125,110,o),
(125,181,cs),
(125,251,o),
(177,286,o),
(281,286,cs),
(384,286,o),
(436,299,o),
(436,324,cs),
(436,349,o),
(384,361,o),
(281,361,cs),
(177,361,o),
(125,397,o),
(125,468,cs),
(125,539,o),
(188,575,o),
(315,575,cs),
(442,575,o),
(505,588,o),
(505,613,cs),
(505,638,o),
(428,650,o),
(275,650,cs),
(122,650,o),
(45,542,o),
(45,325,cs),
(45,108,o),
(122,0,o),
(276,0,cs),
(340,0,o),
(391,2,o),
(428,7,c),
(421,-1,o),
(414,-11,o),
(407,-21,cs),
(369,-76,l),
(369,-171,l),
(430,-230,l),
(534,-230,l),
(601,-168,l),
(598,-138,o),
(586,-123,o),
(565,-123,cs)
);
}
);
width = 550;
}
);
metricLeft = E;
unicode = 280;
},
{
color = 6;
glyphname = F;
layers = (
{
anchors = (
{
name = bottom;
pos = (275,0);
},
{
name = top;
pos = (275,650);
}
);
layerId = "DA2C6654-D585-4A87-87E3-B198D23B8793";
shapes = (
{
closed = 1;
nodes = (
(442,573,o),
(505,586,o),
(505,612,cs),
(505,637,o),
(428,650,o),
(275,650,cs),
(122,650,o),
(45,542,o),
(45,325,cs),
(45,108,o),
(58,0,o),
(85,0,cs),
(112,0,o),
(125,48,o),
(125,143,cs),
(125,238,o),
(177,285,o),
(281,285,cs),
(384,285,o),
(436,298,o),
(436,324,cs),
(436,349,o),
(384,362,o),
(281,362,cs),
(177,362,o),
(125,397,o),
(125,468,cs),
(125,538,o),
(188,573,o),
(315,573,cs)
);
}
);
width = 550;
}
);
unicode = 70;
},
{
color = 6;
glyphname = G;
layers = (
{
anchors = (
{
name = bottom;
pos = (270,0);
},
{
name = top;
pos = (270,650);
}
);
layerId = "DA2C6654-D585-4A87-87E3-B198D23B8793";
shapes = (
{
closed = 1;
nodes = (
(505,259,o),
(469,311,o),
(397,311,cs),
(325,311,o),
(289,299,o),
(289,274,cs),
(289,249,o),
(310,237,o),
(351,238,cs),
(392,239,o),
(404,209,o),
(389,149,c),
(313,67,l),
(275,67,o),
(233,67,o),
(188,67,c),
(115,200,l),
(115,283,o),
(115,411,o),
(115,583,c),
(224,583,o),
(301,583,o),
(345,583,c),
(415,507,l),
(422,456,o),
(437,431,o),
(460,431,cs),
(483,431,o),
(491,467,o),
(483,540,c),
(374,660,l),
(311,660,o),
(238,660,o),
(156,660,c),
(35,483,l),
(35,378,o),
(35,273,o),
(35,168,c),
(146,-10,l),
(217,-10,o),
(307,-10,o),
(364,-10,c),
(432,143,o),
(440,173,o),
(437,81,cs),
(437,27,o),
(448,0,o),
(471,0,cs),
(494,0,o),
(505,52,o),
(505,156,cs)
);
}
);
width = 550;
}
);
unicode = 71;
},
{
color = 6;
glyphname = H;
layers = (
{
anchors = (
{
name = bottom;
pos = (275,0);
},
{
name = center;
pos = (275,325);
},
{
name = top;
pos = (275,650);
},
{
name = topleft;
pos = (20,650);
}
);
layerId = "DA2C6654-D585-4A87-87E3-B198D23B8793";
shapes = (
{
closed = 1;
nodes = (
(438,650,o),
(425,602,o),
(425,506,cs),
(425,410,o),
(375,362,o),
(275,362,cs),
(175,362,o),
(125,410,o),
(125,506,cs),
(125,602,o),
(112,650,o),
(85,650,cs),
(58,650,o),
(45,542,o),
(45,325,cs),
(45,108,o),
(58,0,o),
(85,0,cs),
(112,0,o),
(125,48,o),
(125,144,cs),
(125,239,o),
(175,287,o),
(275,287,cs),
(375,287,o),
(425,239,o),
(425,144,cs),
(425,48,o),
(438,0,o),
(465,0,cs),
(492,0,o),
(505,108,o),
(505,325,cs),
(505,542,o),
(492,650,o),
(465,650,cs)
);
}
);
width = 550;
}
);
unicode = 72;
},
{
color = 6;
glyphname = Hbar;
layers = (
{
layerId = "DA2C6654-D585-4A87-87E3-B198D23B8793";
shapes = (
{
closed = 1;
nodes = (
(540,495,o),
(534,507,o),
(523,507,cs),
(511,507,o),
(505,531,o),
(505,579,cs),
(505,626,o),
(492,650,o),
(465,650,cs),
(438,650,o),
(425,626,o),
(425,579,cs),
(425,531,o),
(375,507,o),
(275,507,cs),
(175,507,o),
(125,531,o),
(125,579,cs),
(125,626,o),
(112,650,o),
(85,650,cs),
(58,650,o),
(45,626,o),
(45,579,cs),
(45,531,o),
(39,507,o),
(28,507,cs),
(16,507,o),
(10,495,o),
(10,470,cs),
(10,445,o),
(16,432,o),
(28,432,cs),
(39,432,o),
(45,360,o),
(45,216,cs),
(45,72,o),
(58,0,o),
(85,0,cs),
(112,0,o),
(125,48,o),
(125,144,cs),
(125,239,o),
(175,287,o),
(275,287,cs),
(375,287,o),
(425,239,o),
(425,144,cs),
(425,48,o),
(438,0,o),
(465,0,cs),
(492,0,o),
(505,72,o),
(505,216,cs),
(505,360,o),
(511,432,o),
(523,432,cs),
(534,432,o),
(540,445,o),
(540,470,cs)
);
},
{
closed = 1;
nodes = (
(425,374,o),
(375,362,o),
(275,362,cs),
(175,362,o),
(125,374,o),
(125,397,cs),
(125,420,o),
(175,432,o),
(275,432,cs),
(375,432,o),
(425,420,o),
(425,397,cs)
);
}
);
width = 550;
}
);
unicode = 294;
},
{
color = 6;
glyphname = I;
layers = (
{
anchors = (
{
name = bottom;
pos = (275,0);
},
{
name = ogonek;
pos = (375,0);
},
{
name = top;
pos = (275,650);
},
{
name = topleft;
pos = (20,650);
}
);
layerId = "DA2C6654-D585-4A87-87E3-B198D23B8793";
shapes = (
{
closed = 1;
nodes = (
(423,575,o),
(445,588,o),
(445,613,cs),
(445,638,o),
(388,650,o),
(275,650,cs),
(162,650,o),
(105,638,o),
(105,613,cs),
(105,588,o),
(127,575,o),
(170,575,cs),
(213,575,o),
(235,492,o),
(235,325,cs),
(235,158,o),
(213,75,o),
(170,75,cs),
(127,75,o),
(105,63,o),
(105,38,cs),
(105,13,o),
(127,0,o),
(170,0,cs),
(213,0,o),
(235,0,o),
(235,0,cs),
(235,0,o),
(248,0,o),
(275,0,cs),
(302,0,o),
(315,0,o),
(315,0,cs),
(315,0,o),
(337,0,o),
(380,0,cs),
(423,0,o),
(445,13,o),
(445,38,cs),
(445,63,o),
(423,75,o),
(380,75,cs),
(337,75,o),
(315,158,o),
(315,325,cs),
(315,492,o),
(337,575,o),
(380,575,cs)
);
}
);
width = 550;
}
);
unicode = 73;
},
{
color = 6;
glyphname = IJ;
layers = (
{
layerId = "DA2C6654-D585-4A87-87E3-B198D23B8793";
shapes = (
{
closed = 1;
nodes = (
(418,650,o),
(405,578,o),
(405,435,cs),
(405,291,o),
(405,197,o),
(405,152,c),
(336,68,l),
(295,68,o),
(254,68,o),
(211,68,c),
(128,130,l),
(121,169,o),
(106,188,o),
(82,188,cs),
(57,188,o),
(46,157,o),
(49,96,c),
(175,-10,l),
(242,-10,o),
(296,-10,o),
(338,-10,c),
(433,49,l),
(485,154,l),
(485,197,o),
(485,291,o),
(485,435,cs),
(485,578,o),
(472,650,o),
(445,650,cs)
);
},
{
closed = 1;
nodes = (
(132,586,o),
(119,650,o),
(92,650,cs),
(65,650,o),
(52,586,o),
(52,457,cs),
(52,328,o),
(65,263,o),
(92,263,cs),
(119,263,o),
(132,328,o),
(132,457,cs)
);
}
);
width = 550;
}
);
unicode = 306;
},
{
color = 6;
glyphname = Iogonek;
layers = (
{
anchors = (
{
name = bottom;
pos = (275,0);
},
{
name = ogonek;
pos = (375,0);
},
{
name = top;
pos = (275,650);
},
{
name = topleft;
pos = (20,650);
}
);
layerId = "DA2C6654-D585-4A87-87E3-B198D23B8793";
shapes = (
{
closed = 1;
nodes = (
(454,-133,o),
(444,-138,o),
(444,-148,c),
(420,-175,l),
(404,-175,o),
(380,-175,o),
(347,-175,c),
(347,-88,l),
(374,-54,ls),
(391,-32,o),
(403,-13,o),
(409,2,c),
(433,7,o),
(445,19,o),
(445,38,cs),
(445,63,o),
(423,75,o),
(380,75,cs),
(337,75,o),
(315,158,o),
(315,325,cs),
(315,492,o),
(337,575,o),
(380,575,cs),
(423,575,o),
(445,588,o),
(445,613,cs),
(445,638,o),
(388,650,o),
(275,650,cs),
(162,650,o),
(105,638,o),
(105,613,cs),
(105,588,o),
(127,575,o),
(170,575,cs),
(213,575,o),
(235,492,o),
(235,325,cs),
(235,158,o),
(213,75,o),
(170,75,cs),
(127,75,o),
(105,63,o),
(105,38,cs),
(105,13,o),
(127,0,o),
(170,0,cs),
(213,0,o),
(235,0,o),
(235,0,c),
(275,0,ls),
(302,0,o),
(315,0,o),
(315,0,c),
(341,0,l),
(333,-9,o),
(325,-19,o),
(317,-31,cs),
(279,-86,l),
(279,-181,l),
(340,-240,l),
(444,-240,l),
(511,-178,l),
(508,-148,o),
(496,-133,o),
(475,-133,cs)
);
}
);
width = 550;
}
);
unicode = 302;
},
{
color = 6;
glyphname = J;
layers = (
{
anchors = (
{
name = bottom;
pos = (275,0);
},
{
name = top;
pos = (275,650);
}
);
layerId = "DA2C6654-D585-4A87-87E3-B198D23B8793";
shapes = (
{
closed = 1;
nodes = (
(418,650,o),
(405,578,o),
(405,435,cs),
(405,291,o),
(405,197,o),
(405,152,c),
(336,68,l),
(295,68,o),
(254,68,o),
(211,68,c),
(128,130,l),
(121,169,o),
(106,188,o),
(82,188,cs),
(57,188,o),
(46,157,o),
(49,96,c),
(175,-10,l),
(242,-10,o),
(296,-10,o),
(338,-10,c),
(433,49,l),
(485,154,l),
(485,197,o),
(485,291,o),
(485,435,cs),
(485,578,o),
(472,650,o),
(445,650,cs)
);
}
);
width = 550;
}
);
unicode = 74;
},
{
color = 6;
glyphname = K;
layers = (
{
anchors = (
{
name = bottom;
pos = (245,0);
},
{
name = top;
pos = (275,650);
}
);
layerId = "DA2C6654-D585-4A87-87E3-B198D23B8793";
shapes = (
{
closed = 1;
nodes = (
(512,0,o),
(479,57,o),
(376,172,cs),
(251,311,o),
(244,370,o),
(355,497,cs),
(444,599,o),
(470,650,o),
(434,650,cs),
(398,650,o),
(338,598,o),
(253,495,cs),
(168,392,o),
(125,392,o),
(125,495,cs),
(125,598,o),
(112,650,o),
(85,650,cs),
(58,650,o),
(45,542,o),
(45,325,cs),
(45,108,o),
(58,0,o),
(85,0,cs),
(112,0,o),
(125,57,o),
(125,170,cs),
(125,283,o),
(175,283,o),
(275,170,cs),
(374,57,o),
(442,0,o),
(477,0,cs)
);
}
);
width = 550;
}
);
unicode = 75;
},
{
color = 6;
glyphname = L;
layers = (
{
anchors = (
{
name = bottom;
pos = (275,0);
},
{
name = center;
pos = (105,325);
},
{
name = top;
pos = (115,650);
},
{
name = topright;
pos = (274,650);
}
);
layerId = "DA2C6654-D585-4A87-87E3-B198D23B8793";
shapes = (
{
closed = 1;
nodes = (
(188,75,o),
(125,171,o),
(125,363,cs),
(125,554,o),
(112,650,o),
(85,650,cs),
(58,650,o),
(45,542,o),
(45,325,cs),
(45,108,o),
(57,0,o),
(82,0,cs),
(106,0,o),
(118,0,o),
(118,0,cs),
(118,0,o),
(183,0,o),
(312,0,cs),
(441,0,o),
(505,13,o),
(505,38,cs),
(505,63,o),
(442,75,o),
(315,75,cs)
);
}
);
width = 550;
}
);
unicode = 76;
},
{
color = 6;
glyphname = Lslash;
layers = (
{
anchors = (
{
name = _center;
pos = (105,325);
},
{
name = bottom;
pos = (275,0);
},
{
name = center;
pos = (105,325);
},
{
name = top;
pos = (115,650);
},
{
name = topright;
pos = (274,650);
}
);
layerId = "DA2C6654-D585-4A87-87E3-B198D23B8793";
shapes = (
{
closed = 1;
nodes = (
(202,75,o),
(140,150,o),
(127,301,c),
(201,355,o),
(267,417,o),
(255,435,cs),
(245,450,o),
(187,420,o),
(125,378,c),
(124,559,o),
(111,650,o),
(85,650,cs),
(58,650,o),
(45,542,o),
(45,325,cs),
(45,319,l),
(-11,273,o),
(-54,229,o),
(-44,215,cs),
(-37,203,o),
(0,219,o),
(46,246,c),
(48,82,o),
(60,0,o),
(82,0,cs),
(106,0,o),
(118,0,o),
(118,0,c),
(312,0,ls),
(441,0,o),
(505,13,o),
(505,38,cs),
(505,63,o),
(442,75,o),
(315,75,cs)
);
}
);
width = 550;
}
);
unicode = 321;
},
{
color = 6;
glyphname = M;
layers = (
{
anchors = (
{
name = bottom;
pos = (275,0);
},
{
name = top;
pos = (275,650);
}
);
layerId = "DA2C6654-D585-4A87-87E3-B198D23B8793";
shapes = (
{
closed = 1;
nodes = (
(438,650,o),
(400,560,o),
(350,379,cs),
(300,198,o),
(250,198,o),
(200,379,cs),
(150,560,o),
(112,650,o),
(85,650,cs),
(58,650,o),
(45,542,o),
(45,325,cs),
(45,108,o),
(58,0,o),
(85,0,cs),
(112,0,o),
(125,71,o),
(125,213,cs),
(125,355,o),
(143,355,o),
(180,213,cs),
(217,71,o),
(248,0,o),
(275,0,cs),
(302,0,o),
(333,72,o),
(370,215,cs),
(407,358,o),
(425,358,o),
(425,215,cs),
(425,72,o),
(438,0,o),
(465,0,cs),
(492,0,o),
(505,108,o),
(505,325,cs),
(505,542,o),
(492,650,o),
(465,650,cs)
);
}
);
width = 550;
}
);
unicode = 77;
},
{
color = 6;
glyphname = N;
layers = (
{
anchors = (
{
name = bottom;
pos = (275,0);
},
{
name = top;
pos = (275,650);
}
);
layerId = "DA2C6654-D585-4A87-87E3-B198D23B8793";
shapes = (
{
closed = 1;
nodes = (
(438,650,o),
(425,564,o),
(425,393,cs),
(425,221,o),
(375,221,o),
(275,393,cs),
(175,564,o),
(112,650,o),
(85,650,cs),
(58,650,o),
(45,542,o),
(45,325,cs),
(45,108,o),
(58,0,o),
(85,0,cs),
(112,0,o),
(125,85,o),
(125,255,cs),
(125,424,o),
(175,424,o),
(275,255,cs),
(375,85,o),
(438,0,o),
(465,0,cs),
(492,0,o),
(505,108,o),
(505,325,cs),
(505,542,o),
(492,650,o),
(465,650,cs)
);
}
);
width = 550;
}
);
unicode = 78;
},
{
color = 6;
glyphname = Eng;
layers = (
{
layerId = "DA2C6654-D585-4A87-87E3-B198D23B8793";
shapes = (
{
closed = 1;
nodes = (
(505,542,o),
(492,650,o),
(465,650,cs),
(438,650,o),
(425,564,o),
(425,393,cs),
(425,221,o),
(375,221,o),
(275,393,cs),
(175,564,o),
(112,650,o),
(85,650,cs),
(58,650,o),
(45,542,o),
(45,325,cs),
(45,108,o),
(58,0,o),
(85,0,cs),
(112,0,o),
(125,85,o),
(125,255,cs),
(125,424,o),
(175,424,o),
(275,255,cs),
(375,86,o),
(425,1,o),
(425,1,c),
(425,0,o),
(425,-25,o),
(425,-75,c),
(359,-130,l),
(323,-130,o),
(305,-143,o),
(305,-170,cs),
(305,-197,o),
(322,-210,o),
(357,-210,c),
(449,-168,l),
(505,-82,l),
(505,-41,o),
(505,-17,o),
(505,-10,cs),
(505,-3,o),
(505,0,o),
(505,0,cs),
(505,0,o),
(505,108,o),
(505,325,cs)
);
}
);
width = 550;
}
);
unicode = 330;
},
{
color = 6;
glyphname = O;
layers = (
{
anchors = (
{
name = bottom;
pos = (275,0);
},
{
name = center;
pos = (275,325);
},
{
name = ogonek;
pos = (495,10);
},
{
name = top;
pos = (275,650);
},
{
name = topleft;
pos = (20,650);
},
{
name = topright;
pos = (530,650);
}
);
layerId = "DA2C6654-D585-4A87-87E3-B198D23B8793";
shapes = (
{
closed = 1;
nodes = (
(234,-10,o),
(316,-10,o),
(397,-10,c),
(515,166,l),
(515,272,o),
(515,378,o),
(515,484,c),
(397,660,l),
(316,660,o),
(236,660,o),
(159,660,c),
(35,481,l),
(35,377,o),
(35,272,o),
(35,166,c),
(153,-10,l)
);
},
{
closed = 1;
nodes = (
(303,67,o),
(247,67,o),
(192,67,c),
(115,196,l),
(115,282,o),
(115,368,o),
(115,453,c),
(192,583,l),
(247,583,o),
(303,583,o),
(358,583,c),
(435,453,l),
(435,368,o),
(435,282,o),
(435,196,c),
(358,67,l)
);
}
);
width = 550;
}
);
unicode = 79;
},
{
color = 6;
glyphname = Oslash;
layers = (
{
anchors = (
{
name = _center;
pos = (275,325);
},
{
name = bottom;
pos = (275,0);
},
{
name = center;
pos = (275,325);
},
{
name = ogonek;
pos = (495,10);
},
{
name = top;
pos = (275,650);
},
{
name = topleft;
pos = (20,650);
},
{
name = topright;
pos = (530,650);
}
);
layerId = "DA2C6654-D585-4A87-87E3-B198D23B8793";
shapes = (
{
closed = 1;
nodes = (
(463,636,o),
(472,666,o),
(465,670,cs),
(459,673,o),
(443,656,o),
(420,625,c),
(397,660,l),
(159,660,l),
(35,481,l),
(35,166,l),
(106,60,l),
(86,15,o),
(77,-15,o),
(84,-19,cs),
(90,-23,o),
(106,-5,o),
(129,26,c),
(153,-10,l),
(397,-10,l),
(515,166,l),
(515,484,l),
(443,591,l)
);
},
{
closed = 1;
nodes = (
(115,453,l),
(192,583,l),
(358,583,l),
(374,556,l),
(303,444,o),
(207,272,o),
(145,145,c),
(115,196,l)
);
},
{
closed = 1;
nodes = (
(192,67,l),
(175,95,l),
(246,207,o),
(342,379,o),
(404,506,c),
(435,453,l),
(435,196,l),
(358,67,l)
);
}
);
width = 550;
}
);
unicode = 216;
},
{
color = 6;
glyphname = OE;
layers = (
{
anchors = (
{
name = bottom;
pos = (275,0);
},
{
name = top;
pos = (275,650);
}
);
layerId = "DA2C6654-D585-4A87-87E3-B198D23B8793";
shapes = (
{
closed = 1;
nodes = (
(506,64,o),
(479,77,o),
(426,77,cs),
(373,77,o),
(358,102,o),
(381,151,c),
(383,240,o),
(398,285,o),
(425,285,cs),
(452,285,o),
(466,298,o),
(466,324,cs),
(466,349,o),
(453,362,o),
(426,362,cs),
(399,362,o),
(383,409,o),
(380,503,c),
(357,550,o),
(373,573,o),
(426,573,cs),
(479,573,o),
(505,586,o),
(505,612,cs),
(505,637,o),
(466,650,o),
(388,650,cs),
(309,650,o),
(262,653,o),
(247,660,c),
(226,660,o),
(186,660,o),
(128,660,c),
(35,481,l),
(35,377,o),
(35,272,o),
(35,165,c),
(122,-10,l),
(184,-10,o),
(226,-10,o),
(247,-10,c),
(262,-3,o),
(309,0,o),
(388,0,cs),
(467,0,o),
(506,13,o),
(506,39,cs)
);
},
{
closed = 1;
nodes = (
(115,282,o),
(115,368,o),
(115,454,c),
(162,583,l),
(197,583,o),
(232,583,o),
(267,583,c),
(305,459,l),
(305,370,o),
(305,280,o),
(305,190,c),
(267,67,l),
(232,67,o),
(197,67,o),
(162,67,c),
(115,195,l)
);
}
);
width = 550;
}
);
unicode = 338;
},
{
color = 6;
glyphname = P;
layers = (
{
anchors = (
{
name = bottom;
pos = (275,0);
},
{
name = top;
pos = (275,650);
}
);
layerId = "DA2C6654-D585-4A87-87E3-B198D23B8793";
shapes = (
{
closed = 1;
nodes = (
(315,650,o),
(253,650,o),
(170,650,cs),
(87,650,o),
(45,542,o),
(45,325,cs),
(45,108,o),
(58,0,o),
(85,0,cs),
(112,0,o),
(125,38,o),
(125,115,cs),
(125,192,o),
(153,230,o),
(210,230,cs),
(267,230,o),
(315,230,o),
(356,230,c),
(453,280,l),
(510,375,l),
(510,418,o),
(510,462,o),
(510,505,c),
(453,600,l),
(356,650,l)
);
},
{
closed = 1;
nodes = (
(315,307,o),
(267,307,o),
(210,307,cs),
(153,307,o),
(125,351,o),
(125,440,cs),
(125,529,o),
(153,573,o),
(210,573,cs),
(267,573,o),
(315,573,o),
(356,573,c),
(430,502,l),
(430,461,o),
(430,420,o),
(430,380,c),
(355,307,l)
);
}
);
width = 550;
}
);
unicode = 80;
},
{
color = 6;
glyphname = Thorn;
layers = (
{
anchors = (
{
name = bottom;
pos = (275,0);
},
{
name = top;
pos = (275,650);
}
);
layerId = "DA2C6654-D585-4A87-87E3-B198D23B8793";
shapes = (
{
closed = 1;
nodes = (
(315,535,o),
(267,535,o),
(210,535,cs),
(153,535,o),
(125,554,o),
(125,593,cs),
(125,631,o),
(112,650,o),
(85,650,cs),
(58,650,o),
(45,542,o),
(45,325,cs),
(45,108,o),
(58,0,o),
(85,0,cs),
(112,0,o),
(125,19,o),
(125,58,cs),
(125,96,o),
(153,115,o),
(210,115,cs),
(267,115,o),
(315,115,o),
(356,115,c),
(453,165,l),
(510,260,l),
(510,303,o),
(510,347,o),
(510,390,c),
(453,485,l),
(356,535,l)
);
},
{
closed = 1;
nodes = (
(315,192,o),
(267,192,o),
(210,192,cs),
(153,192,o),
(125,236,o),
(125,325,cs),
(125,414,o),
(153,458,o),
(210,458,cs),
(267,458,o),
(315,458,o),
(356,458,c),
(430,387,l),
(430,346,o),
(430,305,o),
(430,265,c),
(355,192,l)
);
}
);
width = 550;
}
);
unicode = 222;
},
{
color = 6;
glyphname = Q;
layers = (
{
anchors = (
{
name = bottom;
pos = (275,0);
},
{
name = top;
pos = (275,650);
}
);
layerId = "DA2C6654-D585-4A87-87E3-B198D23B8793";
shapes = (
{
closed = 1;
nodes = (
(515,277,o),
(515,378,o),
(515,484,c),
(397,660,l),
(316,660,o),
(236,660,o),
(159,660,c),
(35,481,l),
(35,377,o),
(35,277,o),
(35,180,c),
(134,7,l),
(201,-2,o),
(235,-39,o),
(235,-103,cs),
(235,-168,o),
(248,-200,o),
(275,-200,cs),
(302,-200,o),
(315,-168,o),
(315,-103,cs),
(315,-39,o),
(349,-2,o),
(416,7,c),
(515,180,l)
);
},
{
closed = 1;
nodes = (
(303,67,o),
(247,67,o),
(192,67,c),
(115,196,l),
(115,282,o),
(115,368,o),
(115,453,c),
(192,583,l),
(247,583,o),
(303,583,o),
(358,583,c),
(435,453,l),
(435,368,o),
(435,282,o),
(435,196,c),
(358,67,l)
);
}
);
width = 550;
}
);
unicode = 81;
},
{
color = 6;
glyphname = R;
layers = (
{
anchors = (
{
name = bottom;
pos = (275,0);
},
{
name = top;
pos = (275,650);
}
);
layerId = "DA2C6654-D585-4A87-87E3-B198D23B8793";
shapes = (
{
closed = 1;
nodes = (
(336,298,o),
(345,301,o),
(400,306,c),
(497,386,l),
(497,439,o),
(497,495,o),
(497,556,c),
(385,650,l),
(316,650,o),
(243,650,o),
(164,650,cs),
(85,650,o),
(45,542,o),
(45,325,cs),
(45,108,o),
(58,0,o),
(85,0,cs),
(112,0,o),
(125,44,o),
(125,133,cs),
(125,221,o),
(148,265,o),
(194,265,cs),
(239,265,o),
(310,265,o),
(407,265,c),
(407,196,o),
(407,135,o),
(408,81,cs),
(408,27,o),
(421,0,o),
(448,0,cs),
(474,0,o),
(487,27,o),
(487,81,cs),
(487,135,o),
(487,180,o),
(487,217,c),
(447,275,l),
(375,297,l)
);
},
{
closed = 1;
nodes = (
(151,342,o),
(125,381,o),
(125,458,cs),
(125,535,o),
(151,573,o),
(204,573,cs),
(256,573,o),
(302,573,o),
(343,573,c),
(417,517,l),
(417,483,o),
(417,448,o),
(417,411,c),
(342,342,l),
(302,342,o),
(256,342,o),
(204,342,cs)
);
}
);
width = 550;
}
);
unicode = 82;
},
{
color = 6;
glyphname = S;
layers = (
{
anchors = (
{
name = bottom;
pos = (275,0);
},
{
name = top;
pos = (275,650);
}
);
layerId = "DA2C6654-D585-4A87-87E3-B198D23B8793";
shapes = (
{
closed = 1;
nodes = (
(41,211,o),
(51,206,o),
(51,155,c),
(101,60,l),
(214,-10,l),
(272,-10,o),
(331,-10,o),
(392,-10,c),
(498,89,l),
(498,144,o),
(498,188,o),
(498,223,c),
(452,289,l),
(404,326,l),
(364,341,o),
(340,351,o),
(331,355,c),
(322,358,o),
(312,362,o),
(303,366,c),
(293,369,o),
(268,377,o),
(239,388,c),
(189,412,l),
(154,454,l),
(154,475,o),
(154,502,o),
(154,534,c),
(223,584,l),
(257,584,o),
(298,584,o),
(336,584,c),
(412,519,l),
(413,474,o),
(426,452,o),
(450,452,cs),
(473,452,o),
(486,484,o),
(487,547,c),
(379,660,l),
(315,660,o),
(257,660,o),
(216,660,c),
(123,612,l),
(74,531,l),
(74,499,o),
(74,464,o),
(74,425,c),
(136,351,l),
(216,313,l),
(267,294,o),
(315,279,o),
(349,266,c),
(381,243,l),
(418,202,l),
(418,181,o),
(418,155,o),
(418,122,c),
(350,65,l),
(314,65,o),
(273,65,o),
(227,65,c),
(129,147,l),
(126,190,o),
(113,211,o),
(89,211,cs)
);
}
);
width = 550;
}
);
unicode = 83;
},
{
color = 6;
glyphname = Scedilla;
layers = (
{
anchors = (
{
name = bottom;
pos = (377,-240);
},
{
name = top;
pos = (275,650);
}
);
layerId = "DA2C6654-D585-4A87-87E3-B198D23B8793";
shapes = (
{
closed = 1;
nodes = (
(364,341,o),
(340,351,o),
(331,355,cs),
(322,358,o),
(312,362,o),
(303,366,cs),
(293,369,o),
(268,377,o),
(239,388,c),
(189,412,l),
(154,454,l),
(154,534,l),
(223,584,l),
(336,584,l),
(412,519,l),
(413,474,o),
(426,452,o),
(450,452,cs),
(473,452,o),
(486,484,o),
(487,547,c),
(379,660,l),
(216,660,l),
(123,612,l),
(74,531,l),
(74,425,l),
(136,351,l),
(216,313,l),
(267,294,o),
(315,279,o),
(349,266,c),
(381,243,l),
(418,202,l),
(418,122,l),
(350,65,l),
(227,65,l),
(129,147,l),
(126,190,o),
(113,211,o),
(89,211,cs),
(41,211,o),
(51,206,o),
(51,155,c),
(101,60,l),
(214,-10,l),
(244,-10,l),
(246,-22,o),
(254,-37,o),
(267,-54,cs),
(294,-88,l),
(294,-111,o),
(294,-140,o),
(294,-175,c),
(221,-175,l),
(197,-148,l),
(197,-138,o),
(187,-133,o),
(166,-133,cs),
(145,-133,o),
(133,-148,o),
(130,-178,c),
(197,-240,l),
(301,-240,l),
(362,-181,l),
(362,-86,l),
(324,-31,ls),
(318,-23,o),
(313,-16,o),
(307,-10,c),
(392,-10,l),
(498,89,l),
(498,223,l),
(452,289,l),
(404,326,l)
);
}
);
width = 550;
}
);
metricLeft = S;
metricRight = S;
unicode = 350;
},
{
color = 6;
glyphname = T;
layers = (
{
anchors = (
{
name = bottom;
pos = (275,0);
},
{
name = center;
pos = (275,325);
},
{
name = top;
pos = (275,650);
}
);
layerId = "DA2C6654-D585-4A87-87E3-B198D23B8793";
shapes = (
{
closed = 1;
nodes = (
(535,638,o),
(448,650,o),
(275,650,cs),
(102,650,o),
(15,638,o),
(15,613,cs),
(15,588,o),
(52,575,o),
(125,575,cs),
(198,575,o),
(235,479,o),
(235,288,cs),
(235,96,o),
(248,0,o),
(275,0,cs),
(302,0,o),
(315,96,o),
(315,288,cs),
(315,479,o),
(352,575,o),
(425,575,cs),
(498,575,o),
(535,588,o),
(535,613,cs)
);
}
);
width = 550;
}
);
unicode = 84;
},
{
color = 6;
glyphname = Tbar;
layers = (
{
anchors = (
{
name = bottom;
pos = (275,0);
},
{
name = center;
pos = (275,325);
},
{
name = top;
pos = (275,650);
}
);
layerId = "DA2C6654-D585-4A87-87E3-B198D23B8793";
shapes = (
{
closed = 1;
nodes = (
(102,650,o),
(15,638,o),
(15,613,cs),
(15,588,o),
(52,575,o),
(125,575,cs),
(189,575,o),
(225,501,o),
(233,354,c),
(161,352,o),
(125,342,o),
(125,325,cs),
(125,308,o),
(162,298,o),
(235,296,c),
(235,288,ls),
(235,96,o),
(248,0,o),
(275,0,cs),
(302,0,o),
(315,96,o),
(315,288,cs),
(315,296,l),
(388,298,o),
(425,308,o),
(425,325,cs),
(425,342,o),
(389,352,o),
(317,354,c),
(325,501,o),
(361,575,o),
(425,575,cs),
(498,575,o),
(535,588,o),
(535,613,cs),
(535,638,o),
(448,650,o),
(275,650,cs)
);
}
);
width = 550;
}
);
unicode = 358;
},
{
color = 6;
glyphname = Tcedilla;
kernLeft = T;
kernRight = T;
layers = (
{
anchors = (
{
name = bottom;
pos = (377,-240);
},
{
name = center;
pos = (275,325);
},
{
name = top;
pos = (275,650);
}
);
layerId = "DA2C6654-D585-4A87-87E3-B198D23B8793";
shapes = (
{
closed = 1;
nodes = (
(102,650,o),
(15,638,o),
(15,613,cs),
(15,588,o),
(52,575,o),
(125,575,cs),
(198,575,o),
(235,479,o),
(235,288,cs),
(235,145,o),
(242,55,o),
(257,19,c),
(238,16,o),
(235,-14,o),
(267,-54,cs),
(294,-88,l),
(294,-111,o),
(294,-140,o),
(294,-175,c),
(221,-175,l),
(197,-148,l),
(197,-138,o),
(187,-133,o),
(166,-133,cs),
(145,-133,o),
(133,-148,o),
(130,-178,c),
(197,-240,l),
(301,-240,l),
(362,-181,l),
(362,-86,l),
(324,-31,ls),
(311,-13,o),
(299,0,o),
(287,8,c),
(306,35,o),
(315,128,o),
(315,288,cs),
(315,479,o),
(352,575,o),
(425,575,cs),
(498,575,o),
(535,588,o),
(535,613,cs),
(535,638,o),
(448,650,o),
(275,650,cs)
);
}
);
width = 550;
}
);
metricLeft = T;
metricRight = T;
unicode = 354;
},
{
color = 6;
glyphname = U;
layers = (
{
anchors = (
{
name = bottom;
pos = (275,0);
},
{
name = ogonek;
pos = (495,10);
},
{
name = top;
pos = (275,650);
},
{
name = topright;
pos = (530,650);
}
);
layerId = "DA2C6654-D585-4A87-87E3-B198D23B8793";
shapes = (
{
closed = 1;
nodes = (
(438,650,o),
(425,583,o),
(425,450,cs),
(425,317,o),
(425,216,o),
(425,147,c),
(346,67,l),
(300,67,o),
(253,67,o),
(205,67,c),
(125,147,l),
(125,216,o),
(125,317,o),
(125,450,cs),
(125,583,o),
(112,650,o),
(85,650,cs),
(58,650,o),
(45,583,o),
(45,450,cs),
(45,317,o),
(45,206,o),
(45,117,c),
(167,-10,l),
(240,-10,o),
(313,-10,o),
(384,-10,c),
(505,117,l),
(505,206,o),
(505,317,o),
(505,450,cs),
(505,583,o),
(492,650,o),
(465,650,cs)
);
}
);
width = 550;
}
);
unicode = 85;
},
{
color = 6;
glyphname = Uogonek;
layers = (
{
anchors = (
{
name = _ogonek;
pos = (751.343,-15);
},
{
name = bottom;
pos = (275,0);
},
{
name = ogonek;
pos = (495,10);
},
{
name = top;
pos = (275,650);
},
{
name = topright;
pos = (530,650);
}
);
layerId = "DA2C6654-D585-4A87-87E3-B198D23B8793";
shapes = (
{
closed = 1;
nodes = (
(371,-31,o),
(379,-19,o),
(385,-9,c),
(505,117,l),
(505,450,ls),
(505,583,o),
(492,650,o),
(465,650,cs),
(438,650,o),
(425,583,o),
(425,450,cs),
(425,147,l),
(346,67,l),
(205,67,l),
(125,147,l),
(125,450,ls),
(125,583,o),
(112,650,o),
(85,650,cs),
(58,650,o),
(45,583,o),
(45,450,cs),
(45,117,l),
(167,-10,l),
(215,-10,o),
(264,-10,o),
(312,-10,c),
(304,-21,l),
(266,-76,l),
(266,-171,l),
(327,-230,l),
(431,-230,l),
(498,-168,l),
(495,-138,o),
(483,-123,o),
(462,-123,cs),
(441,-123,o),
(431,-128,o),
(431,-138,c),
(407,-165,l),
(391,-165,o),
(367,-165,o),
(334,-165,c),
(334,-78,l),
(361,-44,ls)
);
}
);
width = 550;
}
);
metricLeft = U;
metricRight = U;
unicode = 370;
},
{
color = 6;
glyphname = V;
layers = (
{
anchors = (
{
name = bottom;
pos = (275,0);
},
{
name = top;
pos = (275,650);
}
);
layerId = "DA2C6654-D585-4A87-87E3-B198D23B8793";
shapes = (
{
closed = 1;
nodes = (
(460,650,o),
(418,561,o),
(361,382,cs),
(304,203,o),
(248,203,o),
(191,382,cs),
(134,561,o),
(92,650,o),
(63,650,cs),
(6,650,o),
(220,0,o),
(276,0,cs),
(332,0,o),
(544,650,o),
(488,650,cs)
);
}
);
width = 550;
}
);
unicode = 86;
},
{
color = 6;
glyphname = W;
layers = (
{
anchors = (
{
name = bottom;
pos = (275,0);
},
{
name = top;
pos = (275,650);
}
);
layerId = "DA2C6654-D585-4A87-87E3-B198D23B8793";
shapes = (
{
closed = 1;
nodes = (
(460,650,o),
(436,578,o),
(417,434,cs),
(397,290,o),
(376,290,o),
(353,434,cs),
(330,578,o),
(305,650,o),
(276,650,cs),
(247,650,o),
(222,578,o),
(199,434,cs),
(176,290,o),
(155,290,o),
(136,434,cs),
(116,578,o),
(92,650,o),
(63,650,cs),
(6,650,o),
(97,0,o),
(153,0,cs),
(181,0,o),
(209,84,o),
(236,253,cs),
(263,422,o),
(290,422,o),
(317,253,cs),
(344,84,o),
(371,0,o),
(399,0,cs),
(455,0,o),
(544,650,o),
(488,650,cs)
);
}
);
width = 550;
}
);
unicode = 87;
},
{
color = 6;
glyphname = X;
layers = (
{
anchors = (
{
name = bottom;
pos = (275,0);
},
{
name = top;
pos = (275,650);
}
);
layerId = "DA2C6654-D585-4A87-87E3-B198D23B8793";
shapes = (
{
closed = 1;
nodes = (
(475,597,o),
(492,650,o),
(462,650,cs),
(432,650,o),
(394,609,o),
(347,527,cs),
(300,445,o),
(255,445,o),
(210,527,cs),
(165,609,o),
(128,650,o),
(98,650,cs),
(68,650,o),
(83,597,o),
(144,491,cs),
(204,384,o),
(202,276,o),
(139,166,cs),
(75,55,o),
(58,0,o),
(88,0,cs),
(118,0,o),
(157,43,o),
(204,129,cs),
(251,215,o),
(296,215,o),
(341,129,cs),
(385,43,o),
(424,0,o),
(457,0,cs),
(490,0,o),
(475,55,o),
(412,166,cs),
(349,277,o),
(349,385,o),
(412,491,cs)
);
}
);
width = 550;
}
);
unicode = 88;
},
{
color = 6;
glyphname = Y;
layers = (
{
anchors = (
{
name = bottom;
pos = (275,0);
},
{
name = top;
pos = (275,650);
},
{
name = topleft;
pos = (20,650);
}
);
layerId = "DA2C6654-D585-4A87-87E3-B198D23B8793";
shapes = (
{
closed = 1;
nodes = (
(450,650,o),
(409,592,o),
(356,476,cs),
(303,359,o),
(250,359,o),
(196,476,cs),
(142,592,o),
(100,650,o),
(70,650,cs),
(40,650,o),
(60,579,o),
(130,437,cs),
(200,294,o),
(235,186,o),
(235,112,cs),
(235,37,o),
(248,0,o),
(275,0,cs),
(302,0,o),
(315,37,o),
(315,112,cs),
(315,186,o),
(350,294,o),
(420,437,cs),
(490,579,o),
(510,650,o),
(480,650,cs)
);
}
);
width = 550;
}
);
unicode = 89;
},
{
color = 6;
glyphname = Z;
layers = (
{
anchors = (
{
name = bottom;
pos = (275,0);
},
{
name = center;
pos = (275,325);
},
{
name = top;
pos = (275,650);
}
);
layerId = "DA2C6654-D585-4A87-87E3-B198D23B8793";
shapes = (
{
closed = 1;
nodes = (
(495,638,o),
(422,650,o),
(275,650,cs),
(128,650,o),
(55,638,o),
(55,613,cs),
(55,588,o),
(113,575,o),
(228,575,cs),
(343,575,o),
(343,492,o),
(228,325,cs),
(113,158,o),
(55,63,o),
(55,38,cs),
(55,13,o),
(128,0,o),
(275,0,cs),
(422,0,o),
(495,13,o),
(495,38,cs),
(495,63,o),
(438,75,o),
(323,75,cs),
(208,75,o),
(208,158,o),
(323,325,cs),
(438,492,o),
(495,588,o),
(495,613,cs)
);
}
);
width = 550;
}
);
unicode = 90;
},
{
color = 6;
glyphname = a;
layers = (
{
anchors = (
{
name = bottom;
pos = (275,0);
},
{
name = ogonek;
pos = (435,10);
},
{
name = top;
pos = (275,500);
}
);
layerId = "DA2C6654-D585-4A87-87E3-B198D23B8793";
shapes = (
{
closed = 1;
nodes = (
(420,500,o),
(407,476,o),
(407,427,cs),
(407,378,o),
(402,377,o),
(393,424,c),
(319,510,l),
(275,510,o),
(233,510,o),
(193,510,c),
(101,443,l),
(51,324,l),
(51,274,o),
(51,224,o),
(51,174,c),
(100,56,l),
(187,-10,l),
(224,-10,o),
(266,-10,o),
(311,-10,c),
(391,93,l),
(402,142,o),
(407,155,o),
(407,133,cs),
(407,111,o),
(407,93,o),
(407,79,c),
(413,11,l),
(414,4,o),
(426,0,o),
(451,0,cs),
(475,0,o),
(487,83,o),
(487,250,cs),
(487,417,o),
(474,500,o),
(447,500,cs)
);
},
{
closed = 1;
nodes = (
(286,67,o),
(242,67,o),
(200,67,c),
(131,167,l),
(131,222,o),
(131,277,o),
(131,334,c),
(195,432,l),
(240,432,o),
(286,432,o),
(332,432,c),
(407,333,l),
(407,277,o),
(407,223,o),
(407,170,c),
(332,67,l)
);
}
);
width = 550;
}
);
unicode = 97;
},
{
color = 6;
glyphname = aogonek;
kernLeft = o;
kernRight = a;
layers = (
{
anchors = (
{
name = bottom;
pos = (275,0);
},
{
name = ogonek;
pos = (435,10);
},
{
name = top;
pos = (275,500);
}
);
layerId = "DA2C6654-D585-4A87-87E3-B198D23B8793";
shapes = (
{
closed = 1;
nodes = (
(514,-123,o),
(504,-128,o),
(504,-138,c),
(480,-165,l),
(464,-165,o),
(440,-165,o),
(407,-165,c),
(407,-78,l),
(434,-44,ls),
(465,-5,o),
(476,25,o),
(474,41,c),
(483,81,o),
(487,150,o),
(487,250,cs),
(487,417,o),
(474,500,o),
(447,500,cs),
(420,500,o),
(407,476,o),
(407,427,cs),
(407,378,o),
(402,377,o),
(393,424,c),
(319,510,l),
(193,510,l),
(101,443,l),
(51,324,l),
(51,174,l),
(100,56,l),
(187,-10,l),
(311,-10,l),
(391,93,l),
(402,142,o),
(407,155,o),
(407,133,cs),
(407,79,l),
(412,22,l),
(401,11,o),
(389,-3,o),
(377,-21,cs),
(339,-76,l),
(339,-171,l),
(400,-230,l),
(504,-230,l),
(571,-168,l),
(568,-138,o),
(556,-123,o),
(535,-123,cs)
);
},
{
closed = 1;
nodes = (
(200,67,l),
(131,167,l),
(131,334,l),
(195,432,l),
(332,432,l),
(407,333,l),
(407,170,l),
(332,67,l)
);
}
);
width = 550;
}
);
metricLeft = a;
unicode = 261;
},
{
color = 6;
glyphname = ae;
layers = (
{
anchors = (
{
name = bottom;
pos = (275,0);
},
{
name = top;
pos = (275,500);
}
);
layerId = "DA2C6654-D585-4A87-87E3-B198D23B8793";
shapes = (
{
closed = 1;
nodes = (
(419,510,o),
(373,510,o),
(328,510,c),
(303,468,o),
(285,457,o),
(274,477,c),
(217,510,l),
(190,510,o),
(152,510,o),
(104,510,c),
(23,423,l),
(22,374,o),
(33,349,o),
(56,349,cs),
(79,349,o),
(93,363,o),
(98,391,c),
(146,431,l),
(168,431,o),
(203,431,o),
(250,431,c),
(250,369,o),
(250,324,o),
(250,297,cs),
(250,269,o),
(241,274,o),
(223,313,c),
(178,313,o),
(135,313,o),
(93,313,c),
(21,223,l),
(21,175,o),
(21,127,o),
(21,79,c),
(94,-10,l),
(138,-10,o),
(174,-10,o),
(203,-10,c),
(268,36,l),
(276,63,o),
(293,48,o),
(318,-10,c),
(373,-10,o),
(421,-10,o),
(460,-10,c),
(519,82,l),
(522,135,o),
(512,161,o),
(487,161,cs),
(462,161,o),
(448,145,o),
(446,114,c),
(423,67,l),
(402,67,o),
(379,67,o),
(352,67,c),
(310,150,l),
(310,203,o),
(346,229,o),
(419,229,cs),
(563,229,o),
(528,237,o),
(528,393,c),
(466,510,l)
);
},
{
closed = 1;
nodes = (
(338,299,o),
(315,319,o),
(315,358,c),
(354,433,l),
(376,433,o),
(399,433,o),
(422,433,c),
(450,364,l),
(450,321,o),
(428,299,o),
(383,299,cs)
);
},
{
closed = 1;
nodes = (
(185,66,o),
(160,66,o),
(137,66,c),
(99,113,l),
(99,138,o),
(99,164,o),
(99,190,c),
(135,236,l),
(159,236,o),
(185,236,o),
(213,236,c),
(255,191,l),
(255,164,o),
(255,139,o),
(255,114,c),
(212,66,l)
);
}
);
width = 550;
}
);
unicode = 230;
},
{
color = 6;
glyphname = b;
layers = (
{
anchors = (
{
name = bottom;
pos = (275,0);
},
{
name = center;
pos = (275,250);
},
{
name = top;
pos = (275,800);
},
{
name = topleft;
pos = (20,500);
}
);
layerId = "DA2C6654-D585-4A87-87E3-B198D23B8793";
shapes = (
{
closed = 1;
nodes = (
(76,700,o),
(63,583,o),
(63,350,cs),
(63,117,o),
(75,0,o),
(99,0,cs),
(124,0,o),
(136,4,o),
(137,11,c),
(143,79,l),
(143,93,o),
(143,110,o),
(143,131,cs),
(143,152,o),
(148,138,o),
(159,90,c),
(239,-10,l),
(284,-10,o),
(326,-10,o),
(363,-10,c),
(450,56,l),
(499,174,l),
(499,224,o),
(499,274,o),
(499,324,c),
(449,443,l),
(357,510,l),
(317,510,o),
(256,510,o),
(174,510,c),
(153,409,o),
(143,416,o),
(143,530,cs),
(143,643,o),
(130,700,o),
(103,700,cs)
);
},
{
closed = 1;
nodes = (
(143,170,l),
(143,223,o),
(143,277,o),
(143,333,c),
(218,432,l),
(264,432,o),
(310,432,o),
(355,432,c),
(419,334,l),
(419,277,o),
(419,222,o),
(419,167,c),
(350,67,l),
(308,67,o),
(264,67,o),
(218,67,c)
);
}
);
width = 550;
}
);
unicode = 98;
},
{
color = 6;
glyphname = c;
layers = (
{
anchors = (
{
name = bottom;
pos = (275,0);
},
{
name = top;
pos = (275,500);
}
);
layerId = "DA2C6654-D585-4A87-87E3-B198D23B8793";
shapes = (
{
closed = 1;
nodes = (
(495,157,o),
(487,188,o),
(463,188,cs),
(439,188,o),
(421,168,o),
(409,128,c),
(340,67,l),
(303,67,o),
(270,67,o),
(242,67,c),
(172,110,l),
(131,192,l),
(131,230,o),
(131,268,o),
(131,306,c),
(172,389,l),
(242,433,l),
(270,433,o),
(302,433,o),
(339,433,c),
(408,372,l),
(420,333,o),
(438,313,o),
(463,313,cs),
(487,313,o),
(495,343,o),
(487,404,c),
(370,510,l),
(313,510,o),
(262,510,o),
(219,510,c),
(113,446,l),
(51,327,l),
(51,275,o),
(51,223,o),
(51,171,c),
(113,53,l),
(219,-10,l),
(262,-10,o),
(313,-10,o),
(371,-10,c),
(488,96,l)
);
}
);
width = 550;
}
);
unicode = 99;
},
{
color = 6;
glyphname = ccedilla;
kernLeft = o;
layers = (
{
anchors = (
{
name = bottom;
pos = (377,-240);
},
{
name = top;
pos = (275,500);
}
);
layerId = "DA2C6654-D585-4A87-87E3-B198D23B8793";
shapes = (
{
closed = 1;
nodes = (
(439,188,o),
(421,168,o),
(409,128,c),
(340,67,l),
(242,67,l),
(172,110,l),
(131,192,l),
(131,306,l),
(172,389,l),
(242,433,l),
(339,433,l),
(408,372,l),
(420,333,o),
(438,313,o),
(463,313,cs),
(487,313,o),
(495,343,o),
(487,404,c),
(370,510,l),
(219,510,l),
(113,446,l),
(51,327,l),
(51,171,l),
(113,53,l),
(219,-10,l),
(244,-10,l),
(246,-22,o),
(254,-37,o),
(267,-54,cs),
(294,-88,l),
(294,-111,o),
(294,-140,o),
(294,-175,c),
(221,-175,l),
(197,-148,l),
(197,-138,o),
(187,-133,o),
(166,-133,cs),
(145,-133,o),
(133,-148,o),
(130,-178,c),
(197,-240,l),
(301,-240,l),
(362,-181,l),
(362,-86,l),
(324,-31,ls),
(318,-23,o),
(313,-16,o),
(307,-10,c),
(371,-10,l),
(488,96,l),
(495,157,o),
(487,188,o),
(463,188,cs)
);
}
);
width = 550;
}
);
metricLeft = c;
metricRight = c;
unicode = 231;
},
{
color = 6;
glyphname = d;
layers = (
{
anchors = (
{
name = bottom;
pos = (275,0);
},
{
name = center;
pos = (422,583);
},
{
name = top;
pos = (275,800);
},
{
name = topright;
pos = (530,700);
}
);
layerId = "DA2C6654-D585-4A87-87E3-B198D23B8793";
shapes = (
{
closed = 1;
nodes = (
(420,700,o),
(407,643,o),
(407,530,cs),
(407,416,o),
(397,409,o),
(376,510,c),
(294,510,o),
(233,510,o),
(193,510,c),
(101,443,l),
(51,324,l),
(51,274,o),
(51,224,o),
(51,174,c),
(100,56,l),
(187,-10,l),
(224,-10,o),
(266,-10,o),
(311,-10,c),
(391,90,l),
(402,138,o),
(407,152,o),
(407,131,cs),
(407,110,o),
(407,93,o),
(407,79,c),
(413,11,l),
(414,4,o),
(426,0,o),
(451,0,cs),
(475,0,o),
(487,117,o),
(487,350,cs),
(487,583,o),
(474,700,o),
(447,700,cs)
);
},
{
closed = 1;
nodes = (
(286,67,o),
(242,67,o),
(200,67,c),
(131,167,l),
(131,222,o),
(131,277,o),
(131,334,c),
(195,432,l),
(240,432,o),
(286,432,o),
(332,432,c),
(407,333,l),
(407,277,o),
(407,223,o),
(407,170,c),
(332,67,l)
);
}
);
width = 550;
}
);
unicode = 100;
},
{
color = 6;
glyphname = eth;
layers = (
{
layerId = "DA2C6654-D585-4A87-87E3-B198D23B8793";
shapes = (
{
closed = 1;
nodes = (
(394,562,o),
(348,615,o),
(368,634,cs),
(408,671,o),
(366,721,o),
(319,677,cs),
(296,655,o),
(263,657,o),
(221,684,c),
(172,701,o),
(143,699,o),
(134,676,c),
(124,653,o),
(186,618,o),
(320,569,c),
(365,488,o),
(373,468,o),
(343,510,c),
(284,510,o),
(234,510,o),
(193,510,c),
(101,443,l),
(51,324,l),
(51,274,o),
(51,210,o),
(51,133,c),
(169,-10,l),
(240,-10,o),
(300,-10,o),
(349,-10,c),
(453,67,l),
(505,188,l),
(505,231,o),
(505,327,o),
(505,474,c)
);
},
{
closed = 1;
nodes = (
(299,67,o),
(252,67,o),
(206,67,c),
(131,167,l),
(131,222,o),
(131,277,o),
(131,333,c),
(203,433,l),
(251,433,o),
(299,433,o),
(348,433,c),
(425,334,l),
(425,277,o),
(425,223,o),
(425,170,c),
(348,67,l)
);
}
);
width = 550;
}
);
unicode = 240;
},
{
color = 6;
glyphname = e;
layers = (
{
anchors = (
{
name = bottom;
pos = (275,0);
},
{
name = ogonek;
pos = (495,10);
},
{
name = top;
pos = (275,500);
}
);
layerId = "DA2C6654-D585-4A87-87E3-B198D23B8793";
shapes = (
{
closed = 1;
nodes = (
(433,161,o),
(410,130,o),
(391,67,c),
(325,67,o),
(269,67,o),
(224,67,c),
(138,156,l),
(133,205,o),
(192,229,o),
(315,229,cs),
(437,229,o),
(500,274,o),
(504,365,c),
(395,510,l),
(323,510,o),
(264,510,o),
(217,510,c),
(110,443,l),
(51,324,l),
(51,274,o),
(51,224,o),
(51,174,c),
(112,56,l),
(221,-10,l),
(268,-10,o),
(321,-10,o),
(378,-10,c),
(483,85,l),
(492,136,o),
(483,161,o),
(458,161,cs)
);
},
{
closed = 1;
nodes = (
(263,433,o),
(302,433,o),
(343,433,c),
(412,365,l),
(415,322,o),
(369,301,o),
(276,301,cs),
(183,301,o),
(141,322,o),
(151,363,c),
(224,433,l)
);
}
);
width = 550;
}
);
unicode = 101;
},
{
color = 6;
glyphname = eogonek;
kernLeft = o;
kernRight = o;
layers = (
{
anchors = (
{
name = _ogonek;
pos = (852,0);
},
{
name = bottom;
pos = (275,0);
},
{
name = ogonek;
pos = (495,10);
},
{
name = top;
pos = (497,500);
}
);
layerId = "DA2C6654-D585-4A87-87E3-B198D23B8793";
shapes = (
{
closed = 1;
nodes = (
(454,-123,o),
(444,-128,o),
(444,-138,c),
(420,-165,l),
(404,-165,o),
(380,-165,o),
(347,-165,c),
(347,-78,l),
(374,-44,ls),
(394,-18,o),
(406,4,o),
(411,20,c),
(483,85,l),
(492,136,o),
(483,161,o),
(458,161,cs),
(433,161,o),
(410,130,o),
(391,67,c),
(224,67,l),
(138,156,l),
(133,205,o),
(192,229,o),
(315,229,cs),
(437,229,o),
(500,274,o),
(504,365,c),
(395,510,l),
(217,510,l),
(110,443,l),
(51,324,l),
(51,174,l),
(112,56,l),
(221,-10,l),
(253,-10,o),
(288,-10,o),
(325,-10,c),
(317,-21,l),
(279,-76,l),
(279,-171,l),
(340,-230,l),
(444,-230,l),
(511,-168,l),
(508,-138,o),
(496,-123,o),
(475,-123,cs)
);
},
{
closed = 1;
nodes = (
(343,433,l),
(412,365,l),
(415,322,o),
(369,301,o),
(276,301,cs),
(183,301,o),
(141,322,o),
(151,363,c),
(224,433,l)
);
}
);
width = 550;
}
);
metricLeft = e;
unicode = 281;
},
{
color = 6;
glyphname = f;
layers = (
{
anchors = (
{
name = bottom;
pos = (275,0);
},
{
name = top;
pos = (275,800);
}
);
layerId = "DA2C6654-D585-4A87-87E3-B198D23B8793";
shapes = (
{
closed = 1;
nodes = (
(327,621,o),
(380,620,o),
(425,620,cs),
(470,620,o),
(493,633,o),
(493,660,cs),
(493,687,o),
(470,700,o),
(425,700,cs),
(380,700,o),
(331,700,o),
(278,700,c),
(187,616,l),
(187,559,o),
(187,525,o),
(187,515,cs),
(187,505,o),
(167,500,o),
(128,500,cs),
(88,500,o),
(68,488,o),
(68,463,cs),
(68,438,o),
(88,425,o),
(128,425,cs),
(167,425,o),
(187,354,o),
(187,213,cs),
(187,71,o),
(200,0,o),
(227,0,cs),
(254,0,o),
(267,71,o),
(267,213,cs),
(267,354,o),
(303,425,o),
(375,425,cs),
(446,425,o),
(482,438,o),
(482,463,cs),
(482,488,o),
(446,500,o),
(375,500,cs),
(303,500,o),
(267,505,o),
(267,515,cs),
(267,525,o),
(267,561,o),
(267,622,c)
);
}
);
width = 550;
}
);
unicode = 102;
},
{
color = 6;
glyphname = g;
layers = (
{
anchors = (
{
name = bottom;
pos = (275,-200);
},
{
name = top;
pos = (266,500);
}
);
layerId = "DA2C6654-D585-4A87-87E3-B198D23B8793";
shapes = (
{
closed = 1;
nodes = (
(533,487,o),
(499,501,o),
(412,501,cs),
(345,500,o),
(301,503,o),
(282,510,c),
(259,510,o),
(230,510,o),
(193,510,c),
(98,456,l),
(41,357,l),
(41,314,o),
(41,268,o),
(41,219,c),
(114,115,l),
(153,100,o),
(157,93,o),
(124,94,c),
(55,54,l),
(55,23,o),
(55,-20,o),
(55,-77,c),
(142,-77,o),
(202,-77,o),
(235,-77,cs),
(268,-77,o),
(303,-77,o),
(340,-77,c),
(395,-126,l),
(395,-161,o),
(395,-182,o),
(395,-189,cs),
(395,-196,o),
(408,-200,o),
(435,-200,cs),
(462,-200,o),
(475,-193,o),
(475,-179,cs),
(475,-165,o),
(475,-130,o),
(475,-74,c),
(371,0,l),
(314,0,o),
(268,0,o),
(233,0,cs),
(198,0,o),
(173,0,o),
(158,0,c),
(135,18,l),
(135,29,o),
(135,42,o),
(135,58,c),
(188,76,l),
(228,78,o),
(267,79,o),
(304,79,c),
(398,131,l),
(454,228,l),
(454,271,o),
(454,327,o),
(454,386,c),
(400,434,o),
(398,440,o),
(469,414,c),
(512,414,o),
(533,429,o),
(533,458,cs)
);
},
{
closed = 1;
nodes = (
(265,154,o),
(231,154,o),
(196,154,c),
(121,229,l),
(121,272,o),
(121,314,o),
(121,357,c),
(196,432,l),
(231,432,o),
(265,432,o),
(300,432,c),
(374,356,l),
(374,314,o),
(374,272,o),
(374,229,c),
(300,154,l)
);
}
);
width = 550;
}
);
unicode = 103;
},
{
color = 6;
glyphname = h;
layers = (
{
anchors = (
{
name = bottom;
pos = (275,0);
},
{
name = center;
pos = (120,576);
},
{
name = top;
pos = (275,800);
}
);
layerId = "DA2C6654-D585-4A87-87E3-B198D23B8793";
shapes = (
{
closed = 1;
nodes = (
(336,510,o),
(299,510,o),
(251,510,c),
(161,409,l),
(149,370,o),
(143,409,o),
(143,526,cs),
(143,642,o),
(130,700,o),
(103,700,cs),
(76,700,o),
(63,583,o),
(63,350,cs),
(63,117,o),
(76,0,o),
(103,0,cs),
(130,0,o),
(143,49,o),
(143,147,cs),
(143,244,o),
(147,310,o),
(156,345,c),
(228,430,l),
(274,430,o),
(334,430,o),
(407,430,c),
(407,351,o),
(407,260,o),
(407,156,cs),
(407,52,o),
(420,0,o),
(447,0,cs),
(474,0,o),
(487,55,o),
(487,166,cs),
(487,277,o),
(487,354,o),
(487,397,c),
(436,477,l),
(362,510,l)
);
}
);
width = 550;
}
);
unicode = 104;
},
{
color = 6;
glyphname = hbar;
layers = (
{
anchors = (
{
name = bottom;
pos = (275,0);
},
{
name = center;
pos = (120,576);
},
{
name = top;
pos = (275,800);
}
);
layerId = "DA2C6654-D585-4A87-87E3-B198D23B8793";
shapes = (
{
closed = 1;
nodes = (
(251,510,l),
(161,409,l),
(149,370,o),
(143,409,o),
(143,526,cs),
(143,546,l),
(228,548,o),
(270,558,o),
(270,576,cs),
(270,595,o),
(227,605,o),
(140,606,c),
(135,669,o),
(123,700,o),
(103,700,cs),
(89,700,o),
(79,668,o),
(72,605,c),
(4,602,o),
(-30,592,o),
(-30,576,cs),
(-30,560,o),
(3,550,o),
(68,547,c),
(64,495,o),
(63,429,o),
(63,350,cs),
(63,117,o),
(76,0,o),
(103,0,cs),
(130,0,o),
(143,49,o),
(143,147,cs),
(143,244,o),
(147,310,o),
(156,345,c),
(228,430,l),
(274,430,o),
(334,430,o),
(407,430,c),
(407,156,ls),
(407,52,o),
(420,0,o),
(447,0,cs),
(474,0,o),
(487,55,o),
(487,166,cs),
(487,397,l),
(436,477,l),
(362,510,l)
);
}
);
width = 550;
}
);
unicode = 295;
},
{
color = 6;
glyphname = i;
layers = (
{
anchors = (
{
name = bottom;
pos = (275,0);
},
{
name = ogonek;
pos = (415,10);
}
);
layerId = "DA2C6654-D585-4A87-87E3-B198D23B8793";
shapes = (
{
closed = 1;
nodes = (
(337,684,o),
(320,700,o),
(285,700,cs),
(250,700,o),
(233,684,o),
(233,652,cs),
(233,619,o),
(250,603,o),
(285,603,cs),
(320,603,o),
(337,619,o),
(337,652,cs)
);
},
{
closed = 1;
nodes = (
(348,75,o),
(325,146,o),
(325,288,cs),
(325,429,o),
(285,500,o),
(205,500,cs),
(125,500,o),
(85,488,o),
(85,463,cs),
(85,438,o),
(112,425,o),
(165,425,cs),
(218,425,o),
(245,367,o),
(245,250,cs),
(245,133,o),
(218,75,o),
(165,75,cs),
(112,75,o),
(85,63,o),
(85,38,cs),
(85,13,o),
(148,0,o),
(275,0,cs),
(402,0,o),
(465,13,o),
(465,38,cs),
(465,63,o),
(442,75,o),
(395,75,cs)
);
}
);
width = 550;
}
);
unicode = 105;
},
{
color = 6;
glyphname = idotless;
layers = (
{
anchors = (
{
name = bottom;
pos = (275,0);
},
{
name = ogonek;
pos = (495,10);
},
{
name = top;
pos = (275,500);
}
);
layerId = "DA2C6654-D585-4A87-87E3-B198D23B8793";
shapes = (
{
closed = 1;
nodes = (
(348,75,o),
(325,146,o),
(325,288,cs),
(325,429,o),
(285,500,o),
(205,500,cs),
(125,500,o),
(85,488,o),
(85,463,cs),
(85,438,o),
(112,425,o),
(165,425,cs),
(218,425,o),
(245,367,o),
(245,250,cs),
(245,133,o),
(218,75,o),
(165,75,cs),
(112,75,o),
(85,63,o),
(85,38,cs),
(85,13,o),
(148,0,o),
(275,0,cs),
(402,0,o),
(465,13,o),
(465,38,cs),
(465,63,o),
(442,75,o),
(395,75,cs)
);
}
);
width = 550;
}
);
unicode = 305;
},
{
color = 10;
glyphname = ij;
layers = (
{
layerId = "DA2C6654-D585-4A87-87E3-B198D23B8793";
shapes = (
{
closed = 1;
nodes = (
(247,684,o),
(230,700,o),
(195,700,cs),
(160,700,o),
(143,684,o),
(143,652,cs),
(143,619,o),
(160,603,o),
(195,603,cs),
(230,603,o),
(247,619,o),
(247,652,cs)
);
},
{
closed = 1;
nodes = (
(258,75,o),
(235,146,o),
(235,288,cs),
(235,429,o),
(195,500,o),
(115,500,cs),
(65,500,o),
(25,488,o),
(25,463,cs),
(25,438,o),
(52,425,o),
(75,425,cs),
(128,425,o),
(155,367,o),
(155,250,cs),
(155,133,o),
(128,75,o),
(75,75,cs),
(52,75,o),
(25,63,o),
(25,38,cs),
(25,13,o),
(78,0,o),
(185,0,cs),
(299,0,o),
(355,13,o),
(355,38,cs),
(355,63,o),
(339,75,o),
(305,75,cs)
);
},
{
closed = 1;
nodes = (
(506,684,o),
(489,700,o),
(454,700,cs),
(419,700,o),
(402,684,o),
(402,652,cs),
(402,619,o),
(419,603,o),
(454,603,cs),
(489,603,o),
(506,619,o),
(506,652,cs)
);
},
{
closed = 1;
nodes = (
(506,412,o),
(470,500,o),
(398,500,cs),
(320,500,o),
(280,488,o),
(280,463,cs),
(280,438,o),
(306,425,o),
(358,425,cs),
(404,425,o),
(426,349,o),
(426,198,cs),
(426,46,o),
(426,-48,o),
(426,-83,c),
(378,-126,l),
(350,-125,o),
(312,-125,o),
(263,-125,cs),
(214,-125,o),
(190,-137,o),
(190,-162,cs),
(190,-187,o),
(214,-200,o),
(263,-200,cs),
(312,-200,o),
(362,-200,o),
(415,-200,c),
(506,-116,l),
(506,-59,o),
(506,58,o),
(506,235,cs)
);
}
);
width = 550;
}
);
unicode = 307;
},
{
color = 6;
glyphname = iogonek;
layers = (
{
anchors = (
{
name = bottom;
pos = (275,0);
},
{
name = ogonek;
pos = (415,10);
}
);
layerId = "DA2C6654-D585-4A87-87E3-B198D23B8793";
shapes = (
{
closed = 1;
nodes = (
(320,603,o),
(337,619,o),
(337,652,cs),
(337,684,o),
(320,700,o),
(285,700,cs),
(250,700,o),
(233,684,o),
(233,652,cs),
(233,619,o),
(250,603,o),
(285,603,cs)
);
},
{
closed = 1;
nodes = (
(494,-123,o),
(484,-128,o),
(484,-138,c),
(460,-165,l),
(444,-165,o),
(420,-165,o),
(387,-165,c),
(387,-78,l),
(414,-44,ls),
(435,-18,o),
(446,4,o),
(452,21,c),
(461,26,o),
(465,31,o),
(465,38,cs),
(465,63,o),
(442,75,o),
(395,75,cs),
(348,75,o),
(325,146,o),
(325,288,cs),
(325,429,o),
(285,500,o),
(205,500,cs),
(125,500,o),
(85,488,o),
(85,463,cs),
(85,438,o),
(112,425,o),
(165,425,cs),
(218,425,o),
(245,367,o),
(245,250,cs),
(245,133,o),
(218,75,o),
(165,75,cs),
(112,75,o),
(85,63,o),
(85,38,cs),
(85,13,o),
(148,0,o),
(275,0,cs),
(315,0,o),
(348,1,o),
(376,4,c),
(370,-4,o),
(363,-12,o),
(357,-21,cs),
(319,-76,l),
(319,-171,l),
(380,-230,l),
(484,-230,l),
(551,-168,l),
(548,-138,o),
(536,-123,o),
(515,-123,cs)
);
}
);
width = 550;
}
);
unicode = 303;
},
{
color = 6;
glyphname = j;
layers = (
{
layerId = "DA2C6654-D585-4A87-87E3-B198D23B8793";
shapes = (
{
closed = 1;
nodes = (
(415,684,o),
(398,700,o),
(363,700,cs),
(328,700,o),
(311,684,o),
(311,652,cs),
(311,619,o),
(328,603,o),
(363,603,cs),
(398,603,o),
(415,619,o),
(415,652,cs)
);
},
{
closed = 1;
nodes = (
(415,412,o),
(362,500,o),
(257,500,cs),
(152,500,o),
(99,488,o),
(99,463,cs),
(99,438,o),
(138,425,o),
(217,425,cs),
(296,425,o),
(335,349,o),
(335,198,cs),
(335,46,o),
(335,-48,o),
(335,-83,c),
(287,-126,l),
(259,-125,o),
(221,-125,o),
(172,-125,cs),
(123,-125,o),
(99,-137,o),
(99,-162,cs),
(99,-187,o),
(123,-200,o),
(172,-200,cs),
(221,-200,o),
(271,-200,o),
(324,-200,c),
(415,-116,l),
(415,-59,o),
(415,58,o),
(415,235,cs)
);
}
);
width = 550;
}
);
unicode = 106;
},
{
color = 6;
glyphname = k;
layers = (
{
anchors = (
{
name = bottom;
pos = (245,0);
},
{
name = top;
pos = (275,800);
}
);
layerId = "DA2C6654-D585-4A87-87E3-B198D23B8793";
shapes = (
{
closed = 1;
nodes = (
(63,117,o),
(76,0,o),
(103,0,cs),
(130,0,o),
(143,117,o),
(143,350,cs),
(143,583,o),
(130,700,o),
(103,700,cs),
(76,700,o),
(63,583,o),
(63,350,cs)
);
},
{
closed = 1;
nodes = (
(306,232,o),
(303,315,o),
(381,389,cs),
(458,463,o),
(478,500,o),
(440,500,cs),
(402,500,o),
(348,463,o),
(277,390,cs),
(135,242,o),
(395,0,o),
(463,0,cs),
(497,0,o),
(472,46,o),
(389,139,cs)
);
}
);
width = 550;
}
);
unicode = 107;
},
{
color = 6;
glyphname = l;
layers = (
{
anchors = (
{
name = bottom;
pos = (275,0);
},
{
name = center;
pos = (251,331);
},
{
name = top;
pos = (182,700);
},
{
name = topright;
pos = (368,701);
}
);
layerId = "DA2C6654-D585-4A87-87E3-B198D23B8793";
shapes = (
{
closed = 1;
nodes = (
(393,75,o),
(361,75,o),
(333,74,c),
(285,117,l),
(285,152,o),
(285,258,o),
(285,435,cs),
(285,612,o),
(272,700,o),
(245,700,cs),
(218,700,o),
(205,700,o),
(205,700,cs),
(205,700,o),
(182,700,o),
(135,700,cs),
(88,700,o),
(64,688,o),
(64,663,cs),
(64,638,o),
(88,625,o),
(135,625,cs),
(182,625,o),
(205,549,o),
(205,398,cs),
(205,246,o),
(205,141,o),
(205,84,c),
(296,0,l),
(349,0,o),
(393,0,o),
(429,0,cs),
(464,0,o),
(482,13,o),
(482,38,cs),
(482,63,o),
(464,75,o),
(429,75,cs)
);
}
);
width = 550;
}
);
unicode = 108;
},
{
color = 6;
glyphname = lslash;
layers = (
{
anchors = (
{
name = bottom;
pos = (275,0);
},
{
name = center;
pos = (251,331);
},
{
name = top;
pos = (182,700);
},
{
name = topright;
pos = (368,701);
}
);
layerId = "DA2C6654-D585-4A87-87E3-B198D23B8793";
shapes = (
{
closed = 1;
nodes = (
(393,75,o),
(361,75,o),
(333,74,c),
(285,117,l),
(285,316,l),
(353,368,o),
(412,424,o),
(401,441,cs),
(391,454,o),
(341,430,o),
(285,393,c),
(285,435,ls),
(285,612,o),
(272,700,o),
(245,700,cs),
(218,700,o),
(205,700,o),
(205,700,c),
(135,700,ls),
(88,700,o),
(64,688,o),
(64,663,cs),
(64,638,o),
(88,625,o),
(135,625,cs),
(182,625,o),
(205,549,o),
(205,398,cs),
(205,336,l),
(142,287,o),
(92,236,o),
(102,221,cs),
(110,208,o),
(154,228,o),
(205,260,c),
(205,84,l),
(296,0,l),
(429,0,ls),
(464,0,o),
(482,13,o),
(482,38,cs),
(482,63,o),
(464,75,o),
(429,75,cs)
);
}
);
width = 550;
}
);
unicode = 322;
},
{
color = 6;
glyphname = m;
layers = (
{
anchors = (
{
name = bottom;
pos = (275,0);
},
{
name = top;
pos = (275,500);
}
);
layerId = "DA2C6654-D585-4A87-87E3-B198D23B8793";
shapes = (
{
closed = 1;
nodes = (
(451,510,o),
(406,510,o),
(381,510,c),
(329,433,l),
(319,398,o),
(310,423,o),
(282,510,c),
(247,510,o),
(206,510,o),
(180,510,c),
(126,416,l),
(117,377,o),
(113,382,o),
(113,429,cs),
(113,476,o),
(100,500,o),
(73,500,cs),
(46,500,o),
(33,417,o),
(33,250,cs),
(33,83,o),
(46,0,o),
(73,0,cs),
(100,0,o),
(113,50,o),
(113,149,cs),
(113,248,o),
(116,314,o),
(123,348,c),
(163,430,l),
(186,430,o),
(205,430,o),
(222,430,c),
(240,389,l),
(240,358,o),
(240,285,o),
(240,171,cs),
(240,57,o),
(253,0,o),
(278,0,cs),
(303,0,o),
(316,55,o),
(316,166,cs),
(316,276,o),
(325,364,o),
(344,430,c),
(376,430,o),
(400,430,o),
(416,430,c),
(437,388,l),
(437,357,o),
(437,285,o),
(437,171,cs),
(437,57,o),
(450,0,o),
(477,0,cs),
(504,0,o),
(517,55,o),
(517,166,cs),
(517,277,o),
(517,391,o),
(517,510,c)
);
}
);
width = 550;
}
);
unicode = 109;
},
{
color = 6;
glyphname = n;
layers = (
{
anchors = (
{
name = bottom;
pos = (275,0);
},
{
name = top;
pos = (295,500);
}
);
layerId = "DA2C6654-D585-4A87-87E3-B198D23B8793";
shapes = (
{
closed = 1;
nodes = (
(336,510,o),
(299,510,o),
(251,510,c),
(161,409,l),
(149,370,o),
(143,376,o),
(143,426,cs),
(143,475,o),
(130,500,o),
(103,500,cs),
(76,500,o),
(63,417,o),
(63,250,cs),
(63,83,o),
(76,0,o),
(103,0,cs),
(130,0,o),
(143,49,o),
(143,146,cs),
(143,243,o),
(148,309,o),
(157,344,c),
(228,430,l),
(274,430,o),
(334,430,o),
(407,430,c),
(407,351,o),
(407,260,o),
(407,156,cs),
(407,52,o),
(420,0,o),
(447,0,cs),
(474,0,o),
(487,55,o),
(487,166,cs),
(487,277,o),
(487,354,o),
(487,397,c),
(436,477,l),
(362,510,l)
);
}
);
width = 550;
}
);
unicode = 110;
},
{
color = 6;
glyphname = eng;
layers = (
{
layerId = "DA2C6654-D585-4A87-87E3-B198D23B8793";
shapes = (
{
closed = 1;
nodes = (
(336,510,o),
(299,510,o),
(251,510,c),
(161,409,l),
(149,370,o),
(143,376,o),
(143,426,cs),
(143,475,o),
(130,500,o),
(103,500,cs),
(76,500,o),
(63,417,o),
(63,250,cs),
(63,83,o),
(76,0,o),
(103,0,cs),
(130,0,o),
(143,49,o),
(143,146,cs),
(143,243,o),
(148,309,o),
(157,344,c),
(228,430,l),
(274,430,o),
(334,430,o),
(407,430,c),
(407,351,o),
(407,260,o),
(407,156,cs),
(407,52,o),
(407,-25,o),
(407,-75,c),
(341,-130,l),
(305,-130,o),
(287,-143,o),
(287,-170,cs),
(287,-197,o),
(304,-210,o),
(339,-210,c),
(431,-168,l),
(487,-82,l),
(487,-41,o),
(487,39,o),
(487,156,cs),
(487,273,o),
(487,354,o),
(487,397,c),
(436,477,l),
(362,510,l)
);
}
);
width = 550;
}
);
unicode = 331;
},
{
color = 6;
glyphname = o;
layers = (
{
anchors = (
{
name = bottom;
pos = (275,0);
},
{
name = center;
pos = (275,250);
},
{
name = ogonek;
pos = (495,10);
},
{
name = top;
pos = (275,500);
},
{
name = topright;
pos = (530,500);
}
);
layerId = "DA2C6654-D585-4A87-87E3-B198D23B8793";
shapes = (
{
closed = 1;
nodes = (
(254,-10,o),
(298,-10,o),
(342,-10,c),
(443,53,l),
(499,170,l),
(499,223,o),
(499,275,o),
(499,328,c),
(442,446,l),
(341,510,l),
(298,510,o),
(254,510,o),
(210,510,c),
(108,446,l),
(51,328,l),
(51,275,o),
(51,223,o),
(51,170,c),
(108,53,l),
(210,-10,l)
);
},
{
closed = 1;
nodes = (
(298,67,o),
(254,67,o),
(210,67,c),
(131,163,l),
(131,220,o),
(131,278,o),
(131,335,c),
(211,433,l),
(254,433,o),
(298,433,o),
(341,433,c),
(419,335,l),
(419,278,o),
(419,220,o),
(419,163,c),
(341,67,l)
);
}
);
width = 550;
}
);
unicode = 111;
},
{
color = 6;
glyphname = oslash;
layers = (
{
anchors = (
{
name = top;
pos = (275,500);
}
);
layerId = "DA2C6654-D585-4A87-87E3-B198D23B8793";
shapes = (
{
closed = 1;
nodes = (
(442,434,o),
(436,453,o),
(446,470,cs),
(466,503,o),
(411,532,o),
(395,505,cs),
(387,491,o),
(367,493,o),
(336,510,c),
(296,510,o),
(254,510,o),
(210,510,c),
(108,446,l),
(51,328,l),
(51,275,o),
(51,227,o),
(51,184,c),
(90,82,l),
(113,59,o),
(121,41,o),
(113,28,cs),
(97,0,o),
(149,-31,o),
(164,-6,cs),
(171,6,o),
(191,5,o),
(222,-10,c),
(258,-10,o),
(298,-10,o),
(342,-10,c),
(443,53,l),
(499,170,l),
(499,223,o),
(499,270,o),
(499,311,c),
(464,411,l)
);
},
{
closed = 1;
nodes = (
(131,222,o),
(131,278,o),
(131,335,c),
(211,433,l),
(254,433,o),
(288,433,o),
(312,433,c),
(353,410,o),
(179,103,o),
(131,168,c)
);
},
{
closed = 1;
nodes = (
(298,67,o),
(264,67,o),
(241,67,c),
(206,84,o),
(378,388,o),
(419,324,c),
(419,274,o),
(419,220,o),
(419,163,c),
(341,67,l)
);
}
);
width = 550;
}
);
unicode = 248;
},
{
color = 6;
glyphname = oe;
layers = (
{
anchors = (
{
name = bottom;
pos = (275,0);
},
{
name = top;
pos = (275,500);
}
);
layerId = "DA2C6654-D585-4A87-87E3-B198D23B8793";
shapes = (
{
closed = 1;
nodes = (
(418,510,o),
(369,510,o),
(318,510,c),
(293,457,o),
(269,457,o),
(246,510,c),
(199,510,o),
(151,510,o),
(101,510,c),
(21,371,l),
(21,290,o),
(21,208,o),
(21,126,c),
(101,-10,l),
(151,-10,o),
(200,-10,o),
(249,-10,c),
(271,43,o),
(295,43,o),
(322,-10,c),
(374,-10,o),
(420,-10,o),
(459,-10,c),
(519,83,l),
(522,135,o),
(511,161,o),
(486,161,cs),
(461,161,o),
(447,145,o),
(445,114,c),
(422,67,l),
(401,67,o),
(378,67,o),
(351,67,c),
(309,150,l),
(309,203,o),
(345,229,o),
(418,229,cs),
(563,229,o),
(528,237,o),
(528,393,c),
(465,510,l)
);
},
{
closed = 1;
nodes = (
(188,67,o),
(162,67,o),
(135,67,c),
(101,157,l),
(101,218,o),
(101,279,o),
(101,340,c),
(136,433,l),
(163,433,o),
(188,433,o),
(212,433,c),
(249,337,l),
(249,278,o),
(249,219,o),
(249,160,c),
(212,67,l)
);
},
{
closed = 1;
nodes = (
(337,299,o),
(314,319,o),
(314,358,c),
(353,433,l),
(375,433,o),
(398,433,o),
(421,433,c),
(449,364,l),
(449,321,o),
(427,299,o),
(382,299,cs)
);
}
);
width = 550;
}
);
unicode = 339;
},
{
color = 6;
glyphname = p;
layers = (
{
anchors = (
{
name = bottom;
pos = (275,0);
},
{
name = top;
pos = (275,500);
}
);
layerId = "DA2C6654-D585-4A87-87E3-B198D23B8793";
shapes = (
{
closed = 1;
nodes = (
(326,510,o),
(284,510,o),
(239,510,c),
(159,410,l),
(148,362,o),
(143,348,o),
(143,369,cs),
(143,390,o),
(143,410,o),
(143,430,c),
(140,489,l),
(140,496,o),
(127,500,o),
(102,500,cs),
(76,500,o),
(63,383,o),
(63,150,cs),
(63,-83,o),
(76,-200,o),
(103,-200,cs),
(130,-200,o),
(143,-143,o),
(143,-29,cs),
(143,84,o),
(153,91,o),
(174,-10,c),
(256,-10,o),
(317,-10,o),
(357,-10,c),
(449,57,l),
(499,176,l),
(499,226,o),
(499,276,o),
(499,326,c),
(450,444,l),
(363,510,l)
);
},
{
closed = 1;
nodes = (
(310,68,o),
(264,68,o),
(218,68,c),
(143,167,l),
(143,223,o),
(143,277,o),
(143,330,c),
(218,433,l),
(264,433,o),
(308,433,o),
(350,433,c),
(419,333,l),
(419,278,o),
(419,223,o),
(419,166,c),
(355,68,l)
);
}
);
width = 550;
}
);
unicode = 112;
},
{
color = 6;
glyphname = thorn;
layers = (
{
anchors = (
{
name = bottom;
pos = (275,0);
},
{
name = top;
pos = (275,500);
}
);
layerId = "DA2C6654-D585-4A87-87E3-B198D23B8793";
shapes = (
{
closed = 1;
nodes = (
(326,510,o),
(284,510,o),
(239,510,c),
(159,410,l),
(148,362,o),
(143,348,o),
(143,369,cs),
(143,410,o),
(153,700,o),
(102,700,cs),
(76,700,o),
(63,550,o),
(63,250,cs),
(63,-50,o),
(76,-200,o),
(103,-200,cs),
(130,-200,o),
(143,-143,o),
(143,-29,cs),
(143,84,o),
(153,91,o),
(174,-10,c),
(256,-10,o),
(317,-10,o),
(357,-10,c),
(449,57,l),
(499,176,l),
(499,226,o),
(499,276,o),
(499,326,c),
(450,444,l),
(363,510,l)
);
},
{
closed = 1;
nodes = (
(310,68,o),
(264,68,o),
(218,68,c),
(143,167,l),
(143,223,o),
(143,277,o),
(143,330,c),
(218,433,l),
(264,433,o),
(308,433,o),
(350,433,c),
(419,333,l),
(419,278,o),
(419,223,o),
(419,166,c),
(355,68,l)
);
}
);
width = 550;
}
);
unicode = 254;
},
{
color = 6;
glyphname = q;
layers = (
{
anchors = (
{
name = bottom;
pos = (275,0);
},
{
name = top;
pos = (275,500);
}
);
layerId = "DA2C6654-D585-4A87-87E3-B198D23B8793";
shapes = (
{
closed = 1;
nodes = (
(420,500,o),
(407,478,o),
(407,434,cs),
(407,389,o),
(402,390,o),
(393,435,c),
(318,510,l),
(271,510,o),
(229,510,o),
(190,510,c),
(100,442,l),
(51,324,l),
(51,274,o),
(51,224,o),
(51,174,c),
(100,56,l),
(190,-10,l),
(229,-10,o),
(270,-10,o),
(314,-10,c),
(392,82,l),
(402,129,o),
(407,94,o),
(407,-23,cs),
(407,-141,o),
(420,-200,o),
(447,-200,cs),
(474,-200,o),
(487,-83,o),
(487,150,cs),
(487,383,o),
(474,500,o),
(447,500,cs)
);
},
{
closed = 1;
nodes = (
(290,67,o),
(246,67,o),
(202,67,c),
(131,166,l),
(131,221,o),
(131,278,o),
(131,335,c),
(197,433,l),
(244,433,o),
(290,433,o),
(334,433,c),
(407,333,l),
(407,277,o),
(407,223,o),
(407,170,c),
(334,67,l)
);
}
);
width = 550;
}
);
unicode = 113;
},
{
color = 6;
glyphname = r;
layers = (
{
anchors = (
{
name = bottom;
pos = (245,0);
},
{
name = top;
pos = (295,500);
}
);
layerId = "DA2C6654-D585-4A87-87E3-B198D23B8793";
shapes = (
{
closed = 1;
nodes = (
(429,428,o),
(464,442,o),
(464,469,cs),
(464,496,o),
(430,510,o),
(362,510,c),
(259,422,l),
(248,387,o),
(242,392,o),
(242,435,cs),
(242,478,o),
(229,500,o),
(202,500,cs),
(175,500,o),
(162,429,o),
(162,288,cs),
(162,146,o),
(146,75,o),
(113,75,cs),
(80,75,o),
(63,63,o),
(63,38,cs),
(63,13,o),
(122,0,o),
(239,0,cs),
(356,0,o),
(415,13,o),
(415,38,cs),
(415,63,o),
(386,75,o),
(329,75,cs),
(271,75,o),
(242,117,o),
(242,200,cs),
(242,283,o),
(247,337,o),
(257,363,c),
(358,428,l)
);
}
);
width = 550;
}
);
unicode = 114;
},
{
color = 6;
glyphname = s;
layers = (
{
anchors = (
{
name = bottom;
pos = (275,0);
},
{
name = top;
pos = (275,500);
}
);
layerId = "DA2C6654-D585-4A87-87E3-B198D23B8793";
shapes = (
{
closed = 1;
nodes = (
(79,161,o),
(66,152,o),
(64,135,c),
(107,54,l),
(217,-10,l),
(278,-10,o),
(336,-10,o),
(391,-10,c),
(484,66,l),
(484,109,o),
(484,154,o),
(484,202,c),
(398,269,l),
(335,280,o),
(280,291,o),
(232,300,c),
(176,335,l),
(176,357,o),
(176,378,o),
(176,397,c),
(228,431,l),
(261,431,o),
(295,431,o),
(371,431,c),
(380,376,o),
(397,349,o),
(420,349,cs),
(443,349,o),
(454,374,o),
(453,424,c),
(354,510,l),
(291,510,o),
(251,510,o),
(193,510,c),
(96,429,l),
(96,386,o),
(96,343,o),
(96,298,c),
(194,227,l),
(257,216,o),
(311,206,o),
(358,198,c),
(404,166,l),
(404,142,o),
(404,120,o),
(404,100,c),
(356,66,l),
(321,66,o),
(280,66,o),
(233,66,c),
(151,120,l),
(144,147,o),
(129,161,o),
(104,161,cs)
);
}
);
width = 550;
}
);
unicode = 115;
},
{
color = 6;
glyphname = scedilla;
layers = (
{
anchors = (
{
name = bottom;
pos = (377,-240);
},
{
name = top;
pos = (275,500);
}
);
layerId = "DA2C6654-D585-4A87-87E3-B198D23B8793";
shapes = (
{
closed = 1;
nodes = (
(335,280,o),
(280,291,o),
(232,300,c),
(176,335,l),
(176,397,l),
(228,431,l),
(371,431,l),
(380,376,o),
(397,349,o),
(420,349,cs),
(443,349,o),
(454,374,o),
(453,424,c),
(354,510,l),
(193,510,l),
(96,429,l),
(96,298,l),
(194,227,l),
(257,216,o),
(311,206,o),
(358,198,c),
(404,166,l),
(404,100,l),
(356,66,l),
(233,66,l),
(151,120,l),
(144,147,o),
(129,161,o),
(104,161,cs),
(79,161,o),
(66,152,o),
(64,135,c),
(107,54,l),
(217,-10,l),
(244,-10,l),
(246,-22,o),
(254,-37,o),
(267,-54,cs),
(294,-88,l),
(294,-111,o),
(294,-140,o),
(294,-175,c),
(221,-175,l),
(197,-148,l),
(197,-138,o),
(187,-133,o),
(166,-133,cs),
(145,-133,o),
(133,-148,o),
(130,-178,c),
(197,-240,l),
(301,-240,l),
(362,-181,l),
(362,-86,l),
(324,-31,ls),
(318,-23,o),
(313,-16,o),
(307,-10,c),
(391,-10,l),
(484,66,l),
(484,202,l),
(398,269,l)
);
}
);
width = 550;
}
);
metricLeft = s;
metricRight = s;
unicode = 351;
},
{
color = 6;
glyphname = germandbls;
layers = (
{
anchors = (
{
name = bottom;
pos = (275,0);
},
{
name = top;
pos = (275,500);
}
);
layerId = "DA2C6654-D585-4A87-87E3-B198D23B8793";
shapes = (
{
closed = 1;
nodes = (
(341,202,o),
(335,241,o),
(376,316,cs),
(417,390,o),
(437,439,o),
(437,464,cs),
(437,488,o),
(390,500,o),
(296,500,cs),
(202,500,o),
(155,505,o),
(155,515,cs),
(155,525,o),
(155,561,o),
(155,622,c),
(215,621,o),
(253,620,o),
(268,620,cs),
(283,620,o),
(291,633,o),
(291,660,cs),
(291,687,o),
(283,700,o),
(268,700,cs),
(253,700,o),
(219,700,o),
(166,700,c),
(75,616,l),
(75,559,o),
(75,442,o),
(75,265,cs),
(75,88,o),
(88,0,o),
(115,0,cs),
(142,0,o),
(155,71,o),
(155,213,cs),
(155,354,o),
(187,425,o),
(251,425,cs),
(315,425,o),
(329,392,o),
(292,325,cs),
(255,258,o),
(237,212,o),
(237,187,cs),
(237,162,o),
(243,150,o),
(256,150,cs),
(269,150,o),
(298,150,o),
(343,150,c),
(409,87,l),
(409,50,o),
(409,13,o),
(409,-25,c),
(338,-86,l),
(290,-86,o),
(266,-98,o),
(266,-123,cs),
(266,-148,o),
(289,-160,o),
(336,-160,c),
(437,-108,l),
(489,-21,l),
(489,14,o),
(489,59,o),
(489,114,c),
(394,199,l)
);
}
);
width = 550;
}
);
unicode = 223;
},
{
color = 6;
glyphname = t;
layers = (
{
anchors = (
{
name = bottom;
pos = (326,0);
},
{
name = center;
pos = (275,250);
},
{
name = top;
pos = (275,500);
},
{
name = topright;
pos = (337,750);
}
);
layerId = "DA2C6654-D585-4A87-87E3-B198D23B8793";
shapes = (
{
closed = 1;
nodes = (
(439,425,o),
(472,438,o),
(472,463,cs),
(472,488,o),
(439,500,o),
(374,500,cs),
(308,500,o),
(275,522,o),
(275,565,cs),
(275,608,o),
(262,630,o),
(235,630,cs),
(208,630,o),
(195,608,o),
(195,565,cs),
(195,522,o),
(174,500,o),
(132,500,cs),
(89,500,o),
(68,488,o),
(68,463,cs),
(68,438,o),
(89,425,o),
(132,425,cs),
(174,425,o),
(195,383,o),
(195,298,cs),
(195,213,o),
(195,141,o),
(195,84,c),
(286,0,l),
(339,0,o),
(383,0,o),
(419,0,cs),
(454,0,o),
(472,13,o),
(472,38,cs),
(472,63,o),
(454,75,o),
(419,75,cs),
(383,75,o),
(351,75,o),
(323,74,c),
(275,117,l),
(275,152,o),
(275,213,o),
(275,298,cs),
(275,383,o),
(308,425,o),
(374,425,cs)
);
}
);
width = 550;
}
);
unicode = 116;
},
{
color = 6;
glyphname = tbar;
layers = (
{
anchors = (
{
name = bottom;
pos = (326,0);
},
{
name = center;
pos = (275,250);
},
{
name = top;
pos = (275,500);
},
{
name = topright;
pos = (337,750);
}
);
layerId = "DA2C6654-D585-4A87-87E3-B198D23B8793";
shapes = (
{
closed = 1;
nodes = (
(383,75,o),
(351,75,o),
(323,74,c),
(275,117,l),
(275,233,l),
(352,236,o),
(390,248,o),
(390,270,cs),
(390,292,o),
(352,304,o),
(275,307,c),
(277,386,o),
(310,425,o),
(374,425,cs),
(439,425,o),
(472,438,o),
(472,463,cs),
(472,488,o),
(439,500,o),
(374,500,cs),
(308,500,o),
(275,522,o),
(275,565,cs),
(275,608,o),
(262,630,o),
(235,630,cs),
(208,630,o),
(195,608,o),
(195,565,cs),
(195,522,o),
(174,500,o),
(132,500,cs),
(89,500,o),
(68,488,o),
(68,463,cs),
(68,438,o),
(89,425,o),
(132,425,cs),
(173,425,o),
(194,386,o),
(195,306,c),
(131,302,o),
(100,290,o),
(100,270,cs),
(100,250,o),
(131,238,o),
(195,234,c),
(195,84,l),
(286,0,l),
(419,0,ls),
(454,0,o),
(472,13,o),
(472,38,cs),
(472,63,o),
(454,75,o),
(419,75,cs)
);
}
);
width = 550;
}
);
unicode = 359;
},
{
color = 6;
glyphname = tcedilla;
layers = (
{
anchors = (
{
name = bottom;
pos = (417,-240);
},
{
name = center;
pos = (275,250);
},
{
name = top;
pos = (275,500);
},
{
name = topright;
pos = (337,750);
}
);
layerId = "DA2C6654-D585-4A87-87E3-B198D23B8793";
shapes = (
{
closed = 1;
nodes = (
(383,75,o),
(351,75,o),
(323,74,c),
(275,117,l),
(275,298,ls),
(275,383,o),
(308,425,o),
(374,425,cs),
(439,425,o),
(472,438,o),
(472,463,cs),
(472,488,o),
(439,500,o),
(374,500,cs),
(308,500,o),
(275,522,o),
(275,565,cs),
(275,608,o),
(262,630,o),
(235,630,cs),
(208,630,o),
(195,608,o),
(195,565,cs),
(195,522,o),
(174,500,o),
(132,500,cs),
(89,500,o),
(68,488,o),
(68,463,cs),
(68,438,o),
(89,425,o),
(132,425,cs),
(174,425,o),
(195,383,o),
(195,298,cs),
(195,84,l),
(283,3,l),
(281,-10,o),
(288,-30,o),
(307,-54,cs),
(334,-88,l),
(334,-111,o),
(334,-140,o),
(334,-175,c),
(261,-175,l),
(237,-148,l),
(237,-138,o),
(227,-133,o),
(206,-133,cs),
(185,-133,o),
(173,-148,o),
(170,-178,c),
(237,-240,l),
(341,-240,l),
(402,-181,l),
(402,-86,l),
(364,-31,ls),
(355,-18,o),
(346,-8,o),
(337,0,c),
(419,0,ls),
(454,0,o),
(472,13,o),
(472,38,cs),
(472,63,o),
(454,75,o),
(419,75,cs)
);
}
);
width = 550;
}
);
unicode = 355;
},
{
color = 6;
glyphname = u;
layers = (
{
anchors = (
{
name = bottom;
pos = (275,0);
},
{
name = ogonek;
pos = (495,10);
},
{
name = top;
pos = (275,500);
},
{
name = topright;
pos = (530,500);
}
);
layerId = "DA2C6654-D585-4A87-87E3-B198D23B8793";
shapes = (
{
closed = 1;
nodes = (
(420,500,o),
(407,451,o),
(407,354,cs),
(407,257,o),
(402,191,o),
(393,156,c),
(322,70,l),
(276,70,o),
(216,70,o),
(143,70,c),
(143,149,o),
(143,240,o),
(143,344,cs),
(143,448,o),
(130,500,o),
(103,500,cs),
(76,500,o),
(63,445,o),
(63,334,cs),
(63,223,o),
(63,146,o),
(63,103,c),
(114,23,l),
(188,-10,l),
(214,-10,o),
(253,-10,o),
(304,-10,c),
(389,88,l),
(401,131,o),
(407,127,o),
(407,76,cs),
(407,25,o),
(420,0,o),
(447,0,cs),
(474,0,o),
(487,83,o),
(487,250,cs),
(487,417,o),
(474,500,o),
(447,500,cs)
);
}
);
width = 550;
}
);
unicode = 117;
},
{
color = 6;
glyphname = uogonek;
kernLeft = n;
kernRight = n;
layers = (
{
anchors = (
{
name = bottom;
pos = (275,0);
},
{
name = ogonek;
pos = (495,10);
},
{
name = top;
pos = (275,500);
},
{
name = topright;
pos = (530,500);
}
);
layerId = "DA2C6654-D585-4A87-87E3-B198D23B8793";
shapes = (
{
closed = 1;
nodes = (
(514,-123,o),
(504,-128,o),
(504,-138,c),
(480,-165,l),
(464,-165,o),
(440,-165,o),
(407,-165,c),
(407,-78,l),
(434,-44,ls),
(467,-3,o),
(478,29,o),
(474,44,c),
(483,84,o),
(487,153,o),
(487,250,cs),
(487,417,o),
(474,500,o),
(447,500,cs),
(420,500,o),
(407,451,o),
(407,354,cs),
(407,257,o),
(402,191,o),
(393,156,c),
(322,70,l),
(276,70,o),
(216,70,o),
(143,70,c),
(143,344,ls),
(143,448,o),
(130,500,o),
(103,500,cs),
(76,500,o),
(63,445,o),
(63,334,cs),
(63,103,l),
(114,23,l),
(188,-10,l),
(304,-10,l),
(389,88,l),
(401,131,o),
(407,127,o),
(407,76,cs),
(407,54,o),
(409,37,o),
(414,25,c),
(403,13,o),
(390,-2,o),
(377,-21,cs),
(339,-76,l),
(339,-171,l),
(400,-230,l),
(504,-230,l),
(571,-168,l),
(568,-138,o),
(556,-123,o),
(535,-123,cs)
);
}
);
width = 550;
}
);
metricLeft = u;
unicode = 371;
},
{
color = 6;
glyphname = v;
layers = (
{
anchors = (
{
name = bottom;
pos = (275,0);
},
{
name = top;
pos = (275,500);
}
);
layerId = "DA2C6654-D585-4A87-87E3-B198D23B8793";
shapes = (
{
closed = 1;
nodes = (
(440,500,o),
(400,433,o),
(350,299,cs),
(299,165,o),
(249,165,o),
(200,299,cs),
(150,433,o),
(111,500,o),
(82,500,cs),
(24,500,o),
(225,0,o),
(275,0,cs),
(325,0,o),
(527,500,o),
(469,500,cs)
);
}
);
width = 550;
}
);
unicode = 118;
},
{
color = 6;
glyphname = w;
layers = (
{
anchors = (
{
name = bottom;
pos = (275,0);
},
{
name = top;
pos = (275,500);
}
);
layerId = "DA2C6654-D585-4A87-87E3-B198D23B8793";
shapes = (
{
closed = 1;
nodes = (
(440,500,o),
(415,439,o),
(394,318,cs),
(373,196,o),
(353,196,o),
(336,318,cs),
(318,439,o),
(296,500,o),
(271,500,cs),
(245,500,o),
(223,441,o),
(205,322,cs),
(186,203,o),
(168,203,o),
(151,322,cs),
(134,441,o),
(111,500,o),
(82,500,cs),
(24,500,o),
(115,0,o),
(164,0,cs),
(188,0,o),
(212,59,o),
(235,177,cs),
(258,295,o),
(282,295,o),
(305,177,cs),
(328,59,o),
(351,0,o),
(376,0,cs),
(424,0,o),
(527,500,o),
(469,500,cs)
);
}
);
width = 550;
}
);
unicode = 119;
},
{
color = 6;
glyphname = x;
layers = (
{
anchors = (
{
name = bottom;
pos = (275,0);
},
{
name = top;
pos = (275,500);
}
);
layerId = "DA2C6654-D585-4A87-87E3-B198D23B8793";
shapes = (
{
closed = 1;
nodes = (
(494,0,o),
(479,43,o),
(416,129,cs),
(353,214,o),
(352,298,o),
(411,379,cs),
(470,460,o),
(484,500,o),
(452,500,cs),
(419,500,o),
(382,470,o),
(339,410,cs),
(296,350,o),
(252,350,o),
(206,410,cs),
(160,470,o),
(121,500,o),
(89,500,cs),
(56,500,o),
(71,459,o),
(134,377,cs),
(196,294,o),
(196,211,o),
(134,127,cs),
(71,42,o),
(56,0,o),
(89,0,cs),
(121,0,o),
(160,32,o),
(206,95,cs),
(251,158,o),
(297,158,o),
(344,95,cs),
(390,32,o),
(429,0,o),
(462,0,cs)
);
}
);
width = 550;
}
);
unicode = 120;
},
{
color = 6;
glyphname = y;
layers = (
{
anchors = (
{
name = bottom;
pos = (275,0);
},
{
name = top;
pos = (275,500);
}
);
layerId = "DA2C6654-D585-4A87-87E3-B198D23B8793";
shapes = (
{
closed = 1;
nodes = (
(441,500,o),
(402,434,o),
(351,302,cs),
(300,170,o),
(250,170,o),
(199,302,cs),
(148,434,o),
(109,500,o),
(81,500,cs),
(52,500,o),
(71,418,o),
(136,254,cs),
(201,89,o),
(219,-27,o),
(189,-96,cs),
(159,-165,o),
(158,-200,o),
(186,-200,cs),
(242,-200,o),
(526,500,o),
(470,500,cs)
);
}
);
width = 550;
}
);
unicode = 121;
},
{
color = 6;
glyphname = z;
layers = (
{
anchors = (
{
name = bottom;
pos = (275,0);
},
{
name = center;
pos = (275,250);
},
{
name = top;
pos = (275,500);
}
);
layerId = "DA2C6654-D585-4A87-87E3-B198D23B8793";
shapes = (
{
closed = 1;
nodes = (
(224,75,o),
(224,133,o),
(325,250,cs),
(426,367,o),
(476,438,o),
(476,463,cs),
(476,488,o),
(409,500,o),
(274,500,cs),
(139,500,o),
(71,488,o),
(71,463,cs),
(71,438,o),
(122,425,o),
(225,425,cs),
(328,425,o),
(328,367,o),
(225,250,cs),
(122,133,o),
(71,63,o),
(71,38,cs),
(71,13,o),
(139,0,o),
(275,0,cs),
(411,0,o),
(479,13,o),
(479,38,cs),
(479,63,o),
(428,75,o),
(326,75,cs)
);
}
);
width = 550;
}
);
unicode = 122;
},
{
color = 6;
glyphname = ordfeminine;
layers = (
{
layerId = "DA2C6654-D585-4A87-87E3-B198D23B8793";
shapes = (
{
closed = 1;
nodes = (
(419,700,o),
(406,681,o),
(406,644,cs),
(406,606,o),
(401,606,o),
(392,644,c),
(320,710,l),
(280,710,o),
(240,710,o),
(200,710,c),
(111,655,l),
(63,559,l),
(63,519,o),
(63,481,o),
(63,444,c),
(110,353,l),
(195,300,l),
(232,300,o),
(271,300,o),
(312,300,c),
(389,381,l),
(400,419,o),
(406,432,o),
(406,419,cs),
(406,406,o),
(406,395,o),
(406,386,c),
(412,321,l),
(413,314,o),
(425,310,o),
(450,310,cs),
(474,310,o),
(486,375,o),
(486,505,cs),
(486,635,o),
(473,700,o),
(446,700,cs)
);
},
{
closed = 1;
nodes = (
(284,377,o),
(250,377,o),
(210,377,c),
(143,446,l),
(143,481,o),
(143,520,o),
(143,561,c),
(204,632,l),
(248,632,o),
(291,632,o),
(334,632,c),
(406,560,l),
(406,519,o),
(406,489,o),
(406,468,c),
(374,412,l),
(312,377,l)
);
}
);
width = 550;
}
);
unicode = 170;
},
{
color = 6;
glyphname = ordmasculine;
layers = (
{
layerId = "DA2C6654-D585-4A87-87E3-B198D23B8793";
shapes = (
{
closed = 1;
nodes = (
(255,290,o),
(297,290,o),
(339,290,c),
(436,344,l),
(489,439,l),
(489,479,o),
(489,519,o),
(489,559,c),
(436,655,l),
(339,710,l),
(297,710,o),
(255,710,o),
(213,710,c),
(115,655,l),
(61,559,l),
(61,519,o),
(61,479,o),
(61,439,c),
(115,344,l),
(213,290,l)
);
},
{
closed = 1;
nodes = (
(296,364,o),
(255,364,o),
(214,364,c),
(140,439,l),
(140,479,o),
(140,519,o),
(140,559,c),
(215,636,l),
(256,636,o),
(296,636,o),
(337,636,c),
(410,559,l),
(410,519,o),
(410,479,o),
(410,439,c),
(336,364,l)
);
}
);
width = 550;
}
);
unicode = 186;
},
{
color = 6;
glyphname = Delta;
layers = (
{
layerId = "DA2C6654-D585-4A87-87E3-B198D23B8793";
shapes = (
{
closed = 1;
nodes = (
(236,817,o),
(-38,0,o),
(275,0,cs),
(432,0,o),
(471,117,o),
(393,350,cs)
);
},
{
closed = 1;
nodes = (
(255,417,o),
(295,417,o),
(335,282,cs),
(374,147,o),
(354,80,o),
(275,80,cs),
(196,80,o),
(176,147,o),
(216,282,cs)
);
}
);
width = 550;
}
);
unicode = 916;
},
{
color = 6;
glyphname = Omega;
layers = (
{
anchors = (
{
name = bottom;
pos = (275,0);
},
{
name = topleft;
pos = (20,650);
}
);
layerId = "DA2C6654-D585-4A87-87E3-B198D23B8793";
shapes = (
{
closed = 1;
nodes = (
(384,98,o),
(384,103,o),
(384,103,cs),
(383,103,o),
(404,117,o),
(445,146,c),
(520,269,l),
(520,332,o),
(520,390,o),
(520,443,c),
(463,579,l),
(352,660,l),
(301,660,o),
(249,660,o),
(198,660,c),
(87,579,l),
(30,444,l),
(30,391,o),
(30,332,o),
(30,269,c),
(102,152,l),
(147,119,o),
(170,98,o),
(170,89,cs),
(170,79,o),
(148,75,o),
(105,77,cs),
(62,79,o),
(40,67,o),
(40,40,cs),
(40,13,o),
(73,0,o),
(140,0,cs),
(207,0,o),
(240,22,o),
(240,65,cs),
(240,108,o),
(219,142,o),
(178,165,c),
(110,274,l),
(110,334,o),
(110,396,o),
(110,460,c),
(194,580,l),
(248,580,o),
(302,580,o),
(356,580,c),
(440,459,l),
(440,395,o),
(440,335,o),
(440,278,c),
(372,172,l),
(333,144,o),
(314,108,o),
(314,65,cs),
(314,22,o),
(347,0,o),
(412,0,cs),
(477,0,o),
(510,13,o),
(510,40,cs),
(510,67,o),
(489,79,o),
(447,77,cs),
(405,75,o),
(384,79,o),
(384,89,cs)
);
}
);
width = 550;
}
);
unicode = 937;
},
{
color = 6;
glyphname = pi;
layers = (
{
layerId = "DA2C6654-D585-4A87-87E3-B198D23B8793";
shapes = (
{
closed = 1;
nodes = (
(495,425,o),
(510,438,o),
(510,463,cs),
(510,488,o),
(432,500,o),
(275,500,cs),
(118,500,o),
(40,488,o),
(40,463,cs),
(40,438,o),
(55,425,o),
(85,425,cs),
(115,425,o),
(130,354,o),
(130,213,cs),
(130,71,o),
(143,0,o),
(170,0,cs),
(197,0,o),
(210,71,o),
(210,213,cs),
(210,354,o),
(232,425,o),
(275,425,cs),
(318,425,o),
(340,382,o),
(340,297,cs),
(340,212,o),
(340,141,o),
(340,84,c),
(425,-10,l),
(481,-10,o),
(509,3,o),
(509,30,cs),
(509,57,o),
(498,70,o),
(476,70,c),
(439,84,l),
(420,127,l),
(420,155,o),
(420,212,o),
(420,297,cs),
(420,382,o),
(435,425,o),
(465,425,cs)
);
}
);
width = 550;
}
);
unicode = 960;
},
{
color = 6;
glyphname = two.lf;
layers = (
{
layerId = "DA2C6654-D585-4A87-87E3-B198D23B8793";
shapes = (
{
closed = 1;
nodes = (
(225,75,o),
(191,92,o),
(219,125,cs),
(247,158,o),
(261,175,o),
(260,174,c),
(276,192,o),
(302,222,o),
(338,265,c),
(402,348,l),
(448,442,l),
(448,470,o),
(448,501,o),
(448,534,c),
(403,614,l),
(321,660,l),
(284,660,o),
(250,660,o),
(218,660,c),
(135,618,l),
(86,544,l),
(86,484,o),
(75,484,o),
(122,484,cs),
(145,484,o),
(157,499,o),
(157,528,c),
(221,585,l),
(251,585,o),
(281,585,o),
(311,585,c),
(368,529,l),
(368,499,o),
(368,472,o),
(368,448,c),
(333,380,l),
(239,260,ls),
(148,150,o),
(102,95,o),
(103,96,c),
(91,82,o),
(85,75,o),
(85,75,cs),
(85,75,o),
(85,63,o),
(85,38,cs),
(85,13,o),
(148,0,o),
(275,0,cs),
(402,0,o),
(465,13,o),
(465,38,cs),
(465,63,o),
(417,75,o),
(321,75,cs)
);
}
);
width = 550;
}
);
},
{
color = 6;
glyphname = three.lf;
layers = (
{
layerId = "DA2C6654-D585-4A87-87E3-B198D23B8793";
shapes = (
{
closed = 1;
nodes = (
(319,335,o),
(292,344,o),
(337,349,c),
(409,414,l),
(409,461,o),
(409,500,o),
(409,533,c),
(362,614,l),
(278,660,l),
(241,660,o),
(207,660,o),
(175,660,c),
(94,618,l),
(46,545,l),
(46,485,o),
(35,484,o),
(82,484,cs),
(105,484,o),
(117,499,o),
(117,528,c),
(178,585,l),
(208,585,o),
(238,585,o),
(269,585,c),
(329,529,l),
(329,499,o),
(329,467,o),
(329,433,c),
(269,374,l),
(232,374,o),
(204,374,o),
(185,374,cs),
(166,374,o),
(156,362,o),
(156,338,cs),
(156,313,o),
(166,301,o),
(185,301,cs),
(204,301,o),
(232,301,o),
(270,301,c),
(338,235,l),
(338,200,o),
(338,164,o),
(338,128,c),
(277,65,l),
(242,65,o),
(209,65,o),
(176,65,c),
(108,130,l),
(108,162,o),
(96,178,o),
(73,178,cs),
(26,178,o),
(37,178,o),
(37,115,c),
(88,36,l),
(174,-10,l),
(208,-10,o),
(244,-10,o),
(282,-10,c),
(369,40,l),
(418,127,l),
(418,161,o),
(418,226,o),
(418,322,c)
);
}
);
width = 550;
}
);
},
{
color = 6;
glyphname = four.lf;
layers = (
{
layerId = "DA2C6654-D585-4A87-87E3-B198D23B8793";
shapes = (
{
closed = 1;
nodes = (
(492,208,o),
(477,220,o),
(446,220,cs),
(415,220,o),
(400,292,o),
(400,435,cs),
(400,578,o),
(387,650,o),
(360,650,cs),
(307,650,o),
(45,233,o),
(45,183,cs),
(45,158,o),
(91,145,o),
(183,145,cs),
(274,145,o),
(320,121,o),
(320,73,cs),
(320,24,o),
(333,0,o),
(360,0,cs),
(387,0,o),
(400,24,o),
(400,73,cs),
(400,121,o),
(415,145,o),
(446,145,cs),
(477,145,o),
(492,158,o),
(492,183,cs)
);
},
{
closed = 1;
nodes = (
(102,220,o),
(320,564,o),
(320,368,cs),
(320,269,o),
(289,220,o),
(227,220,cs)
);
}
);
width = 550;
}
);
},
{
color = 6;
glyphname = five.lf;
layers = (
{
layerId = "DA2C6654-D585-4A87-87E3-B198D23B8793";
shapes = (
{
closed = 1;
nodes = (
(310,420,o),
(278,420,o),
(249,420,c),
(178,375,l),
(167,346,o),
(163,372,o),
(168,453,cs),
(173,534,o),
(217,575,o),
(302,575,cs),
(386,575,o),
(428,588,o),
(428,613,cs),
(428,638,o),
(373,650,o),
(264,650,cs),
(44,650,o),
(67,277,o),
(116,267,cs),
(141,262,o),
(165,287,o),
(189,342,c),
(253,342,o),
(296,342,o),
(318,342,c),
(375,309,l),
(410,246,l),
(410,218,o),
(410,190,o),
(410,162,c),
(373,100,l),
(314,68,l),
(291,68,o),
(261,68,o),
(223,68,c),
(146,131,l),
(142,168,o),
(127,187,o),
(100,187,cs),
(73,187,o),
(61,167,o),
(64,127,c),
(124,38,l),
(222,-10,l),
(261,-10,o),
(299,-10,o),
(336,-10,c),
(432,42,l),
(489,140,l),
(489,183,o),
(489,225,o),
(489,268,c),
(437,367,l),
(347,420,l)
);
}
);
width = 550;
}
);
},
{
color = 6;
glyphname = six.lf;
layers = (
{
layerId = "DA2C6654-D585-4A87-87E3-B198D23B8793";
shapes = (
{
closed = 1;
nodes = (
(274,420,o),
(237,420,o),
(199,420,c),
(169,387,o),
(177,417,o),
(224,510,cs),
(271,603,o),
(280,650,o),
(251,650,cs),
(222,650,o),
(200,634,o),
(185,601,cs),
(56,329,l),
(51,317,o),
(41,290,o),
(25,249,c),
(25,215,o),
(25,177,o),
(25,135,c),
(81,41,l),
(177,-10,l),
(216,-10,o),
(255,-10,o),
(294,-10,c),
(393,43,l),
(451,143,l),
(451,187,o),
(451,230,o),
(451,272,c),
(398,368,l),
(309,420,l)
);
},
{
closed = 1;
nodes = (
(371,229,o),
(371,186,o),
(371,143,c),
(292,67,l),
(254,67,o),
(217,67,o),
(180,67,c),
(105,138,l),
(105,179,o),
(105,220,o),
(105,261,c),
(180,343,l),
(221,343,o),
(260,343,o),
(297,343,c),
(371,270,l)
);
}
);
width = 550;
}
);
},
{
color = 6;
glyphname = seven.lf;
layers = (
{
layerId = "DA2C6654-D585-4A87-87E3-B198D23B8793";
shapes = (
{
closed = 1;
nodes = (
(82,650,o),
(20,638,o),
(20,613,cs),
(20,588,o),
(68,575,o),
(165,575,cs),
(262,575,o),
(273,479,o),
(199,288,cs),
(124,96,o),
(100,0,o),
(127,0,cs),
(179,0,o),
(391,563,o),
(391,613,cs),
(391,638,o),
(329,650,o),
(206,650,cs)
);
}
);
width = 550;
}
);
},
{
color = 6;
glyphname = eight.lf;
layers = (
{
layerId = "DA2C6654-D585-4A87-87E3-B198D23B8793";
shapes = (
{
closed = 1;
nodes = (
(340,336,o),
(338,347,o),
(369,358,c),
(423,428,l),
(423,465,o),
(423,500,o),
(423,533,c),
(377,614,l),
(292,660,l),
(255,660,o),
(219,660,o),
(182,660,c),
(98,614,l),
(51,533,l),
(51,500,o),
(51,466,o),
(51,429,c),
(106,358,l),
(137,347,o),
(135,336,o),
(100,323,c),
(37,239,l),
(37,198,o),
(37,161,o),
(37,126,c),
(87,40,l),
(178,-10,l),
(217,-10,o),
(257,-10,o),
(297,-10,c),
(388,40,l),
(437,126,l),
(437,161,o),
(437,198,o),
(437,239,c),
(375,323,l)
);
},
{
closed = 1;
nodes = (
(222,585,o),
(252,585,o),
(282,585,c),
(343,528,l),
(343,499,o),
(343,469,o),
(343,439,c),
(282,379,l),
(252,379,o),
(222,379,o),
(193,379,c),
(131,439,l),
(131,469,o),
(131,499,o),
(131,528,c),
(193,585,l)
);
},
{
closed = 1;
nodes = (
(254,65,o),
(220,65,o),
(185,65,c),
(117,129,l),
(117,162,o),
(117,195,o),
(117,230,c),
(185,296,l),
(220,296,o),
(254,296,o),
(289,296,c),
(357,230,l),
(357,195,o),
(357,162,o),
(357,129,c),
(289,65,l)
);
}
);
width = 550;
}
);
},
{
color = 6;
glyphname = nine.lf;
layers = (
{
layerId = "DA2C6654-D585-4A87-87E3-B198D23B8793";
shapes = (
{
closed = 1;
nodes = (
(272,660,o),
(233,660,o),
(194,660,c),
(95,607,l),
(37,508,l),
(37,464,o),
(37,421,o),
(37,379,c),
(91,283,l),
(181,230,l),
(215,230,o),
(251,230,o),
(289,230,c),
(319,263,o),
(311,233,o),
(264,140,cs),
(217,47,o),
(208,0,o),
(237,0,cs),
(266,0,o),
(288,16,o),
(303,49,cs),
(432,322,ls),
(437,333,o),
(447,360,o),
(463,401,c),
(463,435,o),
(463,473,o),
(463,515,c),
(407,609,l),
(311,660,l)
);
},
{
closed = 1;
nodes = (
(267,307,o),
(228,307,o),
(191,307,c),
(117,380,l),
(117,421,o),
(117,464,o),
(117,507,c),
(196,583,l),
(234,583,o),
(271,583,o),
(308,583,c),
(383,512,l),
(383,471,o),
(383,430,o),
(383,389,c),
(308,307,l)
);
}
);
width = 550;
}
);
},
{
color = 6;
glyphname = zero.osf;
layers = (
{
layerId = "DA2C6654-D585-4A87-87E3-B198D23B8793";
shapes = (
{
closed = 1;
nodes = (
(260,-10,o),
(304,-10,o),
(347,-10,c),
(458,53,l),
(525,171,l),
(525,223,o),
(525,275,o),
(525,326,c),
(458,445,l),
(347,510,l),
(304,510,o),
(260,510,o),
(217,510,c),
(105,445,l),
(37,326,l),
(37,275,o),
(37,223,o),
(37,171,c),
(104,53,l),
(217,-10,l)
);
},
{
closed = 1;
nodes = (
(296,67,o),
(268,67,o),
(239,67,c),
(164,110,l),
(117,193,l),
(117,230,o),
(117,268,o),
(117,305,c),
(164,389,l),
(240,433,l),
(268,433,o),
(296,433,o),
(324,433,c),
(399,388,l),
(445,305,l),
(445,268,o),
(445,230,o),
(445,193,c),
(399,110,l),
(324,67,l)
);
}
);
width = 550;
}
);
},
{
color = 6;
glyphname = one.osf;
layers = (
{
layerId = "DA2C6654-D585-4A87-87E3-B198D23B8793";
shapes = (
{
closed = 1;
nodes = (
(349,75,o),
(325,146,o),
(325,288,cs),
(325,429,o),
(286,500,o),
(208,500,cs),
(129,500,o),
(90,488,o),
(90,463,cs),
(90,438,o),
(116,425,o),
(168,425,cs),
(219,425,o),
(245,367,o),
(245,250,cs),
(245,133,o),
(218,75,o),
(163,75,cs),
(108,75,o),
(80,63,o),
(80,38,cs),
(80,13,o),
(145,0,o),
(275,0,cs),
(405,0,o),
(470,13,o),
(470,38,cs),
(470,63,o),
(446,75,o),
(398,75,cs)
);
}
);
width = 550;
}
);
},
{
color = 6;
glyphname = two.osf;
layers = (
{
layerId = "DA2C6654-D585-4A87-87E3-B198D23B8793";
shapes = (
{
closed = 1;
nodes = (
(251,75,o),
(225,88,o),
(260,113,cs),
(295,138,o),
(335,168,o),
(381,201,c),
(448,289,l),
(448,326,o),
(448,359,o),
(448,389,c),
(405,465,l),
(322,510,l),
(284,510,o),
(249,510,o),
(217,510,c),
(135,468,l),
(86,395,l),
(86,335,o),
(75,334,o),
(122,334,cs),
(145,334,o),
(157,349,o),
(157,378,c),
(220,435,l),
(250,435,o),
(280,435,o),
(310,435,c),
(368,381,l),
(368,353,o),
(368,327,o),
(368,304,c),
(334,250,l),
(276,202,l),
(235,174,o),
(188,141,o),
(134,104,cs),
(108,85,o),
(95,75,o),
(95,75,cs),
(95,75,o),
(95,63,o),
(95,38,cs),
(95,13,o),
(157,0,o),
(280,0,cs),
(403,0,o),
(465,13,o),
(465,38,cs),
(465,63,o),
(422,75,o),
(337,75,cs)
);
}
);
width = 550;
}
);
},
{
color = 6;
glyphname = three.osf;
layers = (
{
layerId = "DA2C6654-D585-4A87-87E3-B198D23B8793";
shapes = (
{
closed = 1;
nodes = (
(366,184,o),
(338,193,o),
(383,198,c),
(456,264,l),
(456,310,o),
(456,349,o),
(456,382,c),
(409,463,l),
(325,510,l),
(288,510,o),
(254,510,o),
(222,510,c),
(141,468,l),
(93,394,l),
(93,334,o),
(82,333,o),
(129,333,cs),
(152,333,o),
(164,348,o),
(164,377,c),
(225,435,l),
(255,435,o),
(285,435,o),
(316,435,c),
(376,378,l),
(376,348,o),
(376,316,o),
(376,283,c),
(316,224,l),
(279,224,o),
(251,224,o),
(232,224,cs),
(213,224,o),
(203,212,o),
(203,187,cs),
(203,162,o),
(213,150,o),
(232,150,cs),
(251,150,o),
(279,150,o),
(317,150,c),
(385,85,l),
(385,49,o),
(385,13,o),
(385,-22,c),
(324,-86,l),
(289,-86,o),
(256,-86,o),
(223,-86,c),
(155,-21,l),
(155,11,o),
(143,27,o),
(120,27,cs),
(73,27,o),
(84,27,o),
(84,-36,c),
(135,-114,l),
(221,-160,l),
(255,-160,o),
(291,-160,o),
(329,-160,c),
(417,-110,l),
(465,-24,l),
(465,10,o),
(465,75,o),
(465,171,c)
);
}
);
width = 550;
}
);
},
{
color = 6;
glyphname = four.osf;
layers = (
{
layerId = "DA2C6654-D585-4A87-87E3-B198D23B8793";
shapes = (
{
closed = 1;
nodes = (
(498,63,o),
(483,75,o),
(452,75,cs),
(421,75,o),
(406,147,o),
(406,290,cs),
(406,433,o),
(393,505,o),
(366,505,cs),
(313,505,o),
(51,88,o),
(51,38,cs),
(51,13,o),
(97,0,o),
(189,0,cs),
(280,0,o),
(326,-24,o),
(326,-72,cs),
(326,-121,o),
(339,-145,o),
(366,-145,cs),
(393,-145,o),
(406,-121,o),
(406,-72,cs),
(406,-24,o),
(421,0,o),
(452,0,cs),
(483,0,o),
(498,13,o),
(498,38,cs)
);
},
{
closed = 1;
nodes = (
(108,75,o),
(326,419,o),
(326,223,cs),
(326,124,o),
(295,75,o),
(233,75,cs)
);
}
);
width = 550;
}
);
},
{
color = 6;
glyphname = five.osf;
layers = (
{
layerId = "DA2C6654-D585-4A87-87E3-B198D23B8793";
shapes = (
{
closed = 1;
nodes = (
(311,270,o),
(278,270,o),
(249,270,c),
(178,226,l),
(167,196,o),
(163,222,o),
(168,303,cs),
(173,384,o),
(217,425,o),
(302,425,cs),
(386,425,o),
(428,438,o),
(428,463,cs),
(428,488,o),
(373,500,o),
(264,500,cs),
(44,500,o),
(67,127,o),
(116,117,cs),
(141,112,o),
(165,137,o),
(189,192,c),
(253,192,o),
(303,192,o),
(340,192,c),
(410,118,l),
(410,75,o),
(410,33,o),
(410,-9,c),
(335,-82,l),
(298,-82,o),
(261,-82,o),
(223,-82,c),
(146,-19,l),
(142,18,o),
(127,37,o),
(100,37,cs),
(73,37,o),
(61,17,o),
(64,-23,c),
(124,-112,l),
(222,-160,l),
(261,-160,o),
(299,-160,o),
(337,-160,c),
(433,-108,l),
(489,-11,l),
(489,32,o),
(489,76,o),
(489,119,c),
(439,217,l),
(350,270,l)
);
}
);
width = 550;
}
);
},
{
color = 6;
glyphname = six.osf;
layers = (
{
layerId = "DA2C6654-D585-4A87-87E3-B198D23B8793";
shapes = (
{
closed = 1;
nodes = (
(311,420,o),
(274,420,o),
(236,420,c),
(206,387,o),
(214,417,o),
(261,510,cs),
(308,603,o),
(317,650,o),
(288,650,cs),
(259,650,o),
(237,634,o),
(222,601,cs),
(93,329,l),
(88,317,o),
(78,290,o),
(62,249,c),
(62,215,o),
(62,177,o),
(62,135,c),
(118,41,l),
(214,-10,l),
(253,-10,o),
(292,-10,o),
(331,-10,c),
(430,43,l),
(488,143,l),
(488,187,o),
(488,230,o),
(488,272,c),
(435,368,l),
(346,420,l)
);
},
{
closed = 1;
nodes = (
(408,229,o),
(408,186,o),
(408,143,c),
(329,67,l),
(291,67,o),
(254,67,o),
(217,67,c),
(142,138,l),
(142,179,o),
(142,220,o),
(142,261,c),
(217,343,l),
(258,343,o),
(297,343,o),
(334,343,c),
(408,270,l)
);
}
);
width = 550;
}
);
},
{
color = 6;
glyphname = seven.osf;
layers = (
{
layerId = "DA2C6654-D585-4A87-87E3-B198D23B8793";
shapes = (
{
closed = 1;
nodes = (
(152,500,o),
(90,488,o),
(90,463,cs),
(90,438,o),
(138,425,o),
(235,425,cs),
(331,425,o),
(342,329,o),
(268,138,cs),
(194,-54,o),
(170,-150,o),
(197,-150,cs),
(249,-150,o),
(461,413,o),
(461,463,cs),
(461,488,o),
(399,500,o),
(276,500,cs)
);
}
);
width = 550;
}
);
},
{
color = 6;
glyphname = eight.osf;
layers = (
{
layerId = "DA2C6654-D585-4A87-87E3-B198D23B8793";
shapes = (
{
closed = 1;
nodes = (
(384,336,o),
(382,347,o),
(415,358,c),
(471,428,l),
(471,465,o),
(471,501,o),
(471,534,c),
(423,614,l),
(335,660,l),
(295,660,o),
(255,660,o),
(215,660,c),
(127,614,l),
(79,534,l),
(79,501,o),
(79,465,o),
(79,428,c),
(135,358,l),
(168,347,o),
(166,336,o),
(129,323,c),
(65,240,l),
(65,199,o),
(65,161,o),
(65,126,c),
(115,40,l),
(210,-10,l),
(253,-10,o),
(297,-10,o),
(340,-10,c),
(435,40,l),
(485,126,l),
(485,161,o),
(485,199,o),
(485,240,c),
(421,323,l)
);
},
{
closed = 1;
nodes = (
(258,585,o),
(292,585,o),
(327,585,c),
(391,529,l),
(391,499,o),
(391,469,o),
(391,439,c),
(326,379,l),
(292,379,o),
(258,379,o),
(224,379,c),
(159,439,l),
(159,469,o),
(159,499,o),
(159,529,c),
(223,585,l)
);
},
{
closed = 1;
nodes = (
(295,65,o),
(255,65,o),
(216,65,c),
(145,129,l),
(145,162,o),
(145,195,o),
(145,230,c),
(216,296,l),
(255,296,o),
(295,296,o),
(334,296,c),
(405,230,l),
(405,195,o),
(405,162,o),
(405,129,c),
(334,65,l)
);
}
);
width = 550;
}
);
},
{
color = 6;
glyphname = nine.osf;
layers = (
{
layerId = "DA2C6654-D585-4A87-87E3-B198D23B8793";
shapes = (
{
closed = 1;
nodes = (
(297,510,o),
(258,510,o),
(219,510,c),
(120,457,l),
(62,358,l),
(62,314,o),
(62,271,o),
(62,229,c),
(116,133,l),
(206,80,l),
(240,80,o),
(276,80,o),
(314,80,c),
(344,113,o),
(336,83,o),
(289,-10,cs),
(242,-103,o),
(233,-150,o),
(262,-150,cs),
(291,-150,o),
(313,-134,o),
(328,-101,cs),
(457,171,l),
(462,183,o),
(472,210,o),
(488,251,c),
(488,285,o),
(488,323,o),
(488,365,c),
(432,459,l),
(336,510,l)
);
},
{
closed = 1;
nodes = (
(292,157,o),
(253,157,o),
(216,157,c),
(142,230,l),
(142,271,o),
(142,314,o),
(142,357,c),
(221,433,l),
(259,433,o),
(296,433,o),
(333,433,c),
(408,362,l),
(408,321,o),
(408,280,o),
(408,239,c),
(333,157,l)
);
}
);
width = 550;
}
);
},
{
color = 6;
glyphname = zero.tf;
layers = (
{
layerId = "DA2C6654-D585-4A87-87E3-B198D23B8793";
shapes = (
{
closed = 1;
nodes = (
(313,660,o),
(237,660,o),
(161,660,c),
(45,475,l),
(45,375,o),
(45,275,o),
(45,175,c),
(161,-10,l),
(237,-10,o),
(313,-10,o),
(389,-10,c),
(505,175,l),
(505,275,o),
(505,375,o),
(505,475,c),
(389,660,l)
);
},
{
closed = 1;
nodes = (
(300,70,o),
(250,70,o),
(200,70,c),
(125,206,l),
(125,285,o),
(125,365,o),
(125,444,c),
(200,580,l),
(250,580,o),
(300,580,o),
(350,580,c),
(425,444,l),
(425,365,o),
(425,285,o),
(425,206,c),
(350,70,l)
);
}
);
width = 550;
}
);
},
{
color = 6;
glyphname = one.tf;
layers = (
{
layerId = "DA2C6654-D585-4A87-87E3-B198D23B8793";
shapes = (
{
closed = 1;
nodes = (
(351,75,o),
(327,171,o),
(327,363,cs),
(327,554,o),
(288,650,o),
(210,650,cs),
(131,650,o),
(92,638,o),
(92,613,cs),
(92,588,o),
(118,575,o),
(170,575,cs),
(221,575,o),
(247,492,o),
(247,325,cs),
(247,158,o),
(220,75,o),
(165,75,cs),
(110,75,o),
(82,63,o),
(82,38,cs),
(82,13,o),
(147,0,o),
(277,0,cs),
(407,0,o),
(472,13,o),
(472,38,cs),
(472,63,o),
(448,75,o),
(400,75,cs)
);
}
);
width = 550;
}
);
},
{
color = 6;
glyphname = five.tf;
layers = (
{
layerId = "DA2C6654-D585-4A87-87E3-B198D23B8793";
shapes = (
{
closed = 1;
nodes = (
(310,420,o),
(279,420,o),
(250,420,c),
(183,376,l),
(172,346,o),
(168,372,o),
(173,453,cs),
(178,534,o),
(221,575,o),
(302,575,cs),
(383,575,o),
(424,588,o),
(424,613,cs),
(424,638,o),
(371,650,o),
(265,650,cs),
(52,650,o),
(73,277,o),
(122,267,cs),
(147,262,o),
(166,274,o),
(179,305,c),
(243,342,l),
(271,342,o),
(295,342,o),
(316,342,c),
(371,309,l),
(405,246,l),
(405,218,o),
(405,190,o),
(405,162,c),
(369,100,l),
(311,68,l),
(290,68,o),
(262,68,o),
(225,68,c),
(151,131,l),
(147,168,o),
(132,187,o),
(105,187,cs),
(78,187,o),
(66,167,o),
(69,127,c),
(129,38,l),
(225,-10,l),
(262,-10,o),
(299,-10,o),
(334,-10,c),
(428,42,l),
(485,140,l),
(485,183,o),
(485,225,o),
(485,268,c),
(433,366,l),
(345,420,l)
);
}
);
width = 550;
}
);
},
{
color = 6;
glyphname = six.tf;
layers = (
{
layerId = "DA2C6654-D585-4A87-87E3-B198D23B8793";
shapes = (
{
closed = 1;
nodes = (
(311,420,o),
(274,420,o),
(236,420,c),
(206,387,o),
(214,417,o),
(261,510,cs),
(308,603,o),
(317,650,o),
(288,650,cs),
(259,650,o),
(237,634,o),
(222,601,cs),
(93,329,l),
(88,317,o),
(78,290,o),
(62,249,c),
(62,215,o),
(62,177,o),
(62,135,c),
(118,41,l),
(214,-10,l),
(253,-10,o),
(292,-10,o),
(331,-10,c),
(430,43,l),
(488,143,l),
(488,187,o),
(488,230,o),
(488,272,c),
(435,368,l),
(346,420,l)
);
},
{
closed = 1;
nodes = (
(408,229,o),
(408,186,o),
(408,143,c),
(329,67,l),
(291,67,o),
(254,67,o),
(217,67,c),
(142,138,l),
(142,179,o),
(142,220,o),
(142,261,c),
(217,343,l),
(258,343,o),
(297,343,o),
(334,343,c),
(408,270,l)
);
}
);
width = 550;
}
);
},
{
color = 6;
glyphname = nine.tf;
layers = (
{
layerId = "DA2C6654-D585-4A87-87E3-B198D23B8793";
shapes = (
{
closed = 1;
nodes = (
(297,660,o),
(258,660,o),
(219,660,c),
(120,607,l),
(62,508,l),
(62,464,o),
(62,421,o),
(62,379,c),
(116,283,l),
(206,230,l),
(240,230,o),
(276,230,o),
(314,230,c),
(344,263,o),
(336,233,o),
(289,140,cs),
(242,47,o),
(233,0,o),
(262,0,cs),
(291,0,o),
(313,16,o),
(328,49,cs),
(457,321,l),
(462,333,o),
(472,360,o),
(488,401,c),
(488,435,o),
(488,473,o),
(488,515,c),
(432,609,l),
(336,660,l)
);
},
{
closed = 1;
nodes = (
(292,307,o),
(253,307,o),
(216,307,c),
(142,380,l),
(142,421,o),
(142,464,o),
(142,507,c),
(221,583,l),
(259,583,o),
(296,583,o),
(333,583,c),
(408,512,l),
(408,471,o),
(408,430,o),
(408,389,c),
(333,307,l)
);
}
);
width = 550;
}
);
},
{
color = 6;
glyphname = zero.tosf;
layers = (
{
layerId = "DA2C6654-D585-4A87-87E3-B198D23B8793";
shapes = (
{
closed = 1;
nodes = (
(254,-10,o),
(297,-10,o),
(340,-10,c),
(447,53,l),
(509,171,l),
(509,223,o),
(509,275,o),
(509,327,c),
(447,446,l),
(340,510,l),
(297,510,o),
(254,510,o),
(211,510,c),
(104,446,l),
(41,327,l),
(41,275,o),
(41,223,o),
(41,171,c),
(104,53,l),
(211,-10,l)
);
},
{
closed = 1;
nodes = (
(290,68,o),
(262,68,o),
(234,68,c),
(163,111,l),
(121,193,l),
(121,230,o),
(121,268,o),
(121,305,c),
(163,388,l),
(234,432,l),
(262,432,o),
(290,432,o),
(318,432,c),
(387,388,l),
(429,305,l),
(429,268,o),
(429,230,o),
(429,193,c),
(387,111,l),
(317,68,l)
);
}
);
width = 550;
}
);
},
{
color = 6;
glyphname = one.tosf;
layers = (
{
layerId = "DA2C6654-D585-4A87-87E3-B198D23B8793";
shapes = (
{
closed = 1;
nodes = (
(348,75,o),
(325,146,o),
(325,288,cs),
(325,429,o),
(286,500,o),
(208,500,cs),
(129,500,o),
(90,488,o),
(90,463,cs),
(90,438,o),
(116,425,o),
(168,425,cs),
(219,425,o),
(245,367,o),
(245,250,cs),
(245,133,o),
(221,75,o),
(173,75,cs),
(124,75,o),
(100,63,o),
(100,38,cs),
(100,13,o),
(160,0,o),
(280,0,cs),
(400,0,o),
(460,13,o),
(460,38,cs),
(460,63,o),
(438,75,o),
(393,75,cs)
);
}
);
width = 550;
}
);
},
{
color = 6;
glyphname = five.tosf;
layers = (
{
layerId = "DA2C6654-D585-4A87-87E3-B198D23B8793";
shapes = (
{
closed = 1;
nodes = (
(312,270,o),
(280,270,o),
(251,270,c),
(180,226,l),
(169,196,o),
(165,222,o),
(170,303,cs),
(175,384,o),
(219,425,o),
(302,425,cs),
(385,425,o),
(427,438,o),
(427,463,cs),
(427,488,o),
(373,500,o),
(264,500,cs),
(47,500,o),
(69,127,o),
(118,117,cs),
(143,112,o),
(167,137,o),
(191,192,c),
(255,192,o),
(297,192,o),
(318,192,c),
(372,159,l),
(405,96,l),
(405,68,o),
(405,33,o),
(405,-9,c),
(332,-82,l),
(299,-82,o),
(263,-82,o),
(226,-82,c),
(150,-19,l),
(147,18,o),
(132,37,o),
(105,37,cs),
(78,37,o),
(66,17,o),
(69,-23,c),
(128,-112,l),
(224,-160,l),
(263,-160,o),
(300,-160,o),
(337,-160,c),
(430,-108,l),
(485,-10,l),
(485,33,o),
(485,75,o),
(485,118,c),
(434,217,l),
(347,270,l)
);
}
);
width = 550;
}
);
},
{
color = 6;
glyphname = six.tosf;
layers = (
{
layerId = "DA2C6654-D585-4A87-87E3-B198D23B8793";
shapes = (
{
closed = 1;
nodes = (
(311,420,o),
(274,420,o),
(236,420,c),
(206,387,o),
(214,417,o),
(261,510,cs),
(308,603,o),
(317,650,o),
(288,650,cs),
(259,650,o),
(237,634,o),
(222,601,cs),
(93,329,l),
(88,317,o),
(78,290,o),
(62,249,c),
(62,215,o),
(62,177,o),
(62,135,c),
(118,41,l),
(214,-10,l),
(253,-10,o),
(292,-10,o),
(331,-10,c),
(430,43,l),
(488,143,l),
(488,187,o),
(488,230,o),
(488,272,c),
(435,368,l),
(346,420,l)
);
},
{
closed = 1;
nodes = (
(408,229,o),
(408,186,o),
(408,143,c),
(329,67,l),
(291,67,o),
(254,67,o),
(217,67,c),
(142,138,l),
(142,179,o),
(142,220,o),
(142,261,c),
(217,343,l),
(258,343,o),
(297,343,o),
(334,343,c),
(408,270,l)
);
}
);
width = 550;
}
);
},
{
color = 6;
glyphname = nine.tosf;
layers = (
{
layerId = "DA2C6654-D585-4A87-87E3-B198D23B8793";
shapes = (
{
closed = 1;
nodes = (
(297,510,o),
(258,510,o),
(219,510,c),
(120,457,l),
(62,358,l),
(62,314,o),
(62,271,o),
(62,229,c),
(116,133,l),
(206,80,l),
(240,80,o),
(276,80,o),
(314,80,c),
(344,113,o),
(336,83,o),
(289,-10,cs),
(242,-103,o),
(233,-150,o),
(262,-150,cs),
(291,-150,o),
(313,-134,o),
(328,-101,cs),
(457,171,l),
(462,183,o),
(472,210,o),
(488,251,c),
(488,285,o),
(488,323,o),
(488,365,c),
(432,459,l),
(336,510,l)
);
},
{
closed = 1;
nodes = (
(292,157,o),
(253,157,o),
(216,157,c),
(142,230,l),
(142,271,o),
(142,314,o),
(142,357,c),
(221,433,l),
(259,433,o),
(296,433,o),
(333,433,c),
(408,362,l),
(408,321,o),
(408,280,o),
(408,239,c),
(333,157,l)
);
}
);
width = 550;
}
);
},
{
color = 6;
glyphname = zero.dnom;
layers = (
{
layerId = "DA2C6654-D585-4A87-87E3-B198D23B8793";
shapes = (
{
closed = 1;
nodes = (
(299,394,o),
(251,394,o),
(204,394,c),
(124,281,l),
(124,222,o),
(124,162,o),
(124,103,c),
(204,-10,l),
(251,-10,o),
(299,-10,o),
(346,-10,c),
(426,103,l),
(426,162,o),
(426,222,o),
(426,281,c),
(346,394,l)
);
},
{
closed = 1;
nodes = (
(288,69,o),
(262,69,o),
(236,69,c),
(193,135,l),
(193,173,o),
(193,211,o),
(193,249,c),
(236,315,l),
(262,315,o),
(288,315,o),
(314,315,c),
(357,249,l),
(357,211,o),
(357,173,o),
(357,135,c),
(314,69,l)
);
}
);
width = 550;
}
);
},
{
color = 6;
glyphname = one.dnom;
layers = (
{
layerId = "DA2C6654-D585-4A87-87E3-B198D23B8793";
shapes = (
{
closed = 1;
nodes = (
(331,65,o),
(319,119,o),
(319,228,cs),
(319,336,o),
(293,390,o),
(242,390,cs),
(190,390,o),
(164,379,o),
(164,357,cs),
(164,335,o),
(177,324,o),
(204,324,cs),
(231,324,o),
(244,281,o),
(244,195,cs),
(244,108,o),
(230,65,o),
(201,65,cs),
(172,65,o),
(158,54,o),
(158,33,cs),
(158,11,o),
(197,0,o),
(275,0,cs),
(353,0,o),
(392,11,o),
(392,33,cs),
(392,54,o),
(380,65,o),
(356,65,cs)
);
}
);
width = 550;
}
);
},
{
color = 6;
glyphname = two.dnom;
layers = (
{
layerId = "DA2C6654-D585-4A87-87E3-B198D23B8793";
shapes = (
{
closed = 1;
nodes = (
(156,11,o),
(196,0,o),
(275,0,cs),
(354,0,o),
(394,11,o),
(394,33,cs),
(394,54,o),
(368,65,o),
(315,65,cs),
(262,65,o),
(241,71,o),
(254,84,c),
(266,97,o),
(290,122,o),
(326,159,c),
(384,244,l),
(384,275,o),
(384,307,o),
(384,339,c),
(323,398,l),
(288,398,o),
(254,398,o),
(219,398,c),
(152,336,l),
(155,306,o),
(167,291,o),
(188,291,cs),
(209,291,o),
(219,296,o),
(219,306,c),
(243,333,l),
(259,333,o),
(283,333,o),
(316,333,c),
(316,298,o),
(316,269,o),
(316,246,c),
(239,151,l),
(184,94,o),
(156,54,o),
(156,33,cs)
);
}
);
width = 550;
}
);
},
{
color = 6;
glyphname = three.dnom;
layers = (
{
layerId = "DA2C6654-D585-4A87-87E3-B198D23B8793";
shapes = (
{
closed = 1;
nodes = (
(307,203,o),
(324,209,o),
(389,216,c),
(389,269,o),
(389,305,o),
(389,322,c),
(359,368,l),
(306,397,l),
(284,397,o),
(262,397,o),
(239,397,c),
(185,367,l),
(159,316,l),
(161,296,o),
(172,286,o),
(192,286,cs),
(212,286,o),
(222,293,o),
(222,306,c),
(251,332,l),
(266,332,o),
(280,332,o),
(295,332,c),
(323,306,l),
(323,293,o),
(323,268,o),
(323,233,c),
(279,233,o),
(253,233,o),
(246,233,cs),
(239,233,o),
(235,223,o),
(235,203,cs),
(235,182,o),
(239,172,o),
(246,172,cs),
(253,172,o),
(269,172,o),
(292,172,c),
(329,140,l),
(329,122,o),
(329,94,o),
(329,56,c),
(294,56,o),
(267,56,o),
(248,56,c),
(217,86,l),
(217,102,o),
(207,110,o),
(187,110,cs),
(166,110,o),
(155,100,o),
(153,79,c),
(182,23,l),
(240,-10,l),
(265,-10,o),
(294,-10,o),
(329,-10,c),
(394,59,l),
(394,93,o),
(394,124,o),
(394,152,c),
(340,200,l)
);
}
);
width = 550;
}
);
},
{
color = 6;
glyphname = four.dnom;
layers = (
{
layerId = "DA2C6654-D585-4A87-87E3-B198D23B8793";
shapes = (
{
closed = 1;
nodes = (
(407,130,o),
(400,141,o),
(387,141,cs),
(374,141,o),
(367,183,o),
(367,266,cs),
(367,349,o),
(356,390,o),
(334,390,cs),
(289,390,o),
(143,146,o),
(143,106,cs),
(143,86,o),
(169,76,o),
(221,76,cs),
(273,76,o),
(299,63,o),
(299,38,cs),
(299,13,o),
(310,0,o),
(333,0,cs),
(356,0,o),
(367,13,o),
(367,38,cs),
(367,63,o),
(374,76,o),
(387,76,cs),
(400,76,o),
(407,87,o),
(407,109,cs)
);
},
{
closed = 1;
nodes = (
(232,141,o),
(232,164,o),
(259,211,cs),
(286,257,o),
(299,257,o),
(299,211,cs),
(299,164,o),
(286,141,o),
(259,141,cs)
);
}
);
width = 550;
}
);
},
{
color = 6;
glyphname = five.dnom;
layers = (
{
layerId = "DA2C6654-D585-4A87-87E3-B198D23B8793";
shapes = (
{
closed = 1;
nodes = (
(307,260,o),
(274,260,o),
(243,260,c),
(228,235,o),
(221,240,o),
(224,275,cs),
(227,309,o),
(252,326,o),
(301,326,cs),
(350,326,o),
(374,337,o),
(374,358,cs),
(374,379,o),
(340,390,o),
(271,390,cs),
(134,390,o),
(144,169,o),
(185,160,cs),
(206,155,o),
(222,167,o),
(234,194,c),
(266,194,o),
(291,194,o),
(310,194,c),
(343,157,l),
(343,136,o),
(343,116,o),
(343,95,c),
(308,59,l),
(289,59,o),
(269,59,o),
(249,59,c),
(211,91,l),
(210,109,o),
(198,118,o),
(176,118,cs),
(154,118,o),
(144,99,o),
(147,60,c),
(222,-10,l),
(260,-10,o),
(298,-10,o),
(335,-10,c),
(408,66,l),
(408,106,o),
(408,146,o),
(408,185,c),
(342,260,l)
);
}
);
width = 550;
}
);
},
{
color = 6;
glyphname = six.dnom;
layers = (
{
layerId = "DA2C6654-D585-4A87-87E3-B198D23B8793";
shapes = (
{
closed = 1;
nodes = (
(303,262,o),
(278,262,o),
(265,262,c),
(256,255,o),
(264,275,o),
(289,321,cs),
(314,366,o),
(313,389,o),
(288,389,cs),
(263,389,o),
(246,380,o),
(238,363,cs),
(167,214,l),
(161,199,o),
(153,179,o),
(143,154,c),
(143,131,o),
(143,108,o),
(143,85,c),
(177,26,l),
(239,-10,l),
(265,-10,o),
(296,-10,o),
(333,-10,c),
(407,66,l),
(407,105,o),
(407,144,o),
(407,183,c),
(338,262,l)
);
},
{
closed = 1;
nodes = (
(288,57,o),
(268,57,o),
(247,57,c),
(208,98,l),
(208,118,o),
(208,138,o),
(208,159,c),
(246,199,l),
(266,199,o),
(286,199,o),
(306,199,c),
(341,159,l),
(341,138,o),
(341,118,o),
(341,97,c),
(307,57,l)
);
}
);
width = 550;
}
);
},
{
color = 6;
glyphname = seven.dnom;
layers = (
{
layerId = "DA2C6654-D585-4A87-87E3-B198D23B8793";
shapes = (
{
closed = 1;
nodes = (
(201,390,o),
(164,380,o),
(164,359,cs),
(164,338,o),
(190,327,o),
(241,327,cs),
(292,327,o),
(296,273,o),
(254,164,cs),
(211,55,o),
(201,0,o),
(223,0,cs),
(266,0,o),
(386,324,o),
(386,362,cs),
(386,381,o),
(349,390,o),
(275,390,cs)
);
}
);
width = 550;
}
);
},
{
color = 6;
glyphname = eight.dnom;
layers = (
{
layerId = "DA2C6654-D585-4A87-87E3-B198D23B8793";
shapes = (
{
closed = 1;
nodes = (
(350,200,o),
(349,206,o),
(365,213,c),
(391,256,l),
(391,275,o),
(391,301,o),
(391,333,c),
(326,396,l),
(292,396,o),
(258,396,o),
(225,396,c),
(159,333,l),
(159,301,o),
(159,275,o),
(159,255,c),
(185,213,l),
(201,206,o),
(200,200,o),
(181,193,c),
(151,144,l),
(151,121,o),
(151,92,o),
(151,57,c),
(221,-10,l),
(257,-10,o),
(293,-10,o),
(329,-10,c),
(400,57,l),
(400,92,o),
(400,121,o),
(400,143,c),
(369,193,l)
);
},
{
closed = 1;
nodes = (
(268,330,o),
(282,330,o),
(297,330,c),
(326,303,l),
(326,289,o),
(326,275,o),
(326,260,c),
(297,233,l),
(282,233,o),
(268,233,o),
(254,233,c),
(225,260,l),
(225,275,o),
(225,289,o),
(225,303,c),
(253,330,l)
);
},
{
closed = 1;
nodes = (
(284,53,o),
(267,53,o),
(250,53,c),
(217,85,l),
(217,102,o),
(217,119,o),
(217,136,c),
(250,168,l),
(267,168,o),
(284,168,o),
(301,168,c),
(334,136,l),
(334,119,o),
(334,102,o),
(334,85,c),
(301,53,l)
);
}
);
width = 550;
}
);
},
{
color = 6;
glyphname = nine.dnom;
layers = (
{
layerId = "DA2C6654-D585-4A87-87E3-B198D23B8793";
shapes = (
{
closed = 1;
nodes = (
(289,397,o),
(258,397,o),
(219,397,c),
(143,322,l),
(143,282,o),
(143,243,o),
(143,204,c),
(212,125,l),
(247,125,o),
(272,125,o),
(285,125,c),
(294,132,o),
(286,113,o),
(261,68,cs),
(236,23,o),
(237,0,o),
(262,0,cs),
(287,0,o),
(304,8,o),
(312,25,cs),
(383,173,l),
(389,188,o),
(397,209,o),
(407,234,c),
(407,256,o),
(407,278,o),
(407,301,c),
(373,361,l),
(314,397,l)
);
},
{
closed = 1;
nodes = (
(284,188,o),
(264,188,o),
(245,188,c),
(209,229,l),
(209,250,o),
(209,270,o),
(209,291,c),
(244,330,l),
(264,330,o),
(284,330,o),
(304,330,c),
(342,290,l),
(342,270,o),
(342,250,o),
(342,229,c),
(304,188,l)
);
}
);
width = 550;
}
);
},
{
color = 6;
glyphname = one.numr;
layers = (
{
layerId = "DA2C6654-D585-4A87-87E3-B198D23B8793";
shapes = (
{
closed = 1;
nodes = (
(331,325,o),
(319,379,o),
(319,488,cs),
(319,596,o),
(293,650,o),
(242,650,cs),
(190,650,o),
(164,639,o),
(164,617,cs),
(164,595,o),
(177,584,o),
(204,584,cs),
(231,584,o),
(244,541,o),
(244,455,cs),
(244,368,o),
(230,325,o),
(201,325,cs),
(172,325,o),
(158,314,o),
(158,293,cs),
(158,271,o),
(197,260,o),
(275,260,cs),
(353,260,o),
(392,271,o),
(392,293,cs),
(392,314,o),
(380,325,o),
(356,325,cs)
);
}
);
width = 550;
}
);
},
{
color = 6;
glyphname = two.numr;
layers = (
{
layerId = "DA2C6654-D585-4A87-87E3-B198D23B8793";
shapes = (
{
closed = 1;
nodes = (
(156,271,o),
(196,260,o),
(275,260,cs),
(354,260,o),
(394,271,o),
(394,293,cs),
(394,314,o),
(368,325,o),
(315,325,cs),
(262,325,o),
(241,331,o),
(254,344,c),
(266,357,o),
(290,382,o),
(326,419,c),
(384,504,l),
(384,535,o),
(384,567,o),
(384,599,c),
(323,658,l),
(288,658,o),
(254,658,o),
(219,658,c),
(152,596,l),
(155,566,o),
(167,551,o),
(188,551,cs),
(209,551,o),
(219,556,o),
(219,566,c),
(243,593,l),
(259,593,o),
(283,593,o),
(316,593,c),
(316,558,o),
(316,529,o),
(316,506,c),
(239,411,l),
(184,354,o),
(156,314,o),
(156,293,cs)
);
}
);
width = 550;
}
);
},
{
color = 6;
glyphname = three.numr;
layers = (
{
layerId = "DA2C6654-D585-4A87-87E3-B198D23B8793";
shapes = (
{
closed = 1;
nodes = (
(307,463,o),
(324,469,o),
(389,476,c),
(389,529,o),
(389,565,o),
(389,582,c),
(359,628,l),
(306,657,l),
(284,657,o),
(262,657,o),
(239,657,c),
(185,627,l),
(159,576,l),
(161,556,o),
(172,546,o),
(192,546,cs),
(212,546,o),
(222,553,o),
(222,566,c),
(251,592,l),
(266,592,o),
(280,592,o),
(295,592,c),
(323,566,l),
(323,553,o),
(323,528,o),
(323,493,c),
(279,493,o),
(253,493,o),
(246,493,cs),
(239,493,o),
(235,483,o),
(235,463,cs),
(235,442,o),
(239,432,o),
(246,432,cs),
(253,432,o),
(269,432,o),
(292,432,c),
(329,400,l),
(329,382,o),
(329,354,o),
(329,316,c),
(294,316,o),
(267,316,o),
(248,316,c),
(217,346,l),
(217,362,o),
(207,370,o),
(187,370,cs),
(166,370,o),
(155,360,o),
(153,339,c),
(182,283,l),
(240,250,l),
(265,250,o),
(294,250,o),
(329,250,c),
(394,319,l),
(394,353,o),
(394,384,o),
(394,412,c),
(340,460,l)
);
}
);
width = 550;
}
);
},
{
color = 6;
glyphname = fraction;
layers = (
{
layerId = "DA2C6654-D585-4A87-87E3-B198D23B8793";
shapes = (
{
closed = 1;
nodes = (
(93,726,o),
(-161,-17,o),
(-123,-32,cs),
(-85,-47,o),
(172,700,o),
(133,713,cs)
);
}
);
width = 0;
}
);
unicode = 8260;
},
{
color = 6;
glyphname = period;
layers = (
{
layerId = "DA2C6654-D585-4A87-87E3-B198D23B8793";
shapes = (
{
closed = 1;
nodes = (
(327,82,o),
(310,98,o),
(275,98,cs),
(240,98,o),
(223,82,o),
(223,49,cs),
(223,16,o),
(240,0,o),
(275,0,cs),
(310,0,o),
(327,16,o),
(327,49,cs)
);
}
);
width = 550;
}
);
unicode = 46;
},
{
color = 6;
glyphname = comma;
layers = (
{
layerId = "DA2C6654-D585-4A87-87E3-B198D23B8793";
shapes = (
{
closed = 1;
nodes = (
(238,-103,o),
(254,-102,o),
(283,-92,c),
(329,-28,l),
(329,11,o),
(329,41,o),
(329,64,cs),
(329,86,o),
(311,97,o),
(275,97,cs),
(239,97,o),
(221,81,o),
(221,49,cs),
(221,16,o),
(229,-2,o),
(246,-5,c),
(262,-9,o),
(270,-18,o),
(270,-32,c),
(251,-65,l),
(232,-83,l),
(230,-84,o),
(231,-89,o),
(235,-96,c)
);
}
);
width = 550;
}
);
unicode = 44;
},
{
color = 6;
glyphname = colon;
layers = (
{
layerId = "DA2C6654-D585-4A87-87E3-B198D23B8793";
shapes = (
{
closed = 1;
nodes = (
(327,82,o),
(310,98,o),
(275,98,cs),
(240,98,o),
(223,82,o),
(223,49,cs),
(223,16,o),
(240,0,o),
(275,0,cs),
(310,0,o),
(327,16,o),
(327,49,cs)
);
},
{
closed = 1;
nodes = (
(327,471,o),
(310,487,o),
(275,487,cs),
(240,487,o),
(223,471,o),
(223,438,cs),
(223,405,o),
(240,389,o),
(275,389,cs),
(310,389,o),
(327,405,o),
(327,438,cs)
);
}
);
width = 550;
}
);
unicode = 58;
},
{
color = 6;
glyphname = semicolon;
layers = (
{
layerId = "DA2C6654-D585-4A87-87E3-B198D23B8793";
shapes = (
{
closed = 1;
nodes = (
(327,470,o),
(310,486,o),
(275,486,cs),
(240,486,o),
(223,470,o),
(223,437,cs),
(223,404,o),
(240,388,o),
(275,388,cs),
(310,388,o),
(327,404,o),
(327,437,cs)
);
},
{
closed = 1;
nodes = (
(238,-103,o),
(254,-102,o),
(283,-92,c),
(329,-28,l),
(329,11,o),
(329,41,o),
(329,64,cs),
(329,86,o),
(311,97,o),
(275,97,cs),
(239,97,o),
(221,81,o),
(221,49,cs),
(221,16,o),
(229,-2,o),
(246,-5,c),
(262,-9,o),
(270,-18,o),
(270,-32,c),
(251,-65,l),
(232,-83,l),
(230,-84,o),
(231,-89,o),
(235,-96,c)
);
}
);
width = 550;
}
);
unicode = 59;
},
{
color = 6;
glyphname = ellipsis;
layers = (
{
layerId = "DA2C6654-D585-4A87-87E3-B198D23B8793";
shapes = (
{
closed = 1;
nodes = (
(494,82,o),
(477,98,o),
(442,98,cs),
(407,98,o),
(390,82,o),
(390,49,cs),
(390,16,o),
(407,0,o),
(442,0,cs),
(477,0,o),
(494,16,o),
(494,49,cs)
);
},
{
closed = 1;
nodes = (
(160,82,o),
(143,98,o),
(108,98,cs),
(73,98,o),
(56,82,o),
(56,49,cs),
(56,16,o),
(73,0,o),
(108,0,cs),
(143,0,o),
(160,16,o),
(160,49,cs)
);
},
{
closed = 1;
nodes = (
(328,82,o),
(311,98,o),
(276,98,cs),
(241,98,o),
(224,82,o),
(224,49,cs),
(224,16,o),
(241,0,o),
(276,0,cs),
(311,0,o),
(328,16,o),
(328,49,cs)
);
}
);
width = 550;
}
);
unicode = 8230;
},
{
color = 6;
glyphname = exclam;
layers = (
{
layerId = "DA2C6654-D585-4A87-87E3-B198D23B8793";
shapes = (
{
closed = 1;
nodes = (
(249,650,o),
(236,575,o),
(236,426,cs),
(236,276,o),
(249,201,o),
(275,201,cs),
(301,201,o),
(314,276,o),
(314,426,cs),
(314,575,o),
(301,650,o),
(275,650,cs)
);
},
{
closed = 1;
nodes = (
(327,82,o),
(310,98,o),
(275,98,cs),
(240,98,o),
(223,82,o),
(223,49,cs),
(223,16,o),
(240,0,o),
(275,0,cs),
(310,0,o),
(327,16,o),
(327,49,cs)
);
}
);
width = 550;
}
);
unicode = 33;
},
{
color = 6;
glyphname = exclamdown;
layers = (
{
layerId = "DA2C6654-D585-4A87-87E3-B198D23B8793";
shapes = (
{
closed = 1;
nodes = (
(301,-109,o),
(314,-34,o),
(314,115,cs),
(314,265,o),
(301,340,o),
(275,340,cs),
(249,340,o),
(236,265,o),
(236,115,cs),
(236,-34,o),
(249,-109,o),
(275,-109,cs)
);
},
{
closed = 1;
nodes = (
(327,525,o),
(310,541,o),
(275,541,cs),
(240,541,o),
(223,525,o),
(223,492,cs),
(223,459,o),
(240,443,o),
(275,443,cs),
(310,443,o),
(327,459,o),
(327,492,cs)
);
}
);
width = 550;
}
);
unicode = 161;
},
{
color = 6;
glyphname = question;
layers = (
{
layerId = "DA2C6654-D585-4A87-87E3-B198D23B8793";
shapes = (
{
closed = 1;
nodes = (
(295,660,o),
(257,660,o),
(220,660,c),
(130,613,l),
(79,533,l),
(79,500,o),
(92,484,o),
(119,484,cs),
(146,484,o),
(159,499,o),
(159,529,c),
(223,585,l),
(258,585,o),
(293,585,o),
(330,585,c),
(391,530,l),
(391,499,o),
(391,468,o),
(391,437,c),
(323,374,l),
(285,374,o),
(259,374,o),
(244,374,cs),
(229,374,o),
(222,345,o),
(222,288,cs),
(222,230,o),
(235,201,o),
(262,201,cs),
(289,201,o),
(302,218,o),
(302,251,cs),
(302,284,o),
(328,304,o),
(380,310,c),
(471,405,l),
(471,458,o),
(471,501,o),
(471,534,c),
(423,614,l),
(335,660,l)
);
},
{
closed = 1;
nodes = (
(209,16,o),
(226,0,o),
(261,0,cs),
(295,0,o),
(312,16,o),
(312,49,cs),
(312,82,o),
(295,98,o),
(261,98,cs),
(226,98,o),
(209,82,o),
(209,49,cs)
);
}
);
width = 550;
}
);
unicode = 63;
},
{
color = 6;
glyphname = questiondown;
layers = (
{
layerId = "DA2C6654-D585-4A87-87E3-B198D23B8793";
shapes = (
{
closed = 1;
nodes = (
(255,-74,o),
(293,-74,o),
(330,-74,c),
(420,-27,l),
(471,53,l),
(471,86,o),
(458,102,o),
(431,102,cs),
(404,102,o),
(391,87,o),
(391,57,c),
(327,1,l),
(292,1,o),
(257,1,o),
(220,1,c),
(159,56,l),
(159,87,o),
(159,118,o),
(159,149,c),
(227,212,l),
(265,212,o),
(291,212,o),
(306,212,cs),
(321,212,o),
(328,241,o),
(328,298,cs),
(328,356,o),
(315,385,o),
(288,385,cs),
(261,385,o),
(248,368,o),
(248,335,cs),
(248,302,o),
(222,282,o),
(170,276,c),
(79,181,l),
(79,128,o),
(79,85,o),
(79,52,c),
(127,-28,l),
(215,-74,l)
);
},
{
closed = 1;
nodes = (
(341,570,o),
(324,586,o),
(289,586,cs),
(255,586,o),
(238,570,o),
(238,537,cs),
(238,504,o),
(255,488,o),
(289,488,cs),
(324,488,o),
(341,504,o),
(341,537,cs)
);
}
);
width = 550;
}
);
unicode = 191;
},
{
color = 6;
glyphname = periodcentered;
layers = (
{
layerId = "DA2C6654-D585-4A87-87E3-B198D23B8793";
shapes = (
{
closed = 1;
nodes = (
(327,306,o),
(310,322,o),
(275,322,cs),
(240,322,o),
(223,306,o),
(223,273,cs),
(223,240,o),
(240,224,o),
(275,224,cs),
(310,224,o),
(327,240,o),
(327,273,cs)
);
}
);
width = 550;
}
);
unicode = 183;
},
{
color = 6;
glyphname = bullet;
layers = (
{
layerId = "DA2C6654-D585-4A87-87E3-B198D23B8793";
shapes = (
{
closed = 1;
nodes = (
(193,385,o),
(152,344,o),
(152,262,cs),
(152,180,o),
(193,139,o),
(275,139,cs),
(357,139,o),
(398,180,o),
(398,262,cs),
(398,344,o),
(357,385,o),
(275,385,cs)
);
}
);
width = 550;
}
);
unicode = 8226;
},
{
color = 6;
glyphname = asterisk;
layers = (
{
layerId = "DA2C6654-D585-4A87-87E3-B198D23B8793";
shapes = (
{
closed = 1;
nodes = (
(458,567,o),
(436,634,o),
(364,611,cs),
(328,599,o),
(310,613,o),
(310,652,cs),
(310,691,o),
(298,710,o),
(275,710,cs),
(252,710,o),
(240,690,o),
(240,651,cs),
(240,611,o),
(222,597,o),
(186,609,cs),
(114,632,o),
(93,565,o),
(161,542,cs),
(195,531,o),
(200,509,o),
(177,477,cs),
(130,412,o),
(187,369,o),
(237,438,cs),
(262,473,o),
(287,473,o),
(312,438,cs),
(363,369,o),
(419,412,o),
(371,478,cs),
(347,511,o),
(353,533,o),
(388,544,cs)
);
}
);
width = 550;
}
);
unicode = 42;
},
{
color = 6;
glyphname = numbersign;
layers = (
{
layerId = "DA2C6654-D585-4A87-87E3-B198D23B8793";
shapes = (
{
closed = 1;
nodes = (
(492,404,o),
(510,415,o),
(510,437,cs),
(510,459,o),
(492,470,o),
(456,470,cs),
(420,470,o),
(402,497,o),
(402,550,cs),
(402,603,o),
(391,630,o),
(370,630,cs),
(349,630,o),
(338,603,o),
(338,550,cs),
(338,497,o),
(318,470,o),
(278,470,cs),
(238,470,o),
(218,497,o),
(218,550,cs),
(218,603,o),
(207,630,o),
(186,630,cs),
(165,630,o),
(154,603,o),
(154,550,cs),
(154,497,o),
(135,470,o),
(97,470,cs),
(59,470,o),
(40,459,o),
(40,437,cs),
(40,415,o),
(59,404,o),
(97,404,cs),
(135,404,o),
(154,378,o),
(154,325,cs),
(154,272,o),
(135,246,o),
(97,246,cs),
(59,246,o),
(40,235,o),
(40,213,cs),
(40,191,o),
(59,180,o),
(97,180,cs),
(135,180,o),
(154,153,o),
(154,100,cs),
(154,47,o),
(165,20,o),
(186,20,cs),
(207,20,o),
(218,47,o),
(218,100,cs),
(218,153,o),
(238,180,o),
(278,180,cs),
(318,180,o),
(338,153,o),
(338,100,cs),
(338,47,o),
(349,20,o),
(370,20,cs),
(391,20,o),
(402,47,o),
(402,100,cs),
(402,153,o),
(420,180,o),
(456,180,cs),
(492,180,o),
(510,191,o),
(510,213,cs),
(510,235,o),
(492,246,o),
(456,246,cs),
(420,246,o),
(402,272,o),
(402,325,cs),
(402,378,o),
(420,404,o),
(456,404,cs)
);
},
{
closed = 1;
nodes = (
(338,272,o),
(318,246,o),
(278,246,cs),
(238,246,o),
(218,272,o),
(218,325,cs),
(218,378,o),
(238,404,o),
(278,404,cs),
(318,404,o),
(338,378,o),
(338,325,cs)
);
}
);
width = 550;
}
);
unicode = 35;
},
{
color = 6;
glyphname = slash;
layers = (
{
layerId = "DA2C6654-D585-4A87-87E3-B198D23B8793";
shapes = (
{
closed = 1;
nodes = (
(441,703,o),
(22,-22,o),
(66,-47,cs),
(109,-72,o),
(528,654,o),
(485,679,cs)
);
}
);
width = 550;
}
);
unicode = 47;
},
{
color = 6;
glyphname = backslash;
layers = (
{
layerId = "DA2C6654-D585-4A87-87E3-B198D23B8793";
shapes = (
{
closed = 1;
nodes = (
(22,654,o),
(441,-72,o),
(484,-47,cs),
(528,-22,o),
(109,703,o),
(65,679,cs)
);
}
);
width = 550;
}
);
unicode = 92;
},
{
color = 6;
glyphname = exclamdown.case;
layers = (
{
layerId = "DA2C6654-D585-4A87-87E3-B198D23B8793";
shapes = (
{
closed = 1;
nodes = (
(301,0,o),
(314,75,o),
(314,224,cs),
(314,374,o),
(301,449,o),
(275,449,cs),
(249,449,o),
(236,374,o),
(236,224,cs),
(236,75,o),
(249,0,o),
(275,0,cs)
);
},
{
closed = 1;
nodes = (
(327,634,o),
(310,650,o),
(275,650,cs),
(240,650,o),
(223,634,o),
(223,601,cs),
(223,568,o),
(240,552,o),
(275,552,cs),
(310,552,o),
(327,568,o),
(327,601,cs)
);
}
);
width = 550;
}
);
},
{
color = 6;
glyphname = questiondown.case;
layers = (
{
layerId = "DA2C6654-D585-4A87-87E3-B198D23B8793";
shapes = (
{
closed = 1;
nodes = (
(255,-10,o),
(293,-10,o),
(330,-10,c),
(420,37,l),
(471,117,l),
(471,150,o),
(458,166,o),
(431,166,cs),
(404,166,o),
(391,151,o),
(391,121,c),
(327,65,l),
(292,65,o),
(257,65,o),
(220,65,c),
(159,120,l),
(159,151,o),
(159,182,o),
(159,213,c),
(227,276,l),
(265,276,o),
(291,276,o),
(306,276,cs),
(321,276,o),
(328,305,o),
(328,362,cs),
(328,420,o),
(315,449,o),
(288,449,cs),
(261,449,o),
(248,432,o),
(248,399,cs),
(248,366,o),
(222,346,o),
(170,340,c),
(79,245,l),
(79,192,o),
(79,149,o),
(79,116,c),
(127,36,l),
(215,-10,l)
);
},
{
closed = 1;
nodes = (
(341,634,o),
(324,650,o),
(289,650,cs),
(255,650,o),
(238,634,o),
(238,601,cs),
(238,568,o),
(255,552,o),
(289,552,cs),
(324,552,o),
(341,568,o),
(341,601,cs)
);
}
);
width = 550;
}
);
},
{
color = 6;
glyphname = parenleft;
layers = (
{
layerId = "DA2C6654-D585-4A87-87E3-B198D23B8793";
shapes = (
{
closed = 1;
nodes = (
(374,-94,o),
(383,-94,c),
(308,14,l),
(248,179,l),
(248,250,o),
(248,322,o),
(248,393,c),
(308,558,l),
(383,666,l),
(374,666,o),
(327,703,o),
(327,712,c),
(239,590,l),
(168,404,l),
(168,325,o),
(168,247,o),
(168,168,c),
(239,-18,l),
(327,-140,l),
(327,-129,o)
);
}
);
width = 550;
}
);
unicode = 40;
},
{
color = 6;
glyphname = parenright;
layers = (
{
layerId = "DA2C6654-D585-4A87-87E3-B198D23B8793";
shapes = (
{
closed = 1;
nodes = (
(223,-140,c),
(311,-18,l),
(382,168,l),
(382,247,o),
(382,325,o),
(382,404,c),
(311,590,l),
(223,712,l),
(223,703,o),
(176,666,o),
(167,666,c),
(242,558,l),
(302,393,l),
(302,322,o),
(302,250,o),
(302,179,c),
(242,14,l),
(167,-94,l),
(176,-94,o),
(223,-129,o)
);
}
);
width = 550;
}
);
unicode = 41;
},
{
color = 6;
glyphname = braceleft;
layers = (
{
layerId = "DA2C6654-D585-4A87-87E3-B198D23B8793";
shapes = (
{
closed = 1;
nodes = (
(411,787,o),
(372,800,o),
(295,800,cs),
(217,800,o),
(177,794,o),
(175,781,c),
(175,768,o),
(175,746,o),
(175,717,c),
(200,625,l),
(215,582,o),
(228,547,o),
(238,519,c),
(253,469,l),
(253,457,o),
(253,436,o),
(253,405,c),
(184,351,l),
(140,351,o),
(118,338,o),
(118,311,cs),
(118,284,o),
(140,271,o),
(184,271,c),
(253,217,l),
(253,186,o),
(253,165,o),
(253,153,c),
(238,103,l),
(228,75,o),
(215,40,o),
(200,-3,c),
(175,-95,l),
(175,-124,o),
(175,-146,o),
(175,-159,c),
(177,-172,o),
(217,-178,o),
(295,-178,cs),
(372,-178,o),
(411,-165,o),
(411,-138,cs),
(411,-111,o),
(387,-98,o),
(339,-98,cs),
(291,-98,o),
(267,-89,o),
(267,-70,c),
(283,-11,l),
(294,22,o),
(305,53,o),
(316,82,c),
(333,144,l),
(333,162,o),
(333,208,o),
(333,281,c),
(253,301,o),
(253,321,o),
(333,341,c),
(333,414,o),
(333,460,o),
(333,478,c),
(316,540,l),
(305,569,o),
(294,600,o),
(283,633,c),
(267,692,l),
(267,711,o),
(291,720,o),
(339,720,cs),
(387,720,o),
(411,733,o),
(411,760,cs)
);
}
);
width = 550;
}
);
unicode = 123;
},
{
color = 6;
glyphname = braceright;
layers = (
{
layerId = "DA2C6654-D585-4A87-87E3-B198D23B8793";
shapes = (
{
closed = 1;
nodes = (
(139,733,o),
(163,720,o),
(211,720,cs),
(259,720,o),
(283,711,o),
(283,692,c),
(267,633,l),
(256,600,o),
(245,569,o),
(234,540,c),
(217,478,l),
(217,460,o),
(217,414,o),
(217,341,c),
(297,321,o),
(297,301,o),
(217,281,c),
(217,208,o),
(217,162,o),
(217,144,c),
(234,82,l),
(245,53,o),
(256,22,o),
(267,-11,c),
(283,-70,l),
(283,-89,o),
(259,-98,o),
(211,-98,cs),
(163,-98,o),
(139,-111,o),
(139,-138,cs),
(139,-165,o),
(178,-178,o),
(255,-178,cs),
(333,-178,o),
(373,-172,o),
(375,-159,c),
(375,-146,o),
(375,-124,o),
(375,-95,c),
(350,-3,l),
(335,40,o),
(322,75,o),
(312,103,c),
(297,153,l),
(297,165,o),
(297,186,o),
(297,217,c),
(366,271,l),
(410,271,o),
(432,284,o),
(432,311,cs),
(432,338,o),
(410,351,o),
(366,351,c),
(297,405,l),
(297,436,o),
(297,457,o),
(297,469,c),
(312,519,l),
(322,547,o),
(335,582,o),
(350,625,c),
(375,717,l),
(375,746,o),
(375,768,o),
(375,781,c),
(373,794,o),
(333,800,o),
(255,800,cs),
(178,800,o),
(139,787,o),
(139,760,cs)
);
}
);
width = 550;
}
);
unicode = 125;
},
{
color = 6;
glyphname = bracketleft;
layers = (
{
layerId = "DA2C6654-D585-4A87-87E3-B198D23B8793";
shapes = (
{
closed = 1;
nodes = (
(455,-111,o),
(424,-98,o),
(362,-98,cs),
(299,-98,o),
(268,38,o),
(268,311,cs),
(268,584,o),
(299,720,o),
(362,720,cs),
(424,720,o),
(455,733,o),
(455,760,cs),
(455,787,o),
(411,800,o),
(322,800,cs),
(233,800,o),
(188,637,o),
(188,311,cs),
(188,-15,o),
(233,-178,o),
(322,-178,cs),
(411,-178,o),
(455,-165,o),
(455,-138,cs)
);
}
);
width = 550;
}
);
unicode = 91;
},
{
color = 6;
glyphname = bracketright;
layers = (
{
layerId = "DA2C6654-D585-4A87-87E3-B198D23B8793";
shapes = (
{
closed = 1;
nodes = (
(95,733,o),
(126,720,o),
(189,720,cs),
(251,720,o),
(282,584,o),
(282,311,cs),
(282,38,o),
(251,-98,o),
(189,-98,cs),
(126,-98,o),
(95,-111,o),
(95,-138,cs),
(95,-165,o),
(140,-178,o),
(229,-178,cs),
(318,-178,o),
(362,-15,o),
(362,311,cs),
(362,637,o),
(318,800,o),
(229,800,cs),
(140,800,o),
(95,787,o),
(95,760,cs)
);
}
);
width = 550;
}
);
unicode = 93;
},
{
color = 6;
glyphname = parenleft.case;
layers = (
{
layerId = "DA2C6654-D585-4A87-87E3-B198D23B8793";
shapes = (
{
closed = 1;
nodes = (
(374,-54,o),
(383,-54,c),
(308,54,l),
(248,219,l),
(248,290,o),
(248,362,o),
(248,433,c),
(308,598,l),
(383,706,l),
(374,706,o),
(317,743,o),
(317,752,c),
(234,630,l),
(168,444,l),
(168,365,o),
(168,287,o),
(168,208,c),
(234,22,l),
(317,-100,l),
(317,-91,o)
);
}
);
width = 550;
}
);
},
{
color = 6;
glyphname = parenright.case;
layers = (
{
layerId = "DA2C6654-D585-4A87-87E3-B198D23B8793";
shapes = (
{
closed = 1;
nodes = (
(177,-54,o),
(234,-91,o),
(234,-100,c),
(317,22,l),
(383,208,l),
(383,287,o),
(383,365,o),
(383,444,c),
(317,630,l),
(234,752,l),
(234,743,o),
(177,706,o),
(168,706,c),
(243,598,l),
(303,433,l),
(303,362,o),
(303,290,o),
(303,219,c),
(243,54,l),
(168,-54,l)
);
}
);
width = 550;
}
);
},
{
color = 6;
glyphname = hyphen;
layers = (
{
layerId = "DA2C6654-D585-4A87-87E3-B198D23B8793";
shapes = (
{
closed = 1;
nodes = (
(178,307,o),
(130,295,o),
(130,270,cs),
(130,245,o),
(178,233,o),
(275,233,cs),
(372,233,o),
(420,245,o),
(420,270,cs),
(420,295,o),
(372,307,o),
(275,307,cs)
);
}
);
width = 550;
}
);
unicode = 45;
},
{
color = 6;
glyphname = endash;
layers = (
{
layerId = "DA2C6654-D585-4A87-87E3-B198D23B8793";
shapes = (
{
closed = 1;
nodes = (
(142,309,o),
(75,296,o),
(75,271,cs),
(75,245,o),
(142,232,o),
(275,232,cs),
(408,232,o),
(475,245,o),
(475,271,cs),
(475,296,o),
(408,309,o),
(275,309,cs)
);
}
);
width = 550;
}
);
unicode = 8211;
},
{
color = 6;
glyphname = emdash;
layers = (
{
layerId = "DA2C6654-D585-4A87-87E3-B198D23B8793";
shapes = (
{
closed = 1;
nodes = (
(118,310,o),
(40,297,o),
(40,272,cs),
(40,246,o),
(118,233,o),
(275,233,cs),
(432,233,o),
(510,246,o),
(510,272,cs),
(510,297,o),
(432,310,o),
(275,310,cs)
);
}
);
width = 550;
}
);
unicode = 8212;
},
{
color = 6;
glyphname = underscore;
layers = (
{
layerId = "DA2C6654-D585-4A87-87E3-B198D23B8793";
shapes = (
{
closed = 1;
nodes = (
(118,-123,o),
(40,-136,o),
(40,-161,cs),
(40,-187,o),
(118,-200,o),
(275,-200,cs),
(432,-200,o),
(510,-187,o),
(510,-161,cs),
(510,-136,o),
(432,-123,o),
(275,-123,cs)
);
}
);
width = 550;
}
);
unicode = 95;
},
{
color = 6;
glyphname = quoteleft;
layers = (
{
layerId = "DA2C6654-D585-4A87-87E3-B198D23B8793";
shapes = (
{
closed = 1;
nodes = (
(312,660,o),
(296,659,o),
(267,649,c),
(221,585,l),
(221,546,o),
(221,516,o),
(221,493,cs),
(221,471,o),
(239,460,o),
(275,460,cs),
(311,460,o),
(329,476,o),
(329,508,cs),
(329,541,o),
(321,559,o),
(304,562,c),
(288,566,o),
(280,575,o),
(280,589,c),
(299,622,l),
(318,640,l),
(320,641,o),
(319,646,o),
(315,653,c)
);
}
);
width = 550;
}
);
unicode = 8216;
},
{
color = 6;
glyphname = quoteright;
layers = (
{
layerId = "DA2C6654-D585-4A87-87E3-B198D23B8793";
shapes = (
{
closed = 1;
nodes = (
(238,450,o),
(254,451,o),
(283,460,c),
(329,525,l),
(329,564,o),
(329,594,o),
(329,617,cs),
(329,639,o),
(311,650,o),
(275,650,cs),
(239,650,o),
(221,634,o),
(221,602,cs),
(221,569,o),
(229,551,o),
(246,548,c),
(262,544,o),
(270,535,o),
(270,521,c),
(251,488,l),
(232,470,l),
(230,469,o),
(231,464,o),
(235,457,c)
);
}
);
width = 550;
}
);
unicode = 8217;
},
{
color = 6;
glyphname = guillemetleft;
layers = (
{
layerId = "DA2C6654-D585-4A87-87E3-B198D23B8793";
shapes = (
{
closed = 1;
nodes = (
(320,415,o),
(336,451,o),
(318,470,c),
(281,506,o),
(59,315,o),
(191,170,cs),
(323,25,o),
(370,89,o),
(271,198,cs),
(222,252,o),
(222,306,o),
(271,361,cs)
);
},
{
closed = 1;
nodes = (
(449,328,o),
(449,347,o),
(432,365,c),
(396,400,o),
(286,298,o),
(354,223,cs),
(422,148,o),
(467,210,o),
(432,250,c),
(414,269,o),
(414,289,o),
(432,309,cs)
);
}
);
width = 550;
}
);
unicode = 171;
},
{
color = 6;
glyphname = guillemetright;
layers = (
{
layerId = "DA2C6654-D585-4A87-87E3-B198D23B8793";
shapes = (
{
closed = 1;
nodes = (
(304,334,o),
(316,306,o),
(316,279,cs),
(316,252,o),
(304,225,o),
(279,198,cs),
(243,158,o),
(226,124,o),
(226,104,cs),
(226,93,o),
(232,86,o),
(243,86,cs),
(264,86,o),
(304,110,o),
(359,170,cs),
(389,203,o),
(401,238,o),
(401,272,cs),
(401,377,o),
(289,474,o),
(245,474,cs),
(239,474,o),
(235,473,o),
(232,470,c),
(227,465,o),
(225,459,o),
(225,451,cs),
(225,431,o),
(243,401,o),
(279,361,cs)
);
},
{
closed = 1;
nodes = (
(127,299,o),
(132,289,o),
(132,279,cs),
(132,269,o),
(127,260,o),
(118,250,c),
(110,241,o),
(106,230,o),
(106,220,cs),
(106,203,o),
(118,188,o),
(137,188,cs),
(152,188,o),
(173,197,o),
(196,223,cs),
(212,240,o),
(218,259,o),
(218,277,cs),
(218,327,o),
(169,372,o),
(137,372,cs),
(129,372,o),
(123,370,o),
(118,365,c),
(110,356,o),
(105,347,o),
(105,337,cs),
(105,328,o),
(110,319,o),
(118,309,cs)
);
}
);
width = 550;
}
);
unicode = 187;
},
{
color = 6;
glyphname = guilsinglleft;
layers = (
{
layerId = "DA2C6654-D585-4A87-87E3-B198D23B8793";
shapes = (
{
closed = 1;
nodes = (
(358,415,o),
(374,451,o),
(356,470,c),
(319,506,o),
(97,315,o),
(229,170,cs),
(361,25,o),
(408,89,o),
(309,198,cs),
(260,252,o),
(260,306,o),
(309,361,cs)
);
}
);
width = 550;
}
);
unicode = 8249;
},
{
color = 6;
glyphname = guilsinglright;
layers = (
{
layerId = "DA2C6654-D585-4A87-87E3-B198D23B8793";
shapes = (
{
closed = 1;
nodes = (
(290,306,o),
(290,252,o),
(241,198,cs),
(142,89,o),
(189,25,o),
(321,170,cs),
(453,315,o),
(231,506,o),
(194,470,c),
(176,451,o),
(192,415,o),
(241,361,cs)
);
}
);
width = 550;
}
);
unicode = 8250;
},
{
color = 6;
glyphname = quotedbl;
layers = (
{
layerId = "DA2C6654-D585-4A87-87E3-B198D23B8793";
shapes = (
{
closed = 1;
nodes = (
(228,436,o),
(249,537,o),
(249,602,cs),
(249,634,o),
(233,650,o),
(200,650,cs),
(167,650,o),
(151,634,o),
(151,602,cs),
(151,537,o),
(173,436,o),
(201,436,cs)
);
},
{
closed = 1;
nodes = (
(378,436,o),
(399,537,o),
(399,602,cs),
(399,634,o),
(383,650,o),
(350,650,cs),
(317,650,o),
(301,634,o),
(301,602,cs),
(301,537,o),
(323,436,o),
(351,436,cs)
);
}
);
width = 550;
}
);
unicode = 34;
},
{
color = 6;
glyphname = quotesingle;
layers = (
{
layerId = "DA2C6654-D585-4A87-87E3-B198D23B8793";
shapes = (
{
closed = 1;
nodes = (
(309,485,o),
(329,513,o),
(329,602,cs),
(329,639,o),
(311,650,o),
(275,650,cs),
(239,650,o),
(221,634,o),
(221,602,cs),
(221,513,o),
(235,485,o),
(256,456,c),
(256,456,o),
(270,456,o),
(288,456,c)
);
}
);
width = 550;
}
);
unicode = 39;
},
{
color = 6;
glyphname = cent;
layers = (
{
layerId = "DA2C6654-D585-4A87-87E3-B198D23B8793";
shapes = (
{
closed = 1;
nodes = (
(303,67,o),
(283,67,o),
(280,67,cs),
(275,67,o),
(319,430,o),
(399,401,c),
(417,342,o),
(438,313,o),
(463,313,cs),
(487,313,o),
(496,337,o),
(489,384,c),
(412,482,l),
(373,494,o),
(356,516,o),
(361,547,cs),
(372,610,o),
(298,623,o),
(287,559,cs),
(281,526,o),
(257,509,o),
(215,508,c),
(111,443,l),
(51,326,l),
(51,275,o),
(51,220,o),
(51,162,c),
(127,37,l),
(169,18,o),
(187,-7,o),
(182,-38,cs),
(170,-102,o),
(244,-114,o),
(255,-54,cs),
(260,-24,o),
(265,-9,o),
(270,-10,c),
(279,-10,o),
(313,-10,o),
(371,-10,c),
(488,96,l),
(495,157,o),
(487,188,o),
(463,188,cs),
(439,188,o),
(421,168,o),
(409,128,c),
(340,67,l)
);
},
{
closed = 1;
nodes = (
(131,231,o),
(131,275,o),
(131,327,c),
(207,424,l),
(283,435,o),
(215,82,o),
(170,113,c),
(131,194,l)
);
}
);
width = 550;
}
);
unicode = 162;
},
{
color = 6;
glyphname = currency;
layers = (
{
layerId = "DA2C6654-D585-4A87-87E3-B198D23B8793";
shapes = (
{
closed = 1;
nodes = (
(459,291,o),
(459,329,o),
(459,367,c),
(438,398,o),
(440,426,o),
(466,452,cs),
(518,503,o),
(468,553,o),
(417,502,cs),
(391,476,o),
(362,473,o),
(329,494,c),
(293,494,o),
(256,494,o),
(218,494,c),
(187,473,o),
(159,475,o),
(133,501,cs),
(81,553,o),
(32,503,o),
(84,452,cs),
(109,426,o),
(112,398,o),
(91,368,c),
(91,329,o),
(91,291,o),
(91,252,c),
(112,222,o),
(109,194,o),
(84,169,cs),
(32,117,o),
(81,67,o),
(133,119,cs),
(159,144,o),
(188,147,o),
(219,126,c),
(256,126,o),
(293,126,o),
(329,126,c),
(362,147,o),
(391,144,o),
(417,119,cs),
(468,67,o),
(518,117,o),
(466,169,cs),
(440,194,o),
(438,222,o),
(459,253,c)
);
},
{
closed = 1;
nodes = (
(291,198,o),
(260,198,o),
(229,198,c),
(163,264,l),
(163,295,o),
(163,326,o),
(163,357,c),
(229,422,l),
(260,422,o),
(291,422,o),
(322,422,c),
(387,357,l),
(387,326,o),
(387,295,o),
(387,264,c),
(322,198,l)
);
}
);
width = 550;
}
);
unicode = 164;
},
{
color = 6;
glyphname = dollar;
layers = (
{
layerId = "DA2C6654-D585-4A87-87E3-B198D23B8793";
shapes = (
{
closed = 1;
nodes = (
(325,346,o),
(270,356,o),
(223,365,c),
(156,400,l),
(156,422,o),
(156,443,o),
(156,462,c),
(208,496,l),
(241,496,o),
(295,496,o),
(371,496,c),
(380,442,o),
(397,415,o),
(420,415,cs),
(443,415,o),
(454,433,o),
(453,469,c),
(400,545,l),
(366,556,o),
(353,583,o),
(360,625,cs),
(375,709,o),
(301,722,o),
(286,638,cs),
(279,596,o),
(273,575,o),
(268,575,cs),
(263,575,o),
(231,575,o),
(173,575,c),
(76,494,l),
(76,451,o),
(76,408,o),
(76,363,c),
(184,292,l),
(247,281,o),
(301,272,o),
(348,264,c),
(404,231,l),
(404,207,o),
(404,185,o),
(404,166,c),
(355,132,l),
(321,132,o),
(280,132,o),
(233,132,c),
(151,185,l),
(144,212,o),
(129,226,o),
(104,226,cs),
(79,226,o),
(66,220,o),
(65,208,c),
(87,151,l),
(142,93,l),
(172,81,o),
(183,53,o),
(176,8,cs),
(160,-81,o),
(233,-94,o),
(249,-7,cs),
(256,36,o),
(267,57,o),
(282,55,c),
(300,55,o),
(336,55,o),
(391,55,c),
(484,131,l),
(484,174,o),
(484,219,o),
(484,267,c),
(388,334,l)
);
}
);
width = 550;
}
);
unicode = 36;
},
{
color = 6;
glyphname = euro;
layers = (
{
layerId = "DA2C6654-D585-4A87-87E3-B198D23B8793";
shapes = (
{
closed = 1;
nodes = (
(453,217,o),
(438,192,o),
(434,141,c),
(367,65,l),
(322,65,o),
(275,65,o),
(227,65,c),
(145,149,l),
(136,204,o),
(153,232,o),
(196,232,cs),
(280,232,o),
(342,292,o),
(219,292,cs),
(157,292,o),
(126,296,o),
(125,303,c),
(125,318,o),
(125,328,o),
(125,334,cs),
(125,339,o),
(165,342,o),
(245,342,cs),
(405,342,o),
(465,402,o),
(273,402,cs),
(177,402,o),
(133,432,o),
(141,493,c),
(223,585,l),
(274,585,o),
(321,585,o),
(365,585,c),
(435,512,l),
(444,463,o),
(459,451,o),
(480,475,cs),
(501,498,o),
(496,560,o),
(466,660,c),
(355,660,o),
(261,660,o),
(186,660,c),
(63,525,l),
(54,442,o),
(39,391,o),
(20,372,cs),
(0,352,o),
(-1,342,o),
(18,342,cs),
(36,342,o),
(45,339,o),
(45,334,cs),
(45,328,o),
(45,317,o),
(45,300,c),
(46,292,o),
(37,279,o),
(18,260,cs),
(-1,241,o),
(0,232,o),
(21,232,cs),
(41,232,o),
(56,193,o),
(67,116,c),
(190,-10,l),
(263,-10,o),
(334,-10,o),
(405,-10,c),
(515,109,l),
(515,181,o),
(503,217,o),
(478,217,cs)
);
}
);
width = 550;
}
);
unicode = 8364;
},
{
color = 6;
glyphname = florin;
layers = (
{
layerId = "DA2C6654-D585-4A87-87E3-B198D23B8793";
shapes = (
{
closed = 1;
nodes = (
(374,585,o),
(395,585,o),
(416,585,c),
(456,534,l),
(456,501,o),
(469,484,o),
(496,484,cs),
(523,484,o),
(536,502,o),
(536,537,c),
(496,617,l),
(427,660,l),
(399,660,o),
(361,660,o),
(314,660,c),
(235,566,l),
(235,511,o),
(235,470,o),
(235,443,cs),
(235,416,o),
(215,402,o),
(174,402,cs),
(133,402,o),
(113,392,o),
(113,372,cs),
(113,352,o),
(133,342,o),
(174,342,cs),
(215,342,o),
(235,313,o),
(235,255,cs),
(235,196,o),
(235,150,o),
(234,116,c),
(197,65,l),
(175,65,o),
(154,65,o),
(133,65,c),
(93,117,l),
(93,150,o),
(80,167,o),
(53,167,cs),
(26,167,o),
(13,149,o),
(13,114,c),
(53,33,l),
(122,-10,l),
(150,-10,o),
(188,-10,o),
(235,-10,c),
(314,85,l),
(315,140,o),
(315,196,o),
(315,255,cs),
(315,313,o),
(336,342,o),
(379,342,cs),
(422,342,o),
(443,352,o),
(443,372,cs),
(443,392,o),
(422,402,o),
(379,402,cs),
(336,402,o),
(315,416,o),
(315,443,cs),
(315,470,o),
(315,501,o),
(315,535,c),
(352,585,l)
);
}
);
width = 550;
}
);
unicode = 402;
},
{
color = 6;
glyphname = sterling;
layers = (
{
layerId = "DA2C6654-D585-4A87-87E3-B198D23B8793";
shapes = (
{
closed = 1;
nodes = (
(274,185,o),
(274,211,o),
(274,231,c),
(267,252,o),
(283,262,o),
(322,262,cs),
(361,262,o),
(380,272,o),
(380,292,cs),
(380,312,o),
(356,322,o),
(308,322,cs),
(260,322,o),
(235,325,o),
(232,330,c),
(203,384,l),
(179,448,l),
(179,472,o),
(179,500,o),
(179,533,c),
(241,585,l),
(270,585,o),
(300,585,o),
(329,585,c),
(390,528,l),
(390,499,o),
(403,484,o),
(430,484,cs),
(457,484,o),
(470,500,o),
(470,533,c),
(424,614,l),
(340,660,l),
(303,660,o),
(267,660,o),
(232,660,c),
(147,617,l),
(99,537,l),
(99,502,o),
(99,471,o),
(99,446,c),
(128,366,l),
(144,337,o),
(140,322,o),
(116,322,cs),
(92,322,o),
(80,312,o),
(80,292,cs),
(80,272,o),
(97,262,o),
(131,262,cs),
(165,262,o),
(187,252,o),
(196,231,c),
(196,211,o),
(196,188,o),
(196,163,c),
(158,107,l),
(111,73,l),
(111,74,o),
(111,63,o),
(111,38,cs),
(111,13,o),
(169,0,o),
(286,0,cs),
(403,0,o),
(461,13,o),
(461,38,cs),
(461,63,o),
(417,75,o),
(329,75,cs),
(240,75,o),
(205,80,o),
(223,91,c),
(274,152,l)
);
}
);
width = 550;
}
);
unicode = 163;
},
{
color = 6;
glyphname = yen;
layers = (
{
layerId = "DA2C6654-D585-4A87-87E3-B198D23B8793";
shapes = (
{
closed = 1;
nodes = (
(493,584,o),
(510,650,o),
(480,650,cs),
(450,650,o),
(409,593,o),
(356,478,cs),
(303,363,o),
(250,363,o),
(196,478,cs),
(142,593,o),
(100,650,o),
(70,650,cs),
(40,650,o),
(58,584,o),
(123,452,cs),
(188,319,o),
(200,253,o),
(159,253,cs),
(118,253,o),
(97,243,o),
(97,223,cs),
(97,203,o),
(147,193,o),
(247,193,cs),
(347,193,o),
(397,203,o),
(397,223,cs),
(397,243,o),
(386,253,o),
(364,253,cs),
(341,253,o),
(363,319,o),
(428,452,cs)
);
},
{
closed = 1;
nodes = (
(97,93,o),
(120,83,o),
(166,83,cs),
(212,83,o),
(235,69,o),
(235,42,cs),
(235,14,o),
(248,0,o),
(275,0,cs),
(302,0,o),
(315,14,o),
(315,42,cs),
(315,69,o),
(329,83,o),
(356,83,cs),
(383,83,o),
(397,93,o),
(397,113,cs),
(397,133,o),
(347,143,o),
(247,143,cs),
(147,143,o),
(97,133,o),
(97,113,cs)
);
}
);
width = 550;
}
);
unicode = 165;
},
{
color = 6;
glyphname = plus;
layers = (
{
layerId = "DA2C6654-D585-4A87-87E3-B198D23B8793";
shapes = (
{
closed = 1;
nodes = (
(455,293,o),
(431,305,o),
(383,305,cs),
(334,305,o),
(310,329,o),
(310,378,cs),
(310,426,o),
(298,450,o),
(275,450,cs),
(252,450,o),
(240,426,o),
(240,378,cs),
(240,329,o),
(216,305,o),
(168,305,cs),
(119,305,o),
(95,293,o),
(95,270,cs),
(95,247,o),
(119,235,o),
(168,235,cs),
(216,235,o),
(240,211,o),
(240,163,cs),
(240,114,o),
(252,90,o),
(275,90,cs),
(298,90,o),
(310,114,o),
(310,163,cs),
(310,211,o),
(334,235,o),
(383,235,cs),
(431,235,o),
(455,247,o),
(455,270,cs)
);
}
);
width = 550;
}
);
unicode = 43;
},
{
color = 6;
glyphname = minus;
layers = (
{
layerId = "DA2C6654-D585-4A87-87E3-B198D23B8793";
shapes = (
{
closed = 1;
nodes = (
(162,307,o),
(105,295,o),
(105,270,cs),
(105,245,o),
(162,233,o),
(275,233,cs),
(388,233,o),
(445,245,o),
(445,270,cs),
(445,295,o),
(388,307,o),
(275,307,cs)
);
}
);
width = 550;
}
);
unicode = 8722;
},
{
color = 6;
glyphname = multiply;
layers = (
{
layerId = "DA2C6654-D585-4A87-87E3-B198D23B8793";
shapes = (
{
closed = 1;
nodes = (
(444,390,o),
(395,439,o),
(327,371,cs),
(292,336,o),
(258,336,o),
(224,371,cs),
(155,439,o),
(106,390,o),
(175,322,cs),
(209,287,o),
(209,253,o),
(175,219,cs),
(106,150,o),
(155,101,o),
(224,170,cs),
(258,204,o),
(292,204,o),
(327,170,cs),
(395,101,o),
(444,150,o),
(376,219,cs),
(341,253,o),
(341,287,o),
(376,322,cs)
);
}
);
width = 550;
}
);
unicode = 215;
},
{
color = 6;
glyphname = divide;
layers = (
{
layerId = "DA2C6654-D585-4A87-87E3-B198D23B8793";
shapes = (
{
closed = 1;
nodes = (
(327,438,o),
(310,454,o),
(275,454,cs),
(240,454,o),
(223,438,o),
(223,405,cs),
(223,372,o),
(240,356,o),
(275,356,cs),
(310,356,o),
(327,372,o),
(327,405,cs)
);
},
{
closed = 1;
nodes = (
(148,307,o),
(85,295,o),
(85,270,cs),
(85,245,o),
(148,233,o),
(275,233,cs),
(402,233,o),
(465,245,o),
(465,270,cs),
(465,295,o),
(402,307,o),
(275,307,cs)
);
},
{
closed = 1;
nodes = (
(327,166,o),
(310,182,o),
(275,182,cs),
(240,182,o),
(223,166,o),
(223,134,cs),
(223,101,o),
(240,85,o),
(275,85,cs),
(310,85,o),
(327,101,o),
(327,134,cs)
);
}
);
width = 550;
}
);
unicode = 247;
},
{
color = 6;
glyphname = equal;
layers = (
{
layerId = "DA2C6654-D585-4A87-87E3-B198D23B8793";
shapes = (
{
closed = 1;
nodes = (
(145,405,o),
(80,393,o),
(80,368,cs),
(80,343,o),
(145,330,o),
(275,330,cs),
(405,330,o),
(470,343,o),
(470,368,cs),
(470,393,o),
(405,405,o),
(275,405,cs)
);
},
{
closed = 1;
nodes = (
(145,225,o),
(80,213,o),
(80,188,cs),
(80,163,o),
(145,150,o),
(275,150,cs),
(405,150,o),
(470,163,o),
(470,188,cs),
(470,213,o),
(405,225,o),
(275,225,cs)
);
}
);
width = 550;
}
);
unicode = 61;
},
{
color = 6;
glyphname = notequal;
layers = (
{
layerId = "DA2C6654-D585-4A87-87E3-B198D23B8793";
shapes = (
{
closed = 1;
nodes = (
(446,330,o),
(470,343,o),
(470,368,cs),
(470,393,o),
(449,405,o),
(407,405,cs),
(364,405,o),
(348,424,o),
(359,463,cs),
(379,540,o),
(316,561,o),
(292,472,cs),
(280,427,o),
(242,405,o),
(177,405,cs),
(112,405,o),
(80,393,o),
(80,368,cs),
(80,343,o),
(109,330,o),
(167,330,cs),
(283,330,o),
(250,225,o),
(153,225,cs),
(104,225,o),
(80,213,o),
(80,188,cs),
(80,163,o),
(101,150,o),
(143,150,cs),
(185,150,o),
(201,132,o),
(191,95,cs),
(171,21,o),
(234,1,o),
(257,86,cs),
(268,129,o),
(307,150,o),
(372,150,cs),
(437,150,o),
(470,163,o),
(470,188,cs),
(470,213,o),
(441,225,o),
(382,225,cs),
(265,225,o),
(299,330,o),
(397,330,cs)
);
}
);
width = 550;
}
);
unicode = 8800;
},
{
color = 6;
glyphname = greater;
layers = (
{
layerId = "DA2C6654-D585-4A87-87E3-B198D23B8793";
shapes = (
{
closed = 1;
nodes = (
(80,553,o),
(47,481,o),
(236,373,cs),
(330,318,o),
(330,264,o),
(236,210,cs),
(141,155,o),
(101,117,o),
(114,94,cs),
(141,48,o),
(456,230,o),
(456,291,cs),
(456,321,o),
(402,367,o),
(295,429,cs)
);
}
);
width = 550;
}
);
unicode = 62;
},
{
color = 6;
glyphname = less;
layers = (
{
layerId = "DA2C6654-D585-4A87-87E3-B198D23B8793";
shapes = (
{
closed = 1;
nodes = (
(148,367,o),
(94,321,o),
(94,291,cs),
(94,230,o),
(409,48,o),
(436,94,cs),
(449,117,o),
(409,155,o),
(314,210,cs),
(220,264,o),
(220,318,o),
(314,373,cs),
(503,481,o),
(470,553,o),
(255,429,cs)
);
}
);
width = 550;
}
);
unicode = 60;
},
{
color = 6;
glyphname = greaterequal;
layers = (
{
layerId = "DA2C6654-D585-4A87-87E3-B198D23B8793";
shapes = (
{
closed = 1;
nodes = (
(93,559,o),
(62,486,o),
(242,382,cs),
(332,330,o),
(331,285,o),
(239,247,cs),
(146,209,o),
(105,178,o),
(114,153,cs),
(132,103,o),
(469,236,o),
(469,297,cs),
(469,327,o),
(415,373,o),
(308,435,cs)
);
},
{
closed = 1;
nodes = (
(110,3,o),
(167,-10,o),
(280,-10,cs),
(393,-10,o),
(450,3,o),
(450,28,cs),
(450,53,o),
(393,65,o),
(280,65,cs),
(167,65,o),
(110,53,o),
(110,28,cs)
);
}
);
width = 550;
}
);
unicode = 8805;
},
{
color = 6;
glyphname = lessequal;
layers = (
{
layerId = "DA2C6654-D585-4A87-87E3-B198D23B8793";
shapes = (
{
closed = 1;
nodes = (
(135,373,o),
(81,327,o),
(81,297,cs),
(81,236,o),
(418,103,o),
(436,153,cs),
(445,178,o),
(404,209,o),
(311,247,cs),
(219,285,o),
(218,330,o),
(308,382,cs),
(488,486,o),
(457,559,o),
(242,435,cs)
);
},
{
closed = 1;
nodes = (
(440,53,o),
(383,65,o),
(270,65,cs),
(157,65,o),
(100,53,o),
(100,28,cs),
(100,3,o),
(157,-10,o),
(270,-10,cs),
(383,-10,o),
(440,3,o),
(440,28,cs)
);
}
);
width = 550;
}
);
unicode = 8804;
},
{
color = 6;
glyphname = plusminus;
layers = (
{
layerId = "DA2C6654-D585-4A87-87E3-B198D23B8793";
shapes = (
{
closed = 1;
nodes = (
(334,325,o),
(310,346,o),
(310,388,cs),
(310,429,o),
(298,450,o),
(275,450,cs),
(252,450,o),
(240,429,o),
(240,388,cs),
(240,346,o),
(216,325,o),
(168,325,cs),
(119,325,o),
(95,313,o),
(95,290,cs),
(95,267,o),
(119,255,o),
(168,255,cs),
(216,255,o),
(240,234,o),
(240,193,cs),
(240,151,o),
(252,130,o),
(275,130,cs),
(298,130,o),
(310,151,o),
(310,193,cs),
(310,234,o),
(334,255,o),
(383,255,cs),
(431,255,o),
(455,267,o),
(455,290,cs),
(455,313,o),
(431,325,o),
(383,325,cs)
);
},
{
closed = 1;
nodes = (
(105,3,o),
(162,-10,o),
(275,-10,cs),
(388,-10,o),
(445,3,o),
(445,28,cs),
(445,53,o),
(388,65,o),
(275,65,cs),
(162,65,o),
(105,53,o),
(105,28,cs)
);
}
);
width = 550;
}
);
unicode = 177;
},
{
color = 6;
glyphname = approxequal;
layers = (
{
layerId = "DA2C6654-D585-4A87-87E3-B198D23B8793";
shapes = (
{
closed = 1;
nodes = (
(413,428,o),
(402,411,o),
(402,376,c),
(374,376,o),
(355,376,o),
(344,376,c),
(315,391,l),
(300,402,o),
(283,414,o),
(264,427,c),
(218,448,l),
(199,448,o),
(172,448,o),
(138,448,c),
(80,390,l),
(80,358,o),
(80,337,o),
(80,328,c),
(81,323,o),
(92,320,o),
(114,320,cs),
(136,320,o),
(147,327,o),
(147,341,c),
(174,372,l),
(191,372,o),
(205,372,o),
(216,372,c),
(247,356,l),
(261,346,o),
(277,334,o),
(296,321,c),
(341,300,l),
(360,300,o),
(385,300,o),
(415,300,c),
(470,358,l),
(470,390,o),
(470,411,o),
(470,420,c),
(469,425,o),
(457,428,o),
(435,428,cs)
);
},
{
closed = 1;
nodes = (
(413,251,o),
(402,234,o),
(402,199,c),
(374,199,o),
(355,199,o),
(344,199,c),
(315,214,l),
(300,225,o),
(283,237,o),
(264,250,c),
(218,271,l),
(199,271,o),
(172,271,o),
(138,271,c),
(80,213,l),
(80,181,o),
(80,160,o),
(80,151,c),
(81,146,o),
(92,143,o),
(114,143,cs),
(136,143,o),
(147,150,o),
(147,164,c),
(174,195,l),
(191,195,o),
(205,195,o),
(216,195,c),
(247,179,l),
(261,169,o),
(277,157,o),
(296,144,c),
(341,123,l),
(360,123,o),
(385,123,o),
(415,123,c),
(470,181,l),
(470,213,o),
(470,234,o),
(470,243,c),
(469,248,o),
(457,251,o),
(435,251,cs)
);
}
);
width = 550;
}
);
unicode = 8776;
},
{
color = 6;
glyphname = logicalnot;
layers = (
{
layerId = "DA2C6654-D585-4A87-87E3-B198D23B8793";
shapes = (
{
closed = 1;
nodes = (
(480,364,o),
(412,405,o),
(275,405,cs),
(138,405,o),
(70,393,o),
(70,368,cs),
(70,343,o),
(125,330,o),
(235,330,cs),
(345,330,o),
(400,302,o),
(400,245,cs),
(400,188,o),
(413,160,o),
(440,160,cs),
(467,160,o),
(480,201,o),
(480,283,cs)
);
}
);
width = 550;
}
);
unicode = 172;
},
{
color = 6;
glyphname = emptyset;
layers = (
{
layerId = "DA2C6654-D585-4A87-87E3-B198D23B8793";
shapes = (
{
closed = 1;
nodes = (
(448,497,o),
(448,531,o),
(473,574,cs),
(521,659,o),
(461,693,o),
(415,613,cs),
(392,573,o),
(364,562,o),
(333,579,c),
(294,579,o),
(252,579,o),
(206,579,c),
(98,505,l),
(39,378,l),
(39,327,o),
(39,281,o),
(39,240,c),
(79,133,l),
(103,107,o),
(103,73,o),
(78,31,cs),
(29,-54,o),
(91,-88,o),
(137,-8,cs),
(160,31,o),
(187,43,o),
(219,26,c),
(256,26,o),
(298,26,o),
(345,26,c),
(453,100,l),
(512,226,l),
(512,277,o),
(512,323,o),
(512,364,c),
(472,472,l)
);
},
{
closed = 1;
nodes = (
(111,274,o),
(111,321,o),
(111,359,c),
(151,452,l),
(225,507,l),
(258,507,o),
(287,507,o),
(312,507,c),
(355,486,o),
(167,141,o),
(111,218,c)
);
},
{
closed = 1;
nodes = (
(292,98,o),
(263,98,o),
(239,98,c),
(196,119,o),
(384,463,o),
(440,388,c),
(440,331,o),
(440,283,o),
(440,246,c),
(400,152,l),
(325,98,l)
);
}
);
width = 550;
}
);
unicode = 8709;
},
{
color = 6;
glyphname = infinity;
layers = (
{
layerId = "DA2C6654-D585-4A87-87E3-B198D23B8793";
shapes = (
{
closed = 1;
nodes = (
(415,510,o),
(379,510,o),
(350,510,c),
(294,451,l),
(281,416,o),
(268,417,o),
(255,452,c),
(199,510,l),
(170,510,o),
(134,510,o),
(91,510,c),
(15,389,l),
(15,330,o),
(15,270,o),
(15,210,c),
(91,89,l),
(134,89,o),
(170,89,o),
(199,89,c),
(255,148,l),
(268,183,o),
(281,182,o),
(294,147,c),
(350,88,l),
(379,88,o),
(415,88,o),
(458,88,c),
(534,209,l),
(534,269,o),
(534,329,o),
(534,389,c),
(458,510,l)
);
},
{
closed = 1;
nodes = (
(404,160,o),
(382,160,o),
(361,160,c),
(325,228,l),
(312,276,o),
(311,323,o),
(324,369,c),
(361,438,l),
(382,438,o),
(404,438,o),
(427,438,c),
(462,361,l),
(462,320,o),
(462,279,o),
(462,238,c),
(427,160,l)
);
},
{
closed = 1;
nodes = (
(167,161,o),
(145,161,o),
(122,161,c),
(87,239,l),
(87,280,o),
(87,320,o),
(87,361,c),
(122,437,l),
(145,437,o),
(167,437,o),
(188,437,c),
(225,368,l),
(238,322,o),
(238,276,o),
(225,230,c),
(188,161,l)
);
}
);
width = 550;
}
);
unicode = 8734;
},
{
color = 6;
glyphname = integral;
layers = (
{
layerId = "DA2C6654-D585-4A87-87E3-B198D23B8793";
shapes = (
{
closed = 1;
nodes = (
(422,760,o),
(380,760,o),
(327,760,c),
(236,676,l),
(236,619,o),
(236,502,o),
(236,325,cs),
(236,148,o),
(236,29,o),
(236,-32,c),
(176,-31,o),
(130,-30,o),
(98,-30,cs),
(66,-30,o),
(50,-43,o),
(50,-70,cs),
(50,-97,o),
(66,-110,o),
(98,-110,cs),
(130,-110,o),
(172,-110,o),
(225,-110,c),
(316,-26,l),
(316,31,o),
(316,148,o),
(316,325,cs),
(316,502,o),
(316,621,o),
(316,682,c),
(376,681,o),
(422,680,o),
(454,680,cs),
(485,680,o),
(501,693,o),
(501,720,cs),
(501,747,o),
(485,760,o),
(454,760,cs)
);
}
);
width = 550;
}
);
unicode = 8747;
},
{
color = 6;
glyphname = product;
layers = (
{
layerId = "DA2C6654-D585-4A87-87E3-B198D23B8793";
shapes = (
{
closed = 1;
nodes = (
(515,637,o),
(435,650,o),
(275,650,cs),
(115,650,o),
(35,637,o),
(35,612,cs),
(35,586,o),
(52,573,o),
(85,573,cs),
(118,573,o),
(135,478,o),
(135,287,cs),
(135,96,o),
(148,0,o),
(175,0,cs),
(202,0,o),
(215,96,o),
(215,287,cs),
(215,478,o),
(235,573,o),
(275,573,cs),
(315,573,o),
(335,478,o),
(335,287,cs),
(335,96,o),
(348,0,o),
(375,0,cs),
(402,0,o),
(415,96,o),
(415,287,cs),
(415,478,o),
(432,573,o),
(465,573,cs),
(498,573,o),
(515,586,o),
(515,612,cs)
);
}
);
width = 550;
}
);
unicode = 8719;
},
{
color = 6;
glyphname = summation;
layers = (
{
layerId = "DA2C6654-D585-4A87-87E3-B198D23B8793";
shapes = (
{
closed = 1;
nodes = (
(485,638,o),
(415,650,o),
(275,650,cs),
(135,650,o),
(65,637,o),
(65,611,cs),
(65,584,o),
(99,529,o),
(167,445,cs),
(234,360,o),
(234,277,o),
(167,196,cs),
(99,114,o),
(65,61,o),
(65,37,cs),
(65,12,o),
(135,0,o),
(275,0,cs),
(415,0,o),
(485,13,o),
(485,38,cs),
(485,63,o),
(431,75,o),
(324,75,cs),
(216,75,o),
(195,115,o),
(262,196,cs),
(329,277,o),
(328,360,o),
(261,446,cs),
(194,532,o),
(214,575,o),
(323,575,cs),
(431,575,o),
(485,588,o),
(485,613,cs)
);
}
);
width = 550;
}
);
unicode = 8721;
},
{
color = 6;
glyphname = radical;
layers = (
{
layerId = "DA2C6654-D585-4A87-87E3-B198D23B8793";
shapes = (
{
closed = 1;
nodes = (
(529,638,o),
(499,650,o),
(439,650,cs),
(379,650,o),
(333,564,o),
(301,393,cs),
(268,222,o),
(231,197,o),
(189,318,cs),
(146,439,o),
(111,500,o),
(82,500,cs),
(24,500,o),
(215,0,o),
(265,0,cs),
(290,0,o),
(321,96,o),
(360,288,cs),
(398,479,o),
(436,575,o),
(473,575,cs),
(510,575,o),
(529,588,o),
(529,613,cs)
);
}
);
width = 550;
}
);
unicode = 8730;
},
{
color = 6;
glyphname = micro;
layers = (
{
layerId = "DA2C6654-D585-4A87-87E3-B198D23B8793";
shapes = (
{
closed = 1;
nodes = (
(467,118,o),
(467,191,o),
(467,315,cs),
(467,438,o),
(454,500,o),
(427,500,cs),
(400,500,o),
(387,451,o),
(387,354,cs),
(387,257,o),
(382,191,o),
(373,156,c),
(302,70,l),
(256,70,o),
(196,70,o),
(123,70,c),
(123,149,o),
(123,240,o),
(123,344,cs),
(123,448,o),
(110,500,o),
(83,500,cs),
(56,500,o),
(43,383,o),
(43,150,cs),
(43,-83,o),
(56,-200,o),
(83,-200,cs),
(110,-200,o),
(123,-160,o),
(123,-81,cs),
(123,-2,o),
(134,22,o),
(155,-10,c),
(196,-10,o),
(243,-10,o),
(296,-10,c),
(373,98,l),
(382,144,o),
(387,159,o),
(387,143,cs),
(387,127,o),
(387,100,o),
(387,63,c),
(462,-10,l),
(507,-10,o),
(530,3,o),
(530,30,cs),
(530,57,o),
(520,70,o),
(499,70,c),
(467,96,l)
);
}
);
width = 550;
}
);
unicode = 181;
},
{
color = 6;
glyphname = partialdiff;
layers = (
{
layerId = "DA2C6654-D585-4A87-87E3-B198D23B8793";
shapes = (
{
closed = 1;
nodes = (
(267,665,o),
(143,699,o),
(134,676,c),
(124,653,o),
(186,618,o),
(320,569,c),
(365,488,o),
(373,468,o),
(343,510,c),
(284,510,o),
(234,510,o),
(193,510,c),
(101,443,l),
(51,324,l),
(51,274,o),
(51,210,o),
(51,133,c),
(169,-10,l),
(240,-10,o),
(300,-10,o),
(349,-10,c),
(453,67,l),
(505,188,l),
(505,231,o),
(505,361,o),
(505,576,c)
);
},
{
closed = 1;
nodes = (
(299,67,o),
(252,67,o),
(206,67,c),
(131,167,l),
(131,222,o),
(131,277,o),
(131,333,c),
(203,433,l),
(251,433,o),
(299,433,o),
(348,433,c),
(425,334,l),
(425,277,o),
(425,223,o),
(425,170,c),
(348,67,l)
);
}
);
width = 550;
}
);
unicode = 8706;
},
{
color = 6;
glyphname = percent;
layers = (
{
layerId = "DA2C6654-D585-4A87-87E3-B198D23B8793";
shapes = (
{
closed = 1;
nodes = (
(365,712,o),
(111,-31,o),
(149,-46,cs),
(187,-61,o),
(444,686,o),
(405,699,cs)
);
},
{
closed = 1;
nodes = (
(115,336,o),
(151,336,o),
(186,336,c),
(246,426,l),
(246,474,o),
(246,523,o),
(246,572,c),
(187,660,l),
(151,660,o),
(115,660,o),
(79,660,c),
(20,572,l),
(20,523,o),
(20,474,o),
(20,425,c),
(79,336,l)
);
},
{
closed = 1;
nodes = (
(146,410,o),
(120,410,o),
(94,410,c),
(94,469,o),
(94,528,o),
(94,587,c),
(120,587,o),
(146,587,o),
(172,587,c),
(172,528,o),
(172,469,o),
(172,410,c)
);
},
{
closed = 1;
nodes = (
(400,-10,o),
(436,-10,o),
(472,-10,c),
(531,79,l),
(531,128,o),
(531,176,o),
(531,225,c),
(472,314,l),
(436,314,o),
(400,314,o),
(364,314,c),
(305,225,l),
(305,176,o),
(305,128,o),
(305,79,c),
(364,-10,l)
);
},
{
closed = 1;
nodes = (
(431,63,o),
(405,63,o),
(379,63,c),
(379,122,o),
(379,181,o),
(379,240,c),
(405,240,o),
(431,240,o),
(457,240,c),
(457,181,o),
(457,122,o),
(457,63,c)
);
}
);
width = 550;
}
);
unicode = 37;
},
{
color = 6;
glyphname = perthousand;
layers = (
{
layerId = "DA2C6654-D585-4A87-87E3-B198D23B8793";
shapes = (
{
closed = 1;
nodes = (
(365,712,o),
(111,-31,o),
(149,-46,cs),
(187,-61,o),
(443,686,o),
(404,699,cs)
);
},
{
closed = 1;
nodes = (
(115,336,o),
(151,336,o),
(186,336,c),
(246,426,l),
(246,474,o),
(246,523,o),
(246,572,c),
(187,660,l),
(151,660,o),
(115,660,o),
(79,660,c),
(20,572,l),
(20,523,o),
(20,474,o),
(20,425,c),
(79,336,l)
);
},
{
closed = 1;
nodes = (
(146,410,o),
(120,410,o),
(94,410,c),
(94,469,o),
(94,528,o),
(94,587,c),
(120,587,o),
(146,587,o),
(172,587,c),
(172,528,o),
(172,469,o),
(172,410,c)
);
},
{
closed = 1;
nodes = (
(412,133,o),
(444,133,o),
(475,133,c),
(531,195,l),
(531,228,o),
(531,262,o),
(531,295,c),
(475,357,l),
(444,357,o),
(412,357,o),
(381,357,c),
(325,294,l),
(325,261,o),
(325,229,o),
(325,196,c),
(381,133,l)
);
},
{
closed = 1;
nodes = (
(439,197,o),
(417,197,o),
(394,197,c),
(394,229,o),
(394,261,o),
(394,292,c),
(417,292,o),
(439,292,o),
(462,292,c),
(462,261,o),
(462,229,o),
(462,197,c)
);
},
{
closed = 1;
nodes = (
(331,-116,o),
(362,-116,o),
(393,-116,c),
(449,-53,l),
(449,-20,o),
(449,13,o),
(449,46,c),
(393,108,l),
(362,108,o),
(330,108,o),
(299,108,c),
(244,46,l),
(244,13,o),
(244,-20,o),
(244,-53,c),
(300,-116,l)
);
},
{
closed = 1;
nodes = (
(357,-52,o),
(341,-52,o),
(330,-52,c),
(312,-27,l),
(312,-12,o),
(312,12,o),
(312,44,c),
(335,44,o),
(357,44,o),
(380,44,c),
(380,12,o),
(380,-20,o),
(380,-52,c)
);
}
);
width = 550;
}
);
unicode = 8240;
},
{
color = 6;
glyphname = arrowup;
layers = (
{
layerId = "DA2C6654-D585-4A87-87E3-B198D23B8793";
shapes = (
{
closed = 1;
nodes = (
(311,667,o),
(239,667,o),
(166,601,cs),
(21,469,o),
(85,422,o),
(194,521,cs),
(248,570,o),
(302,570,o),
(357,521,cs),
(465,422,o),
(529,469,o),
(384,601,cs)
);
},
{
closed = 1;
nodes = (
(250,510,o),
(237,428,o),
(237,265,cs),
(237,102,o),
(250,20,o),
(275,20,cs),
(300,20,o),
(312,102,o),
(312,265,cs),
(312,428,o),
(300,510,o),
(275,510,cs)
);
}
);
width = 550;
}
);
unicode = 8593;
},
{
color = 6;
glyphname = northEastArrow;
layers = (
{
layerId = "DA2C6654-D585-4A87-87E3-B198D23B8793";
shapes = (
{
closed = 1;
nodes = (
(120.339,514.097,o),
(132.36,435.61,o),
(278.728,429.247,cs),
(352.265,425.004,o),
(390.448,386.821,o),
(393.983,313.991,cs),
(398.226,240.454,o),
(412.368,203.685,o),
(438.53,204.392,c),
(490.148,203.685,o),
(512.067,495.713,o),
(316.203,504.905,cs)
);
},
{
closed = 1;
nodes = (
(310.547,381.872,o),
(263.879,352.174,o),
(188.22,276.515,cs),
(111.854,200.149,o),
(82.157,153.482,o),
(99.834,135.804,cs),
(117.511,118.127,o),
(164.886,147.118,o),
(241.252,223.483,cs),
(316.91,299.142,o),
(345.901,346.517,o),
(328.224,364.194,cs)
);
}
);
width = 550;
}
);
unicode = 8599;
},
{
color = 6;
glyphname = arrowright;
layers = (
{
layerId = "DA2C6654-D585-4A87-87E3-B198D23B8793";
shapes = (
{
closed = 1;
nodes = (
(327,533,o),
(280,469,o),
(379,361,cs),
(428,306,o),
(428,252,o),
(379,198,cs),
(330,143,o),
(314,107,o),
(333,89,c),
(369,52,o),
(591,243,o),
(459,388,cs)
);
},
{
closed = 1;
nodes = (
(368,305,o),
(314,317,o),
(207,317,cs),
(99,317,o),
(45,305,o),
(45,280,cs),
(45,255,o),
(99,242,o),
(207,242,cs),
(314,242,o),
(368,255,o),
(368,280,cs)
);
}
);
width = 550;
}
);
unicode = 8594;
},
{
color = 6;
glyphname = southEastArrow;
layers = (
{
layerId = "DA2C6654-D585-4A87-87E3-B198D23B8793";
shapes = (
{
closed = 1;
nodes = (
(479.097,437.661,o),
(400.61,425.64,o),
(394.247,279.272,cs),
(390.004,205.735,o),
(351.821,167.552,o),
(278.991,164.017,cs),
(205.454,159.774,o),
(168.685,145.632,o),
(169.392,119.47,c),
(168.685,67.852,o),
(460.713,45.933,o),
(469.905,241.797,cs)
);
},
{
closed = 1;
nodes = (
(346.872,247.453,o),
(317.174,294.121,o),
(241.515,369.78,cs),
(165.149,446.146,o),
(118.482,475.843,o),
(100.804,458.166,cs),
(83.127,440.489,o),
(112.118,393.114,o),
(188.483,316.748,cs),
(264.142,241.09,o),
(311.517,212.099,o),
(329.194,229.776,cs)
);
}
);
width = 550;
}
);
unicode = 8600;
},
{
color = 6;
glyphname = arrowdown;
layers = (
{
layerId = "DA2C6654-D585-4A87-87E3-B198D23B8793";
shapes = (
{
closed = 1;
nodes = (
(301,118,o),
(313,200,o),
(313,363,cs),
(313,526,o),
(301,608,o),
(276,608,cs),
(251,608,o),
(238,526,o),
(238,363,cs),
(238,200,o),
(251,118,o),
(276,118,cs)
);
},
{
closed = 1;
nodes = (
(447,172,o),
(411,156,o),
(357,107,cs),
(302,58,o),
(248,58,o),
(194,107,cs),
(85,206,o),
(21,159,o),
(166,27,cs),
(311,-105,o),
(502,117,o),
(466,154,c)
);
}
);
width = 550;
}
);
unicode = 8595;
},
{
color = 6;
glyphname = southWestArrow;
layers = (
{
layerId = "DA2C6654-D585-4A87-87E3-B198D23B8793";
shapes = (
{
closed = 1;
nodes = (
(152.117,353.002,o),
(137.976,389.771,o),
(111.813,390.478,c),
(60.196,389.771,o),
(38.276,97.743,o),
(234.14,88.55,cs),
(430.004,79.358,o),
(417.983,157.845,o),
(270.909,164.916,cs),
(198.078,168.452,o),
(159.895,206.635,o),
(155.653,280.172,cs)
);
},
{
closed = 1;
nodes = (
(431.418,476.743,o),
(384.75,447.045,o),
(309.091,371.386,cs),
(232.726,295.021,o),
(203.028,248.353,o),
(220.705,230.676,cs),
(238.382,212.998,o),
(285.757,241.989,o),
(362.123,318.355,cs),
(437.782,394.013,o),
(466.772,441.388,o),
(449.095,459.066,cs)
);
}
);
width = 550;
}
);
unicode = 8601;
},
{
color = 6;
glyphname = arrowleft;
layers = (
{
layerId = "DA2C6654-D585-4A87-87E3-B198D23B8793";
shapes = (
{
closed = 1;
nodes = (
(220,415,o),
(236,451,o),
(218,470,c),
(181,506,o),
(-41,315,o),
(91,170,cs),
(223,25,o),
(270,89,o),
(171,198,cs),
(122,252,o),
(122,306,o),
(171,361,cs)
);
},
{
closed = 1;
nodes = (
(505,305,o),
(451,317,o),
(344,317,cs),
(236,317,o),
(182,305,o),
(182,280,cs),
(182,255,o),
(236,242,o),
(344,242,cs),
(451,242,o),
(505,255,o),
(505,280,cs)
);
}
);
width = 550;
}
);
unicode = 8592;
},
{
color = 6;
glyphname = northWestArrow;
layers = (
{
layerId = "DA2C6654-D585-4A87-87E3-B198D23B8793";
shapes = (
{
closed = 1;
nodes = (
(343.002,438.883,o),
(379.771,453.024,o),
(380.478,479.187,c),
(379.771,530.804,o),
(87.743,552.724,o),
(78.55,356.86,cs),
(69.358,160.996,o),
(147.845,173.017,o),
(154.916,320.091,cs),
(158.452,392.922,o),
(196.635,431.105,o),
(270.172,435.347,cs)
);
},
{
closed = 1;
nodes = (
(466.743,159.582,o),
(437.045,206.25,o),
(361.386,281.909,cs),
(285.021,358.274,o),
(238.353,387.972,o),
(220.676,370.295,cs),
(202.998,352.618,o),
(231.989,305.243,o),
(308.355,228.877,cs),
(384.013,153.218,o),
(431.388,124.228,o),
(449.066,141.905,cs)
);
}
);
width = 550;
}
);
unicode = 8598;
},
{
color = 6;
glyphname = arrowboth;
layers = (
{
layerId = "DA2C6654-D585-4A87-87E3-B198D23B8793";
shapes = (
{
closed = 1;
nodes = (
(220,415,o),
(236,451,o),
(218,470,c),
(181,506,o),
(-41,315,o),
(91,170,cs),
(223,25,o),
(270,89,o),
(171,198,cs),
(122,252,o),
(122,306,o),
(171,361,cs)
);
},
{
closed = 1;
nodes = (
(328,533,o),
(281,469,o),
(380,361,cs),
(429,306,o),
(429,252,o),
(380,198,cs),
(331,143,o),
(315,107,o),
(334,89,c),
(370,52,o),
(592,243,o),
(460,388,cs)
);
},
{
closed = 1;
nodes = (
(369,305,o),
(337,317,o),
(274,317,cs),
(211,317,o),
(179,305,o),
(179,280,cs),
(179,255,o),
(211,242,o),
(274,242,cs),
(337,242,o),
(369,255,o),
(369,280,cs)
);
}
);
width = 550;
}
);
unicode = 8596;
},
{
color = 6;
glyphname = arrowupdn;
layers = (
{
layerId = "DA2C6654-D585-4A87-87E3-B198D23B8793";
shapes = (
{
closed = 1;
nodes = (
(248,570,o),
(302,570,o),
(357,521,cs),
(411,471,o),
(447,455,o),
(466,474,cs),
(502,510,o),
(311,732,o),
(166,600,cs),
(21,468,o),
(85,421,o),
(194,521,cs)
);
},
{
closed = 1;
nodes = (
(250,512,o),
(237,446,o),
(237,315,cs),
(237,183,o),
(250,117,o),
(275,117,cs),
(300,117,o),
(312,183,o),
(312,315,cs),
(312,446,o),
(300,512,o),
(275,512,cs)
);
},
{
closed = 1;
nodes = (
(302,57,o),
(248,57,o),
(194,107,cs),
(139,156,o),
(103,172,o),
(85,154,cs),
(48,117,o),
(239,-105,o),
(384,27,cs),
(529,159,o),
(465,206,o),
(357,107,cs)
);
}
);
width = 550;
}
);
unicode = 8597;
},
{
color = 6;
glyphname = lozenge;
layers = (
{
layerId = "DA2C6654-D585-4A87-87E3-B198D23B8793";
shapes = (
{
closed = 1;
nodes = (
(237,737,o),
(12,394,o),
(163,166,cs),
(314,-63,o),
(539,280,o),
(388,509,cs)
);
},
{
closed = 1;
nodes = (
(299,576,o),
(441,371,o),
(347,235,cs),
(253,98,o),
(111,303,o),
(205,440,cs)
);
}
);
width = 550;
}
);
unicode = 9674;
},
{
color = 6;
glyphname = at;
layers = (
{
layerId = "DA2C6654-D585-4A87-87E3-B198D23B8793";
shapes = (
{
closed = 1;
nodes = (
(493,549,o),
(488,562,o),
(487,566,c),
(479,591,l),
(467,615,l),
(460,620,o),
(454,625,o),
(449,628,c),
(432,641,l),
(417,649,l),
(407,652,o),
(398,654,o),
(389,656,c),
(378,656,o),
(369,656,o),
(360,656,c),
(335,653,o),
(316,650,o),
(301,648,c),
(270,634,l),
(268,633,o),
(263,631,o),
(256,628,c),
(248,625,o),
(230,617,o),
(203,606,c),
(108,508,l),
(101,481,o),
(88,437,o),
(70,376,c),
(49,214,l),
(49,144,o),
(49,100,o),
(49,82,c),
(65,22,l),
(75,-6,o),
(81,-23,o),
(83,-30,c),
(93,-55,l),
(96,-65,o),
(98,-74,o),
(100,-81,c),
(118,-95,l),
(145,-107,l),
(147,-109,o),
(151,-112,o),
(158,-117,c),
(176,-120,l),
(186,-120,o),
(199,-120,o),
(215,-120,c),
(247,-94,l),
(264,-75,o),
(274,-63,o),
(277,-58,c),
(286,-47,l),
(289,-44,o),
(300,-32,o),
(319,-11,c),
(330,8,o),
(337,21,o),
(341,28,c),
(349,48,l),
(348,54,o),
(348,57,o),
(348,58,c),
(351,64,l),
(350,63,o),
(343,68,o),
(332,80,c),
(308,103,o),
(292,59,o),
(291,56,c),
(280,34,l),
(268,19,o),
(255,2,o),
(242,-16,c),
(215,-48,l),
(194,-48,ls),
(192,-48,o),
(185,-48,o),
(174,-48,c),
(169,-45,o),
(161,-40,o),
(149,-33,c),
(135,-30,l),
(137,-34,o),
(137,-34,o),
(134,-30,c),
(113,3,l),
(98,54,l),
(98,91,o),
(98,142,o),
(98,207,c),
(115,347,l),
(134,409,o),
(146,449,o),
(151,467,c),
(227,542,l),
(250,551,o),
(277,562,o),
(306,575,c),
(328,578,o),
(348,580,o),
(366,583,c),
(371,583,o),
(375,583,o),
(378,583,c),
(390,582,l),
(389,583,o),
(397,581,o),
(412,576,c),
(428,565,l),
(429,564,o),
(431,563,o),
(435,560,c),
(439,559,l),
(440,552,l),
(442,546,o),
(446,534,o),
(452,515,c),
(452,494,o),
(452,475,o),
(452,458,c),
(442,403,l),
(427,344,o),
(425,339,o),
(418,280,cs),
(410,220,o),
(389,210,o),
(389,265,c),
(390,277,o),
(390,294,o),
(391,317,c),
(391,340,o),
(392,354,o),
(394,359,cs),
(396,364,o),
(400,380,o),
(405,408,c),
(405,424,o),
(405,440,o),
(405,455,c),
(394,480,l),
(387,480,o),
(378,480,o),
(368,480,c),
(353,463,o),
(342,450,o),
(335,443,c),
(326,420,o),
(318,410,o),
(313,413,cs),
(270,440,l),
(264,443,o),
(259,445,o),
(255,447,c),
(230,451,l),
(227,452,o),
(225,452,o),
(224,453,c),
(218,456,l),
(217,456,o),
(215,456,o),
(213,456,c),
(213,452,o),
(213,447,o),
(214,442,c),
(214,436,o),
(214,433,o),
(214,432,cs),
(214,431,o),
(211,418,o),
(206,393,c),
(199,368,o),
(193,346,o),
(168,258,c),
(165,231,o),
(162,214,o),
(161,207,c),
(161,191,o),
(161,173,o),
(161,153,c),
(165,117,o),
(166,90,o),
(166,58,c),
(168,58,o),
(169,58,o),
(169,59,c),
(169,59,o),
(176,67,o),
(190,84,cs),
(204,100,o),
(227,127,o),
(259,165,c),
(270,181,o),
(281,196,o),
(290,209,c),
(309,256,l),
(318,286,o),
(326,311,o),
(332,331,c),
(335,337,o),
(336,340,o),
(336,340,cs),
(336,340,o),
(336,341,o),
(336,342,cs),
(336,343,o),
(341,356,o),
(351,383,c),
(359,394,o),
(364,401,o),
(365,403,c),
(360,387,ls),
(359,384,o),
(357,372,o),
(352,351,c),
(352,351,o),
(352,342,o),
(352,323,c),
(349,272,o),
(349,233,o),
(349,178,c),
(371,167,o),
(383,161,o),
(384,160,c),
(392,154,l),
(395,154,o),
(396,154,o),
(400,157,c),
(404,165,l),
(405,166,o),
(406,169,o),
(409,172,c),
(423,183,l),
(426,186,o),
(431,191,o),
(438,198,c),
(464,277,l),
(469,296,o),
(473,313,o),
(476,327,cs),
(477,332,o),
(482,351,o),
(490,384,c),
(501,450,l),
(501,472,o),
(501,498,o),
(501,527,c)
);
},
{
closed = 1;
nodes = (
(262,414,o),
(262,414,o),
(262,414,c),
(262,413,o),
(262,413,o),
(262,414,c)
);
},
{
closed = 1;
nodes = (
(248,211,o),
(237,199,o),
(224,185,cs),
(211,170,o),
(203,169,o),
(201,181,c),
(201,202,o),
(201,208,o),
(206,235,c),
(214,260,o),
(223,288,o),
(233,320,c),
(236,343,o),
(239,358,o),
(240,365,c),
(251,386,o),
(303,358,o),
(298,343,c),
(295,335,o),
(288,314,o),
(277,280,c),
(255,221,l)
);
}
);
width = 550;
}
);
unicode = 64;
},
{
color = 6;
glyphname = ampersand;
layers = (
{
layerId = "DA2C6654-D585-4A87-87E3-B198D23B8793";
shapes = (
{
closed = 1;
nodes = (
(514,363,o),
(470,375,o),
(383,375,cs),
(295,375,o),
(232,375,o),
(194,375,c),
(126,434,l),
(126,467,o),
(126,499,o),
(126,529,c),
(186,585,l),
(219,585,o),
(251,585,o),
(282,585,c),
(336,538,l),
(336,509,o),
(348,494,o),
(371,494,cs),
(394,494,o),
(406,520,o),
(406,573,c),
(314,660,l),
(262,660,o),
(218,660,o),
(181,660,c),
(94,614,l),
(46,533,l),
(46,500,o),
(46,462,o),
(46,417,c),
(124,350,l),
(173,345,o),
(172,338,o),
(122,331,c),
(36,246,l),
(36,197,o),
(36,156,o),
(36,122,c),
(82,38,l),
(165,-10,l),
(201,-10,o),
(255,-10,o),
(328,-10,c),
(347,58,o),
(356,52,o),
(356,-27,cs),
(356,-106,o),
(368,-146,o),
(391,-146,cs),
(414,-146,o),
(426,-72,o),
(426,77,cs),
(426,226,o),
(441,300,o),
(470,300,cs),
(499,300,o),
(514,313,o),
(514,338,cs)
);
},
{
closed = 1;
nodes = (
(356,198,o),
(356,162,o),
(356,130,c),
(282,65,l),
(247,65,o),
(212,65,o),
(178,65,c),
(116,128,l),
(116,164,o),
(116,200,o),
(116,235,c),
(188,300,l),
(230,300,o),
(269,300,o),
(304,300,cs),
(339,300,o),
(356,280,o),
(356,239,cs)
);
}
);
width = 550;
}
);
unicode = 38;
},
{
color = 6;
glyphname = paragraph;
layers = (
{
layerId = "DA2C6654-D585-4A87-87E3-B198D23B8793";
shapes = (
{
closed = 1;
nodes = (
(505,542,o),
(463,650,o),
(379,650,cs),
(294,650,o),
(234,650,o),
(197,650,c),
(103,603,l),
(47,516,l),
(47,478,o),
(47,440,o),
(47,402,c),
(103,315,l),
(197,268,l),
(234,268,o),
(259,268,o),
(274,268,cs),
(288,268,o),
(295,223,o),
(295,134,cs),
(295,45,o),
(308,0,o),
(334,0,cs),
(360,0,o),
(373,45,o),
(373,134,cs),
(373,223,o),
(382,268,o),
(400,268,cs),
(418,268,o),
(427,223,o),
(427,134,cs),
(427,45,o),
(440,0,o),
(466,0,cs),
(492,0,o),
(505,108,o),
(505,325,cs)
);
},
{
closed = 1;
nodes = (
(427,383,o),
(399,345,o),
(343,345,cs),
(286,345,o),
(238,345,o),
(198,345,c),
(127,400,l),
(127,439,o),
(127,479,o),
(127,518,c),
(198,573,l),
(238,573,o),
(286,573,o),
(343,573,cs),
(399,573,o),
(427,535,o),
(427,459,cs)
);
}
);
width = 550;
}
);
unicode = 182;
},
{
color = 6;
glyphname = section;
layers = (
{
layerId = "DA2C6654-D585-4A87-87E3-B198D23B8793";
shapes = (
{
closed = 1;
nodes = (
(383,224,o),
(382,233,o),
(415,236,c),
(463,290,l),
(463,317,o),
(463,346,o),
(463,378,c),
(416,439,l),
(345,472,l),
(308,483,o),
(273,493,o),
(242,502,c),
(199,518,l),
(170,546,l),
(170,561,o),
(170,577,o),
(170,596,c),
(218,631,l),
(247,631,o),
(277,631,o),
(310,631,c),
(365,592,l),
(370,563,o),
(384,549,o),
(407,549,cs),
(430,549,o),
(441,574,o),
(440,623,c),
(346,710,l),
(291,710,o),
(237,710,o),
(184,710,c),
(90,628,l),
(90,586,o),
(90,551,o),
(90,522,c),
(142,466,l),
(181,449,o),
(182,439,o),
(143,435,c),
(90,379,l),
(90,353,o),
(90,321,o),
(90,282,c),
(191,210,l),
(245,194,o),
(286,182,o),
(315,174,c),
(357,157,l),
(383,129,l),
(383,113,o),
(383,95,o),
(383,76,c),
(339,41,l),
(309,41,o),
(275,41,o),
(237,41,c),
(170,94,l),
(163,121,o),
(148,135,o),
(123,135,cs),
(98,135,o),
(85,126,o),
(83,109,c),
(123,28,l),
(219,-36,l),
(272,-36,o),
(323,-36,o),
(373,-36,c),
(463,42,l),
(463,84,o),
(463,120,o),
(463,150,c),
(417,207,l)
);
},
{
closed = 1;
nodes = (
(170,341,o),
(170,357,o),
(170,376,c),
(217,413,l),
(246,416,o),
(264,417,o),
(273,414,c),
(281,411,o),
(303,403,o),
(340,390,c),
(383,361,l),
(383,340,o),
(383,320,o),
(383,301,c),
(340,260,l),
(314,257,o),
(282,263,o),
(245,277,c),
(201,296,l),
(170,326,l)
);
}
);
width = 550;
}
);
unicode = 167;
},
{
color = 6;
glyphname = copyright;
layers = (
{
layerId = "DA2C6654-D585-4A87-87E3-B198D23B8793";
shapes = (
{
closed = 1;
nodes = (
(251,54,o),
(301,54,o),
(350,54,c),
(468,128,l),
(533,256,l),
(533,307,o),
(533,357,o),
(533,408,c),
(468,535,l),
(351,609,l),
(301,609,o),
(251,609,o),
(201,609,c),
(83,535,l),
(18,408,l),
(18,357,o),
(18,307,o),
(18,256,c),
(84,128,l),
(201,54,l)
);
},
{
closed = 1;
nodes = (
(294,126,o),
(258,126,o),
(221,126,c),
(136,181,l),
(90,275,l),
(90,313,o),
(90,351,o),
(90,389,c),
(136,482,l),
(220,537,l),
(257,537,o),
(294,537,o),
(331,537,c),
(415,482,l),
(461,389,l),
(461,351,o),
(461,313,o),
(461,275,c),
(415,181,l),
(331,126,l)
);
},
{
closed = 1;
nodes = (
(391,295,o),
(381,313,o),
(360,313,cs),
(339,313,o),
(327,296,o),
(323,261,c),
(294,261,o),
(270,261,o),
(253,261,c),
(227,299,l),
(227,320,o),
(227,342,o),
(227,363,c),
(254,402,l),
(271,402,o),
(293,402,o),
(321,402,c),
(326,368,o),
(339,351,o),
(360,351,cs),
(381,351,o),
(391,369,o),
(390,404,c),
(328,468,l),
(295,468,o),
(262,468,o),
(228,468,c),
(160,390,l),
(160,351,o),
(160,311,o),
(160,272,c),
(227,195,l),
(262,195,o),
(295,195,o),
(328,195,c),
(391,260,l)
);
}
);
width = 550;
}
);
unicode = 169;
},
{
color = 6;
glyphname = registered;
layers = (
{
layerId = "DA2C6654-D585-4A87-87E3-B198D23B8793";
shapes = (
{
closed = 1;
nodes = (
(251,105,o),
(301,105,o),
(350,105,c),
(468,179,l),
(533,307,l),
(533,358,o),
(533,408,o),
(533,459,c),
(468,586,l),
(351,660,l),
(301,660,o),
(251,660,o),
(201,660,c),
(83,586,l),
(18,459,l),
(18,408,o),
(18,358,o),
(18,307,c),
(84,179,l),
(201,105,l)
);
},
{
closed = 1;
nodes = (
(294,177,o),
(258,177,o),
(221,177,c),
(136,232,l),
(90,326,l),
(90,364,o),
(90,402,o),
(90,440,c),
(136,533,l),
(220,588,l),
(257,588,o),
(294,588,o),
(331,588,c),
(415,533,l),
(461,440,l),
(461,402,o),
(461,364,o),
(461,326,c),
(415,232,l),
(331,177,l)
);
},
{
closed = 1;
nodes = (
(187,301,o),
(198,257,o),
(220,257,cs),
(242,257,o),
(253,270,o),
(253,297,cs),
(253,324,o),
(255,337,o),
(259,337,cs),
(263,337,o),
(273,337,o),
(290,337,c),
(311,323,l),
(311,313,o),
(311,300,o),
(311,283,cs),
(311,266,o),
(322,257,o),
(344,257,cs),
(366,257,o),
(377,266,o),
(377,283,cs),
(377,300,o),
(377,317,o),
(377,333,c),
(356,362,l),
(338,365,o),
(339,368,o),
(358,371,c),
(381,408,l),
(381,429,o),
(381,451,o),
(381,476,c),
(330,519,l),
(293,519,o),
(260,519,o),
(231,519,cs),
(202,519,o),
(187,475,o),
(187,388,cs)
);
},
{
closed = 1;
nodes = (
(256,397,o),
(252,407,o),
(252,427,cs),
(252,447,o),
(256,457,o),
(263,457,cs),
(270,457,o),
(287,457,o),
(316,457,c),
(316,439,o),
(316,425,o),
(315,414,c),
(293,397,l),
(280,397,o),
(270,397,o),
(263,397,cs)
);
}
);
width = 550;
}
);
unicode = 174;
},
{
color = 6;
glyphname = trademark;
layers = (
{
layerId = "DA2C6654-D585-4A87-87E3-B198D23B8793";
shapes = (
{
closed = 1;
nodes = (
(406,638,o),
(363,650,o),
(276,650,cs),
(189,650,o),
(146,638,o),
(146,613,cs),
(146,588,o),
(161,575,o),
(191,575,cs),
(221,575,o),
(236,546,o),
(236,488,cs),
(236,429,o),
(249,400,o),
(276,400,cs),
(303,400,o),
(316,429,o),
(316,488,cs),
(316,546,o),
(331,575,o),
(361,575,cs),
(391,575,o),
(406,588,o),
(406,613,cs)
);
},
{
closed = 1;
nodes = (
(389,400,o),
(359,370,o),
(326,311,cs),
(284,236,o),
(268,236,o),
(226,311,cs),
(193,370,o),
(163,400,o),
(136,400,cs),
(109,400,o),
(96,358,o),
(96,275,cs),
(96,192,o),
(109,150,o),
(135,150,cs),
(161,150,o),
(174,172,o),
(175,215,cs),
(175,258,o),
(185,258,o),
(206,215,cs),
(226,172,o),
(249,150,o),
(276,150,cs),
(303,150,o),
(326,172,o),
(347,216,cs),
(367,259,o),
(377,259,o),
(378,216,cs),
(378,172,o),
(391,150,o),
(417,150,cs),
(443,150,o),
(456,192,o),
(456,275,cs),
(456,358,o),
(443,400,o),
(416,400,cs)
);
}
);
width = 550;
}
);
unicode = 8482;
},
{
color = 6;
glyphname = degree;
layers = (
{
layerId = "DA2C6654-D585-4A87-87E3-B198D23B8793";
shapes = (
{
closed = 1;
nodes = (
(258,411,o),
(292,411,o),
(327,411,c),
(400,485,l),
(400,520,o),
(400,554,o),
(400,589,c),
(327,662,l),
(292,662,o),
(258,662,o),
(223,662,c),
(150,589,l),
(150,554,o),
(150,520,o),
(150,485,c),
(223,411,l)
);
},
{
closed = 1;
nodes = (
(283,475,o),
(267,475,o),
(250,475,c),
(215,511,l),
(215,528,o),
(215,545,o),
(215,562,c),
(250,598,l),
(267,598,o),
(283,598,o),
(300,598,c),
(335,562,l),
(335,545,o),
(335,528,o),
(335,511,c),
(300,475,l)
);
}
);
width = 550;
}
);
unicode = 176;
},
{
color = 6;
glyphname = bar;
layers = (
{
layerId = "DA2C6654-D585-4A87-87E3-B198D23B8793";
shapes = (
{
closed = 1;
nodes = (
(252,800,o),
(240,640,o),
(240,320,cs),
(240,0,o),
(252,-160,o),
(275,-160,cs),
(298,-160,o),
(310,0,o),
(310,320,cs),
(310,640,o),
(298,800,o),
(275,800,cs)
);
}
);
width = 550;
}
);
unicode = 124;
},
{
color = 6;
glyphname = brokenbar;
layers = (
{
layerId = "DA2C6654-D585-4A87-87E3-B198D23B8793";
shapes = (
{
closed = 1;
nodes = (
(310,743,o),
(298,800,o),
(275,800,cs),
(252,800,o),
(240,743,o),
(240,628,cs),
(240,513,o),
(252,455,o),
(275,455,cs),
(298,455,o),
(310,513,o),
(310,628,cs)
);
},
{
closed = 1;
nodes = (
(310,128,o),
(298,185,o),
(275,185,cs),
(252,185,o),
(240,128,o),
(240,13,cs),
(240,-102,o),
(252,-160,o),
(275,-160,cs),
(298,-160,o),
(310,-102,o),
(310,13,cs)
);
}
);
width = 550;
}
);
unicode = 166;
},
{
color = 6;
glyphname = dagger;
layers = (
{
layerId = "DA2C6654-D585-4A87-87E3-B198D23B8793";
shapes = (
{
closed = 1;
nodes = (
(470,488,o),
(444,500,o),
(393,500,cs),
(341,500,o),
(315,533,o),
(315,600,cs),
(315,667,o),
(302,700,o),
(275,700,cs),
(248,700,o),
(235,667,o),
(235,600,cs),
(235,533,o),
(209,500,o),
(158,500,cs),
(106,500,o),
(80,488,o),
(80,463,cs),
(80,438,o),
(106,425,o),
(158,425,cs),
(209,425,o),
(235,321,o),
(235,113,cs),
(235,-96,o),
(248,-200,o),
(275,-200,cs),
(302,-200,o),
(315,-96,o),
(315,113,cs),
(315,321,o),
(341,425,o),
(393,425,cs),
(444,425,o),
(470,438,o),
(470,463,cs)
);
}
);
width = 550;
}
);
unicode = 8224;
},
{
color = 6;
glyphname = daggerdbl;
layers = (
{
layerId = "DA2C6654-D585-4A87-87E3-B198D23B8793";
shapes = (
{
closed = 1;
nodes = (
(444,425,o),
(470,438,o),
(470,463,cs),
(470,488,o),
(444,500,o),
(393,500,cs),
(341,500,o),
(315,533,o),
(315,600,cs),
(315,667,o),
(302,700,o),
(275,700,cs),
(248,700,o),
(235,667,o),
(235,600,cs),
(235,533,o),
(209,500,o),
(158,500,cs),
(106,500,o),
(80,488,o),
(80,463,cs),
(80,438,o),
(106,425,o),
(158,425,cs),
(209,425,o),
(235,368,o),
(235,254,cs),
(235,139,o),
(209,82,o),
(158,82,cs),
(106,82,o),
(80,70,o),
(80,45,cs),
(80,20,o),
(106,7,o),
(158,7,cs),
(209,7,o),
(235,-27,o),
(235,-96,cs),
(235,-165,o),
(248,-200,o),
(275,-200,cs),
(302,-200,o),
(315,-165,o),
(315,-96,cs),
(315,-27,o),
(341,7,o),
(393,7,cs),
(444,7,o),
(470,20,o),
(470,45,cs),
(470,70,o),
(444,82,o),
(393,82,cs),
(341,82,o),
(315,139,o),
(315,254,cs),
(315,368,o),
(341,425,o),
(393,425,cs)
);
}
);
width = 550;
}
);
unicode = 8225;
},
{
color = 6;
glyphname = ampersand.case;
layers = (
{
layerId = "DA2C6654-D585-4A87-87E3-B198D23B8793";
shapes = (
{
closed = 1;
nodes = (
(535,363,o),
(467,375,o),
(330,375,cs),
(193,375,o),
(125,408,o),
(125,475,cs),
(125,542,o),
(153,575,o),
(210,575,cs),
(266,575,o),
(294,588,o),
(294,613,cs),
(294,638,o),
(253,650,o),
(170,650,cs),
(87,650,o),
(45,542,o),
(45,325,cs),
(45,108,o),
(94,0,o),
(191,0,cs),
(288,0,o),
(337,-24,o),
(337,-73,cs),
(337,-122,o),
(349,-146,o),
(372,-146,cs),
(395,-146,o),
(407,-72,o),
(407,77,cs),
(407,226,o),
(428,300,o),
(471,300,cs),
(514,300,o),
(535,313,o),
(535,338,cs)
);
},
{
closed = 1;
nodes = (
(337,113,o),
(302,75,o),
(231,75,cs),
(160,75,o),
(125,113,o),
(125,188,cs),
(125,263,o),
(160,300,o),
(231,300,cs),
(302,300,o),
(337,263,o),
(337,188,cs)
);
}
);
width = 550;
}
);
},
{
color = 6;
glyphname = ampersand.ss01;
layers = (
{
layerId = "DA2C6654-D585-4A87-87E3-B198D23B8793";
shapes = (
{
closed = 1;
nodes = (
(501,0,o),
(504,18,o),
(481,55,cs),
(458,92,o),
(461,136,o),
(492,189,c),
(496,255,o),
(486,288,o),
(463,288,cs),
(440,288,o),
(427,269,o),
(425,232,c),
(397,160,o),
(111,575,o),
(285,575,cs),
(372,575,o),
(415,588,o),
(415,613,cs),
(415,638,o),
(357,650,o),
(240,650,cs),
(123,650,o),
(64,638,o),
(64,613,cs),
(64,588,o),
(86,541,o),
(129,473,cs),
(172,405,o),
(171,366,o),
(124,357,c),
(34,257,l),
(34,210,o),
(34,168,o),
(34,133,c),
(85,43,l),
(179,-10,l),
(220,-10,o),
(271,-10,o),
(332,-10,c),
(376,30,o),
(403,42,o),
(414,25,c),
(424,8,o),
(443,0,o),
(472,0,cs)
);
},
{
closed = 1;
nodes = (
(272,65,o),
(231,65,o),
(194,65,c),
(114,131,l),
(114,169,o),
(114,205,o),
(114,238,c),
(176,303,l),
(252,311,o),
(375,124,o),
(316,65,c)
);
}
);
width = 550;
}
);
},
{
color = 6;
glyphname = at.ss02;
layers = (
{
layerId = "DA2C6654-D585-4A87-87E3-B198D23B8793";
shapes = (
{
closed = 1;
nodes = (
(402,444,o),
(390,494,o),
(366,494,cs),
(341,494,o),
(329,476,o),
(329,453,cs),
(329,418,o),
(325,418,o),
(318,453,c),
(276,512,l),
(258,512,o),
(249,512,o),
(233,512,c),
(172,463,l),
(148,385,l),
(148,358,o),
(148,273,o),
(148,248,c),
(171,176,l),
(228,128,l),
(242,128,o),
(250,128,o),
(269,128,c),
(315,201,l),
(324,236,o),
(329,246,o),
(329,236,cs),
(329,187,l),
(398,131,l),
(418,131,o),
(445,131,o),
(465,131,c),
(533,187,l),
(533,237,l),
(533,449,l),
(468,576,l),
(351,650,l),
(301,650,o),
(251,650,o),
(201,650,c),
(83,576,l),
(18,449,l),
(18,398,o),
(18,228,o),
(18,177,c),
(84,49,l),
(201,-25,l),
(302,-25,o),
(281,47,o),
(221,47,c),
(136,102,l),
(90,196,l),
(90,234,o),
(90,392,o),
(90,430,c),
(136,523,l),
(220,578,l),
(257,578,o),
(294,578,o),
(331,578,c),
(415,523,l),
(461,430,l),
(461,256,l),
(461,220,l),
(445,203,l),
(438,203,o),
(424,203,o),
(417,203,c),
(402,220,l),
(402,295,ls)
);
},
{
closed = 1;
nodes = (
(262,197,o),
(258,197,o),
(242,197,c),
(221,250,l),
(221,273,o),
(221,359,o),
(221,387,c),
(236,442,l),
(256,442,o),
(268,442,o),
(289,442,c),
(329,386,l),
(329,358,o),
(329,280,o),
(329,261,c),
(301,229,l),
(269,197,l)
);
}
);
width = 550;
}
);
},
{
color = 6;
glyphname = dieresiscomb;
layers = (
{
anchors = (
{
name = _top;
pos = (241,500);
},
{
name = top;
pos = (241,700);
}
);
layerId = "DA2C6654-D585-4A87-87E3-B198D23B8793";
shapes = (
{
closed = 1;
nodes = (
(204,684,o),
(187,700,o),
(152,700,cs),
(117,700,o),
(100,684,o),
(100,651,cs),
(100,618,o),
(117,602,o),
(152,602,cs),
(187,602,o),
(204,618,o),
(204,651,cs)
);
},
{
closed = 1;
nodes = (
(382,684,o),
(365,700,o),
(330,700,cs),
(295,700,o),
(278,684,o),
(278,651,cs),
(278,618,o),
(295,602,o),
(330,602,cs),
(365,602,o),
(382,618,o),
(382,651,cs)
);
}
);
width = 550;
}
);
unicode = 776;
},
{
color = 6;
glyphname = dotaccentcomb;
layers = (
{
anchors = (
{
name = _top;
pos = (152,500);
},
{
name = top;
pos = (152,700);
}
);
layerId = "DA2C6654-D585-4A87-87E3-B198D23B8793";
shapes = (
{
closed = 1;
nodes = (
(204,684,o),
(187,700,o),
(152,700,cs),
(117,700,o),
(100,684,o),
(100,652,cs),
(100,619,o),
(117,603,o),
(152,603,cs),
(187,603,o),
(204,619,o),
(204,652,cs)
);
}
);
width = 550;
}
);
unicode = 775;
},
{
color = 6;
glyphname = gravecomb;
layers = (
{
anchors = (
{
name = _top;
pos = (262,550);
},
{
name = top;
pos = (214,752);
}
);
layerId = "DA2C6654-D585-4A87-87E3-B198D23B8793";
shapes = (
{
closed = 1;
nodes = (
(337,617,o),
(303,655,o),
(232,702,cs),
(159,749,o),
(114,771,o),
(102,755,cs),
(91,739,o),
(126,700,o),
(197,654,cs),
(269,606,o),
(314,585,o),
(326,601,cs)
);
}
);
width = 550;
}
);
unicode = 768;
},
{
color = 6;
glyphname = acutecomb;
layers = (
{
anchors = (
{
name = _top;
pos = (166,550);
},
{
name = top;
pos = (206,778);
}
);
layerId = "DA2C6654-D585-4A87-87E3-B198D23B8793";
shapes = (
{
closed = 1;
nodes = (
(125,655,o),
(91,617,o),
(102,601,cs),
(114,585,o),
(159,606,o),
(231,654,cs),
(302,700,o),
(337,739,o),
(326,755,cs),
(314,771,o),
(269,749,o),
(196,702,cs)
);
}
);
width = 550;
}
);
unicode = 769;
},
{
color = 6;
glyphname = hungarumlautcomb;
layers = (
{
anchors = (
{
name = _top;
pos = (246,550);
},
{
name = top;
pos = (416,752);
}
);
layerId = "DA2C6654-D585-4A87-87E3-B198D23B8793";
shapes = (
{
closed = 1;
nodes = (
(330,655,o),
(296,617,o),
(307,601,cs),
(319,585,o),
(364,606,o),
(436,654,cs),
(507,700,o),
(542,739,o),
(531,755,cs),
(519,771,o),
(474,749,o),
(401,702,cs)
);
},
{
closed = 1;
nodes = (
(125,655,o),
(91,617,o),
(102,601,cs),
(114,585,o),
(159,606,o),
(231,654,cs),
(302,700,o),
(337,739,o),
(326,755,cs),
(314,771,o),
(269,749,o),
(196,702,cs)
);
}
);
width = 550;
}
);
unicode = 779;
},
{
color = 6;
glyphname = caroncomb.alt;
layers = (
{
anchors = (
{
name = _topright;
pos = (100,700);
}
);
layerId = "DA2C6654-D585-4A87-87E3-B198D23B8793";
shapes = (
{
closed = 1;
nodes = (
(188,533,o),
(208,562,o),
(208,652,cs),
(208,689,o),
(190,700,o),
(154,700,cs),
(118,700,o),
(100,684,o),
(100,652,cs),
(100,563,o),
(114,535,o),
(135,506,c),
(135,506,o),
(149,506,o),
(167,506,c)
);
}
);
width = 550;
}
);
},
{
color = 6;
glyphname = circumflexcomb;
layers = (
{
anchors = (
{
name = _top;
pos = (276,550);
},
{
name = top;
pos = (276,752);
}
);
layerId = "DA2C6654-D585-4A87-87E3-B198D23B8793";
shapes = (
{
closed = 1;
nodes = (
(307,763,o),
(245,763,o),
(172,697,cs),
(47,584,o),
(106,563,o),
(195,644,cs),
(259,702,o),
(293,702,o),
(358,644,cs),
(447,565,o),
(505,584,o),
(380,697,cs)
);
}
);
width = 550;
}
);
unicode = 770;
},
{
color = 6;
glyphname = caroncomb;
layers = (
{
anchors = (
{
name = _top;
pos = (276,550);
},
{
name = top;
pos = (276,752);
}
);
layerId = "DA2C6654-D585-4A87-87E3-B198D23B8793";
shapes = (
{
closed = 1;
nodes = (
(505,768,o),
(447,787,o),
(358,708,cs),
(293,650,o),
(259,650,o),
(195,708,cs),
(106,789,o),
(47,768,o),
(172,655,cs),
(245,589,o),
(307,589,o),
(380,655,cs)
);
}
);
width = 550;
}
);
unicode = 780;
},
{
color = 6;
glyphname = brevecomb;
layers = (
{
anchors = (
{
name = _top;
pos = (268,550);
},
{
name = top;
pos = (298,730);
}
);
layerId = "DA2C6654-D585-4A87-87E3-B198D23B8793";
shapes = (
{
closed = 1;
nodes = (
(357,705,l),
(357,725,o),
(370,740,o),
(397,740,cs),
(424,740,o),
(437,724,o),
(437,701,c),
(386,641,l),
(326,604,l),
(286,604,o),
(248,604,o),
(211,604,c),
(151,641,l),
(100,701,l),
(100,724,o),
(113,740,o),
(140,740,cs),
(167,740,o),
(180,725,o),
(180,705,c),
(214,669,l),
(249,669,o),
(285,669,o),
(322,669,c)
);
}
);
width = 550;
}
);
unicode = 774;
},
{
color = 6;
glyphname = ringcomb;
layers = (
{
anchors = (
{
name = _top;
pos = (225,550);
},
{
name = top;
pos = (225,800);
}
);
layerId = "DA2C6654-D585-4A87-87E3-B198D23B8793";
shapes = (
{
closed = 1;
nodes = (
(208,599,o),
(242,599,o),
(277,599,c),
(350,663,l),
(350,698,o),
(350,717,o),
(350,747,c),
(277,810,l),
(242,810,o),
(208,810,o),
(173,810,c),
(100,747,l),
(100,717,o),
(100,698,o),
(100,663,c),
(173,599,l)
);
},
{
closed = 1;
nodes = (
(232,654,o),
(218,654,o),
(203,654,c),
(161,682,l),
(161,692,o),
(161,718,o),
(161,728,c),
(203,755,l),
(218,755,o),
(232,755,o),
(247,755,c),
(289,728,l),
(289,718,o),
(289,692,o),
(289,682,c),
(247,654,l)
);
}
);
width = 550;
}
);
unicode = 778;
},
{
color = 6;
glyphname = tildecomb;
layers = (
{
anchors = (
{
name = _top;
pos = (294,550);
},
{
name = top;
pos = (294,750);
}
);
layerId = "DA2C6654-D585-4A87-87E3-B198D23B8793";
shapes = (
{
closed = 1;
nodes = (
(433,726,o),
(422,699,o),
(422,664,c),
(394,664,o),
(375,664,o),
(364,664,c),
(335,689,l),
(320,700,o),
(303,712,o),
(284,725,c),
(238,736,l),
(219,736,o),
(192,736,o),
(158,736,c),
(100,688,l),
(100,656,o),
(100,635,o),
(100,626,c),
(101,621,o),
(112,618,o),
(134,618,cs),
(156,618,o),
(167,625,o),
(167,639,c),
(194,680,l),
(211,680,o),
(225,680,o),
(236,680,c),
(267,654,l),
(281,644,o),
(297,632,o),
(316,619,c),
(361,608,l),
(380,608,o),
(405,608,o),
(435,608,c),
(490,656,l),
(490,688,o),
(490,709,o),
(490,718,c),
(489,723,o),
(477,726,o),
(455,726,cs)
);
}
);
width = 550;
}
);
unicode = 771;
},
{
color = 6;
glyphname = macroncomb;
layers = (
{
anchors = (
{
name = _top;
pos = (250,550);
},
{
name = top;
pos = (250,702);
}
);
layerId = "DA2C6654-D585-4A87-87E3-B198D23B8793";
shapes = (
{
closed = 1;
nodes = (
(150.009,699,o),
(100.009,689,o),
(100.009,669,cs),
(100.009,649,o),
(150.009,639,o),
(250.009,639,cs),
(350.009,639,o),
(400.009,649,o),
(400.009,669,cs),
(400.009,689,o),
(350.009,699,o),
(250.009,699,cs)
);
}
);
width = 550;
}
);
unicode = 772;
},
{
color = 6;
glyphname = commaturnedabovecomb;
layers = (
{
anchors = (
{
name = _top;
pos = (154,500);
}
);
layerId = "DA2C6654-D585-4A87-87E3-B198D23B8793";
shapes = (
{
closed = 1;
nodes = (
(191,749,o),
(175,748,o),
(146,738,c),
(100,674,l),
(100,635,o),
(100,605,o),
(100,582,cs),
(100,560,o),
(118,549,o),
(154,549,cs),
(190,549,o),
(208,565,o),
(208,597,cs),
(208,630,o),
(200,648,o),
(183,651,c),
(167,655,o),
(159,664,o),
(159,678,c),
(178,711,l),
(197,729,l),
(199,730,o),
(198,735,o),
(194,742,c)
);
}
);
width = 550;
}
);
unicode = 786;
},
{
color = 6;
glyphname = commaaccentcomb;
layers = (
{
anchors = (
{
name = _bottom;
pos = (154,0);
},
{
name = bottom;
pos = (154,-283);
}
);
layerId = "DA2C6654-D585-4A87-87E3-B198D23B8793";
shapes = (
{
closed = 1;
nodes = (
(117,-249,o),
(133,-248,o),
(162,-238,c),
(208,-174,l),
(208,-135,o),
(208,-105,o),
(208,-82,cs),
(208,-60,o),
(190,-49,o),
(154,-49,cs),
(118,-49,o),
(100,-65,o),
(100,-97,cs),
(100,-130,o),
(108,-148,o),
(125,-151,c),
(141,-155,o),
(149,-164,o),
(149,-178,c),
(130,-211,l),
(111,-229,l),
(109,-230,o),
(110,-235,o),
(114,-242,c)
);
}
);
width = 550;
}
);
unicode = 806;
},
{
color = 6;
glyphname = cedillacomb;
layers = (
{
anchors = (
{
name = _bottom;
pos = (245,0);
},
{
name = bottom;
pos = (347,-240);
}
);
layerId = "DA2C6654-D585-4A87-87E3-B198D23B8793";
shapes = (
{
closed = 1;
nodes = (
(237,-54,cs),
(264,-88,l),
(264,-111,o),
(264,-140,o),
(264,-175,c),
(231,-175,o),
(207,-175,o),
(191,-175,c),
(167,-148,l),
(167,-138,o),
(157,-133,o),
(136,-133,cs),
(115,-133,o),
(103,-148,o),
(100,-178,c),
(167,-240,l),
(202,-240,o),
(236,-240,o),
(271,-240,c),
(332,-181,l),
(332,-149,o),
(332,-117,o),
(332,-86,c),
(294,-31,ls),
(234,55,o),
(180,18,o)
);
}
);
width = 550;
}
);
unicode = 807;
},
{
color = 6;
glyphname = ogonekcomb;
layers = (
{
anchors = (
{
name = _ogonek;
pos = (196,0);
}
);
layerId = "DA2C6654-D585-4A87-87E3-B198D23B8793";
shapes = (
{
closed = 1;
nodes = (
(222,90,o),
(138,-31,cs),
(100,-86,l),
(100,-117,o),
(100,-149,o),
(100,-181,c),
(161,-240,l),
(196,-240,o),
(230,-240,o),
(265,-240,c),
(332,-178,l),
(329,-148,o),
(317,-133,o),
(296,-133,cs),
(275,-133,o),
(265,-138,o),
(265,-148,c),
(241,-175,l),
(225,-175,o),
(201,-175,o),
(168,-175,c),
(168,-140,o),
(168,-111,o),
(168,-88,c),
(195,-54,ls),
(277,50,o)
);
}
);
width = 550;
}
);
unicode = 808;
},
{
color = 6;
glyphname = gravecomb.ss03;
layers = (
{
anchors = (
{
name = _top;
pos = (152,500);
},
{
name = top;
pos = (152,700);
}
);
layerId = "DA2C6654-D585-4A87-87E3-B198D23B8793";
shapes = (
{
closed = 1;
nodes = (
(117,700,o),
(100,684,o),
(100,652,cs),
(100,619,o),
(117,603,o),
(152,603,cs),
(187,603,o),
(204,619,o),
(204,652,cs),
(204,684,o),
(187,700,o),
(152,700,cs)
);
}
);
width = 550;
}
);
},
{
color = 6;
glyphname = acutecomb.ss03;
layers = (
{
anchors = (
{
name = _top;
pos = (152,500);
},
{
name = top;
pos = (152,700);
}
);
layerId = "DA2C6654-D585-4A87-87E3-B198D23B8793";
shapes = (
{
closed = 1;
nodes = (
(204,684,o),
(187,700,o),
(152,700,cs),
(117,700,o),
(100,684,o),
(100,652,cs),
(100,619,o),
(117,603,o),
(152,603,cs),
(187,603,o),
(204,619,o),
(204,652,cs)
);
}
);
width = 550;
}
);
},
{
color = 6;
glyphname = hungarumlautcomb.ss03;
layers = (
{
anchors = (
{
name = _top;
pos = (241,500);
},
{
name = top;
pos = (241,700);
}
);
layerId = "DA2C6654-D585-4A87-87E3-B198D23B8793";
shapes = (
{
closed = 1;
nodes = (
(204,684,o),
(187,700,o),
(152,700,cs),
(117,700,o),
(100,684,o),
(100,651,cs),
(100,618,o),
(117,602,o),
(152,602,cs),
(187,602,o),
(204,618,o),
(204,651,cs)
);
},
{
closed = 1;
nodes = (
(382,684,o),
(365,700,o),
(330,700,cs),
(295,700,o),
(278,684,o),
(278,651,cs),
(278,618,o),
(295,602,o),
(330,602,cs),
(365,602,o),
(382,618,o),
(382,651,cs)
);
}
);
width = 550;
}
);
},
{
color = 6;
glyphname = caroncomb.alt.ss03;
layers = (
{
anchors = (
{
name = _topright;
pos = (100,700);
}
);
layerId = "DA2C6654-D585-4A87-87E3-B198D23B8793";
shapes = (
{
closed = 1;
nodes = (
(204,684,o),
(187,700,o),
(152,700,cs),
(117,700,o),
(100,684,o),
(100,651,cs),
(100,619,o),
(117,603,o),
(152,603,cs),
(187,603,o),
(204,619,o),
(204,651,cs)
);
}
);
width = 550;
}
);
},
{
color = 6;
glyphname = circumflexcomb.ss03;
layers = (
{
anchors = (
{
name = _top;
pos = (152,500);
},
{
name = top;
pos = (152,700);
}
);
layerId = "DA2C6654-D585-4A87-87E3-B198D23B8793";
shapes = (
{
closed = 1;
nodes = (
(204,684,o),
(187,700,o),
(152,700,cs),
(117,700,o),
(100,684,o),
(100,652,cs),
(100,619,o),
(117,603,o),
(152,603,cs),
(187,603,o),
(204,619,o),
(204,652,cs)
);
}
);
width = 550;
}
);
},
{
color = 6;
glyphname = caroncomb.ss03;
layers = (
{
anchors = (
{
name = _top;
pos = (152,500);
},
{
name = top;
pos = (152,700);
}
);
layerId = "DA2C6654-D585-4A87-87E3-B198D23B8793";
shapes = (
{
closed = 1;
nodes = (
(204,684,o),
(187,700,o),
(152,700,cs),
(117,700,o),
(100,684,o),
(100,652,cs),
(100,619,o),
(117,603,o),
(152,603,cs),
(187,603,o),
(204,619,o),
(204,652,cs)
);
}
);
width = 550;
}
);
},
{
color = 6;
glyphname = brevecomb.ss03;
layers = (
{
anchors = (
{
name = _top;
pos = (152,500);
},
{
name = top;
pos = (152,700);
}
);
layerId = "DA2C6654-D585-4A87-87E3-B198D23B8793";
shapes = (
{
closed = 1;
nodes = (
(204,684,o),
(187,700,o),
(152,700,cs),
(117,700,o),
(100,684,o),
(100,652,cs),
(100,619,o),
(117,603,o),
(152,603,cs),
(187,603,o),
(204,619,o),
(204,652,cs)
);
}
);
width = 550;
}
);
},
{
color = 6;
glyphname = ringcomb.ss03;
layers = (
{
anchors = (
{
name = _top;
pos = (152,500);
},
{
name = top;
pos = (152,700);
}
);
layerId = "DA2C6654-D585-4A87-87E3-B198D23B8793";
shapes = (
{
closed = 1;
nodes = (
(204,684,o),
(187,700,o),
(152,700,cs),
(117,700,o),
(100,684,o),
(100,652,cs),
(100,619,o),
(117,603,o),
(152,603,cs),
(187,603,o),
(204,619,o),
(204,652,cs)
);
}
);
width = 550;
}
);
},
{
color = 6;
glyphname = tildecomb.ss03;
layers = (
{
anchors = (
{
name = _top;
pos = (152,500);
},
{
name = top;
pos = (152,700);
}
);
layerId = "DA2C6654-D585-4A87-87E3-B198D23B8793";
shapes = (
{
closed = 1;
nodes = (
(204,684,o),
(187,700,o),
(152,700,cs),
(117,700,o),
(100,684,o),
(100,652,cs),
(100,619,o),
(117,603,o),
(152,603,cs),
(187,603,o),
(204,619,o),
(204,652,cs)
);
}
);
width = 550;
}
);
},
{
color = 6;
glyphname = macroncomb.ss03;
layers = (
{
anchors = (
{
name = _top;
pos = (152,500);
},
{
name = top;
pos = (152,700);
}
);
layerId = "DA2C6654-D585-4A87-87E3-B198D23B8793";
shapes = (
{
closed = 1;
nodes = (
(204,684,o),
(187,700,o),
(152,700,cs),
(117,700,o),
(100,684,o),
(100,652,cs),
(100,619,o),
(117,603,o),
(152,603,cs),
(187,603,o),
(204,619,o),
(204,652,cs)
);
}
);
width = 550;
}
);
},
{
color = 6;
glyphname = commaturnedabovecomb.ss03;
layers = (
{
anchors = (
{
name = _top;
pos = (154,510);
},
{
name = top;
pos = (152,700);
}
);
layerId = "DA2C6654-D585-4A87-87E3-B198D23B8793";
shapes = (
{
closed = 1;
nodes = (
(204,684,o),
(187,700,o),
(152,700,cs),
(117,700,o),
(100,684,o),
(100,652,cs),
(100,619,o),
(117,603,o),
(152,603,cs),
(187,603,o),
(204,619,o),
(204,652,cs)
);
}
);
width = 550;
}
);
},
{
color = 6;
glyphname = commaaccentcomb.ss03;
layers = (
{
anchors = (
{
name = _bottom;
pos = (152,0);
}
);
layerId = "DA2C6654-D585-4A87-87E3-B198D23B8793";
shapes = (
{
closed = 1;
nodes = (
(204,-118,o),
(187,-102,o),
(152,-102,cs),
(117,-102,o),
(100,-118,o),
(100,-151,cs),
(100,-184,o),
(117,-200,o),
(152,-200,cs),
(187,-200,o),
(204,-184,o),
(204,-151,cs)
);
}
);
width = 550;
}
);
},
{
color = 6;
glyphname = cedillacomb.ss03;
layers = (
{
anchors = (
{
name = _bottom;
pos = (152,0);
},
{
name = bottom;
pos = (152,-200);
}
);
layerId = "DA2C6654-D585-4A87-87E3-B198D23B8793";
shapes = (
{
closed = 1;
nodes = (
(204,-118,o),
(187,-102,o),
(152,-102,cs),
(117,-102,o),
(100,-118,o),
(100,-151,cs),
(100,-184,o),
(117,-200,o),
(152,-200,cs),
(187,-200,o),
(204,-184,o),
(204,-151,cs)
);
}
);
width = 550;
}
);
},
{
color = 6;
glyphname = ogonekcomb.ss03;
layers = (
{
anchors = (
{
name = _ogonek;
pos = (204,10);
}
);
layerId = "DA2C6654-D585-4A87-87E3-B198D23B8793";
shapes = (
{
closed = 1;
nodes = (
(204,-118,o),
(187,-102,o),
(152,-102,cs),
(117,-102,o),
(100,-118,o),
(100,-151,cs),
(100,-184,o),
(117,-200,o),
(152,-200,cs),
(187,-200,o),
(204,-184,o),
(204,-151,cs)
);
}
);
width = 550;
}
);
},
{
color = 6;
glyphname = strokeshortcomb.ss03;
layers = (
{
anchors = (
{
name = _center;
pos = (250,394);
}
);
layerId = "DA2C6654-D585-4A87-87E3-B198D23B8793";
shapes = (
{
closed = 1;
nodes = (
(150,424,o),
(100,414,o),
(100,394,cs),
(100,374,o),
(150,364,o),
(250,364,cs),
(350,364,o),
(400,374,o),
(400,394,cs),
(400,414,o),
(350,424,o),
(250,424,cs)
);
}
);
width = 550;
}
);
},
{
color = 6;
glyphname = strokelongcomb.ss03;
layers = (
{
anchors = (
{
name = _center;
pos = (250,394);
}
);
layerId = "DA2C6654-D585-4A87-87E3-B198D23B8793";
shapes = (
{
closed = 1;
nodes = (
(150,424,o),
(100,414,o),
(100,394,cs),
(100,374,o),
(150,364,o),
(250,364,cs),
(350,364,o),
(400,374,o),
(400,394,cs),
(400,414,o),
(350,424,o),
(250,424,cs)
);
}
);
width = 550;
}
);
},
{
color = 6;
glyphname = slashshortcomb.ss03;
layers = (
{
anchors = (
{
name = _center;
pos = (250,388);
}
);
layerId = "DA2C6654-D585-4A87-87E3-B198D23B8793";
shapes = (
{
closed = 1;
nodes = (
(375,533,o),
(77,313,o),
(101,278,cs),
(124,242,o),
(424,462,o),
(400,498,cs)
);
}
);
width = 550;
}
);
},
{
color = 6;
glyphname = slashlongcomb.ss03;
layers = (
{
anchors = (
{
name = _center;
pos = (293,340);
}
);
layerId = "DA2C6654-D585-4A87-87E3-B198D23B8793";
shapes = (
{
closed = 1;
nodes = (
(447,705,o),
(67,17,o),
(102,-4,cs),
(137,-25,o),
(519,665,o),
(483,685,cs)
);
}
);
width = 550;
}
);
},
